<svg xmlns="http://www.w3.org/2000/svg" width="320" height="48" viewBox="0 0 320 48"><g opacity="0.29" style="mix-blend-mode:screen;isolation:isolate"><path d="M295.19,2.886a1,1,0,0,1-1.214-.723,8.094,8.094,0,0,0-.279-.869c-.276.1-.542.191-.825.287a29.462,29.462,0,0,0-5.61,2.367.993.993,0,0,1,.389,1.3.973.973,0,0,1-.177.224.99.99,0,0,1-.821.822,20.376,20.376,0,0,0-2.611.6,8.762,8.762,0,0,0-1.38,4.969,6.114,6.114,0,0,0,.955,3.186c.43-.172.874-.33,1.339-.467a1,1,0,0,1,.563,1.92c-.185.054-.357.122-.535.183a6.909,6.909,0,0,0,4.552,1.868c2.793,0,4.982-1.67,4.982-3.8a3.1,3.1,0,0,0-2.879-3.359,2.548,2.548,0,0,0-2.292,1.518,1.323,1.323,0,0,1-.338-1.155c.17-1.2,1.542-2.475,3.752-2.475a15.113,15.113,0,0,1,2.922.337,2.987,2.987,0,0,1,.227-1.149,1,1,0,1,1,1.854.752.958.958,0,0,0,.068.911c.868.234,1.729.49,2.554.737a24.219,24.219,0,0,0,5.1,1.176,4.57,4.57,0,0,0,.2-.723,1,1,0,1,1,1.968.352c-.012.072-.034.134-.048.2a7.526,7.526,0,0,0,4.965-3.289,5.284,5.284,0,0,0,.491-1.048,3.48,3.48,0,0,0,.416.192.986.986,0,0,1,.366-1.228,1,1,0,0,1,1.381.307,4.79,4.79,0,0,1,.534,1.147A5.327,5.327,0,0,0,320,5.352V.088a1,1,0,0,0-.978.995c0,2.242-.7,4.914-4.029,4.914a1.988,1.988,0,0,1-1.557-.65c-.154-.131-.308-.262-.474-.385-.019-.029-.038-.061-.059-.094a1,1,0,0,0-1.737.988,1.881,1.881,0,0,1-.309,1.7A5.863,5.863,0,0,1,305.8,10.07a21.4,21.4,0,0,1-4.842-1.119,30.528,30.528,0,0,0-8.2-1.672c-3.375,0-5.439,2.111-5.733,4.2a3.4,3.4,0,0,0,2.631,3.838.991.991,0,0,0,.812-.116,1,1,0,0,0,.452-.683c.111-.683.392-1.123.716-1.123.368,0,.879.472.879,1.359,0,.87-1.2,1.8-2.982,1.8a5.182,5.182,0,0,1-4.874-4.69c0-5.377,4.5-6.908,8.855-8.388.569-.194,1.128-.384,1.664-.579a1.052,1.052,0,0,0,.274-.109A3.048,3.048,0,0,0,297.083.25a2.329,2.329,0,0,0-.027-.25h-1.745a9.891,9.891,0,0,1,.6,1.671A1,1,0,0,1,295.19,2.886Z" fill="#ffa57d"/><path d="M251.423,10.572a1,1,0,0,0-.526,1.751,8.792,8.792,0,0,0,5.867,2.191c3.176,0,6.537-1.744,10.073-3.8a28.1,28.1,0,0,1,5.178-5c.362-.272.728-.534,1.1-.79-1.982.956-3.916,2.09-5.773,3.182-3.855,2.267-7.5,4.408-10.578,4.408a6.814,6.814,0,0,1-2.494-.449c5.913-1.51,9.466-5.287,12.918-8.954C268.2,2.037,269.2.98,270.239,0h-2.848c-.561.575-1.112,1.159-1.66,1.74C262.045,5.657,258.232,9.707,251.423,10.572Z" fill="#ffa57d"/><path d="M274.516,5.177a1,1,0,0,1-.26,1.39l-.092.067c3.266-1.559,6.545-2.511,9.756-1.8a23.466,23.466,0,0,1,2.427-.516,1,1,0,0,1,1.141.835.977.977,0,0,1-.014.32.973.973,0,0,0,.177-.224.993.993,0,0,0-.389-1.3.616.616,0,0,0-.049-.04c-4.741-2.409-9.527-1.181-14.057,1A1,1,0,0,1,274.516,5.177Z" fill="#ffa57d"/><path d="M293.976,2.163a1,1,0,1,0,1.937-.492,9.891,9.891,0,0,0-.6-1.671h-2.258a7.767,7.767,0,0,1,.644,1.294A8.094,8.094,0,0,1,293.976,2.163Z" fill="#ffa57d"/><path d="M272.438,28.4c-2.812,5.851-5.7,11.863-12.656,14.661,4.793-4.356,7.068-10.733,9.285-16.946,3.041-8.522,5.947-16.6,14.975-19.217a20.376,20.376,0,0,1,2.611-.6.99.99,0,0,0,.821-.822.977.977,0,0,0,.014-.32,1,1,0,0,0-1.141-.835,23.466,23.466,0,0,0-2.427.516c-7.9,2.1-11.656,7.867-14.385,14.384a1,1,0,0,1,1.448,1.38c-.529.555-1.018,1.076-1.478,1.564-.664.706-1.269,1.349-1.843,1.938q-.24.667-.478,1.334c-2.862,8.019-5.564,15.592-13.228,19.085a1,1,0,0,0,.414,1.911,1.062,1.062,0,0,0,.125-.008c11.171-1.392,15.467-8.447,18.814-15.246a25.019,25.019,0,0,1,5.672-13.113C276.076,20.849,274.234,24.661,272.438,28.4Z" fill="#ffa57d"/><path d="M285.519,16.5a1,1,0,0,0-.563-1.92c-.465.137-.909.3-1.339.467a14.278,14.278,0,0,0-4.389,2.788.988.988,0,0,1,1.273.041,1,1,0,0,1,.062,1.413c-.045.049-.085.1-.13.154a12.385,12.385,0,0,1,4.551-2.76C285.162,16.624,285.334,16.556,285.519,16.5Z" fill="#ffa57d"/><path d="M270.983,20.6a1,1,0,0,0-1.448-1.38h0c-.531.558-1.023,1.082-1.486,1.573-4.127,4.39-5.736,6.1-11.77,7.306,4.263-2.779,6.162-6.24,8.139-9.843,1.991-3.63,4.05-7.383,8.8-10.946.311-.234.628-.459.948-.679l.092-.067a1,1,0,0,0-1.1-1.663c-.01.006-.021.006-.031.013l-.01.007c-.372.256-.738.518-1.1.79a28.1,28.1,0,0,0-5.178,5,43.78,43.78,0,0,0-4.174,6.578c-2.675,4.877-4.985,9.09-13.33,11.849a1,1,0,0,0,.313,1.949.934.934,0,0,0,.118-.007c11.227-1.327,13.726-2.7,17.9-6.984.574-.589,1.179-1.232,1.843-1.938C269.965,21.678,270.454,21.157,270.983,20.6Z" fill="#ffa57d"/><path d="M311.284,14.1a1,1,0,0,1,1.357-.4,6.17,6.17,0,0,0,.8.36c.011-.023.018-.048.03-.071a2.476,2.476,0,0,1,.57-.573,5.253,5.253,0,0,0,1.3-1.464,5.428,5.428,0,0,0,.41-3.992,4.79,4.79,0,0,0-.534-1.147,1,1,0,0,0-1.381-.307.986.986,0,0,0-.366,1.228,1.051,1.051,0,0,0,.059.153,3.1,3.1,0,0,1,.044,3.134,3.471,3.471,0,0,1-.82.863,3.916,3.916,0,0,0-1.061,1.185,9.477,9.477,0,0,0-.68,1.863,4.9,4.9,0,0,1-.97,2.1,3.91,3.91,0,0,1-1.38.683,4.013,4.013,0,0,0-1.824,1.024c-3.332,4.036-3.817,4.119-5.854,4.468a26.752,26.752,0,0,0-4.634,1.175,15.645,15.645,0,0,0,.063-3.37c-.109-2.047-.2-3.814,1.2-5.2a1,1,0,0,0,.121-1.281c-.431-.625-.1-1.865.466-2.7a1,1,0,0,0-.036-1.171,3.383,3.383,0,0,1-.341-.521.958.958,0,0,1-.068-.911,1,1,0,1,0-1.854-.752,2.987,2.987,0,0,0-.227,1.149A3.307,3.307,0,0,0,296.2,11.3a4.757,4.757,0,0,0-.468,3.624,7.36,7.36,0,0,0-1.352,5.1,4.914,4.914,0,0,1,1.287.319,1,1,0,1,1-.773,1.845,2.778,2.778,0,0,0-.425-.13,6.641,6.641,0,0,1-.587,3.5,1,1,0,0,0,1.251,1.41,26.579,26.579,0,0,1,6.2-1.8c2.526-.433,3.415-.754,7.052-5.159a4.331,4.331,0,0,1,.967-.424,5.145,5.145,0,0,0,2.195-1.234,6.04,6.04,0,0,0,1.26-2.412,8.056,8.056,0,0,1-1.115-.492A1,1,0,0,1,311.284,14.1Z" fill="#ffa57d"/><path d="M303.381,14.868c-.455.446-.925.908-1.378,1.445a8.247,8.247,0,0,0-1.271,2.23A4.109,4.109,0,0,1,299.05,20.8a1,1,0,0,0,1.039,1.709,5.992,5.992,0,0,0,2.481-3.176,6.52,6.52,0,0,1,.96-1.726c.394-.465.83-.9,1.252-1.309a8.433,8.433,0,0,0,2.821-4.419c.014-.07.036-.132.048-.2a1,1,0,1,0-1.968-.352,4.57,4.57,0,0,1-.2.723A7.466,7.466,0,0,1,303.381,14.868Z" fill="#ffa57d"/><path d="M291.367,21.241a1,1,0,0,1,.82-1.153c.256-.043.5-.065.743-.085a3.29,3.29,0,0,0-6.046,1.8c0,.076.017.148.022.223.049-.026.1-.059.147-.084a1,1,0,0,1,.9,1.784c-.1.05-.2.117-.3.172a3.271,3.271,0,0,0,5.8-1.926,6.221,6.221,0,0,0-.935.087A1.007,1.007,0,0,1,291.367,21.241ZM290.178,23.1a1.294,1.294,0,1,1,1.295-1.294A1.295,1.295,0,0,1,290.178,23.1Z" fill="#ffa57d"/><path d="M318.271,13.769a5.674,5.674,0,0,1-4.828.288,6.17,6.17,0,0,1-.8-.36,1,1,0,1,0-.955,1.758,8.056,8.056,0,0,0,1.115.492,8.274,8.274,0,0,0,2.814.508,7.189,7.189,0,0,0,3.678-.968,6.077,6.077,0,0,0,.707-.5V10.857A3.316,3.316,0,0,1,318.271,13.769Z" fill="#ffa57d"/><path d="M291.8,44.866a13.261,13.261,0,0,0,1.862-11.7,1,1,0,0,0-1.957.324,8.179,8.179,0,0,1-5.462,7.844c-2.355.683-4.481-.353-5.994-2.914-1.79-4.441,2.656-11.894,7.407-14.518.1-.055.2-.122.3-.172a1,1,0,0,0-.9-1.784c-.049.025-.1.058-.147.084-5.708,3-10.817,11.625-8.477,17.221a1.065,1.065,0,0,0,.058.117c1.992,3.422,5.027,4.839,8.313,3.888a9.587,9.587,0,0,0,5.308-4.154,10.508,10.508,0,0,1-1.912,4.572A7.683,7.683,0,0,1,284.113,47a8.125,8.125,0,0,1-7.746-5.28c-2.852-6.483-.983-16.627,4.066-22.275.045-.05.085-.1.13-.154a1,1,0,0,0-.062-1.413.988.988,0,0,0-1.273-.041,1.064,1.064,0,0,0-.14.1c-.037.041-.07.087-.107.128a25.019,25.019,0,0,0-5.672,13.113,21.555,21.555,0,0,0,1.227,11.344A10.579,10.579,0,0,0,279.568,48h8.579A10.583,10.583,0,0,0,291.8,44.866Z" fill="#ffa57d"/><path d="M295.275,22.269a1,1,0,0,0,.387-1.923,4.914,4.914,0,0,0-1.287-.319A6.9,6.9,0,0,0,292.93,20c-.243.02-.487.042-.743.085a1,1,0,1,0,.334,1.973,6.221,6.221,0,0,1,.935-.087,4.034,4.034,0,0,1,1.008.087,2.778,2.778,0,0,1,.425.13A1,1,0,0,0,295.275,22.269Z" fill="#ffa57d"/><path d="M24.809,45.114a1,1,0,0,1,1.215.723,8.093,8.093,0,0,0,.279.869c.276-.1.543-.191.825-.287a29.462,29.462,0,0,0,5.61-2.367.993.993,0,0,1-.389-1.3.967.967,0,0,1,.177-.223.991.991,0,0,1,.821-.823,20.549,20.549,0,0,0,2.611-.594,8.767,8.767,0,0,0,1.379-4.97,6.124,6.124,0,0,0-.954-3.186c-.43.172-.873.33-1.339.467a1,1,0,0,1-.563-1.92c.185-.054.356-.122.535-.183a6.907,6.907,0,0,0-4.552-1.868c-2.793,0-4.982,1.67-4.982,3.8a3.1,3.1,0,0,0,2.879,3.359,2.552,2.552,0,0,0,2.293-1.518,1.325,1.325,0,0,1,.337,1.155c-.169,1.2-1.541,2.475-3.751,2.475a15.123,15.123,0,0,1-2.923-.337,2.972,2.972,0,0,1-.228,1.15,1,1,0,1,1-1.852-.754.963.963,0,0,0-.069-.91c-.868-.234-1.73-.49-2.554-.737a24.213,24.213,0,0,0-5.1-1.176,4.72,4.72,0,0,0-.195.724,1,1,0,0,1-.984.823.979.979,0,0,1-.177-.016,1,1,0,0,1-.808-1.161c.013-.071.034-.133.049-.2a7.525,7.525,0,0,0-4.965,3.288,5.192,5.192,0,0,0-.491,1.05,3.583,3.583,0,0,0-.417-.193.983.983,0,0,1-.9,1.384,1,1,0,0,1-.845-.464,4.782,4.782,0,0,1-.534-1.146A5.327,5.327,0,0,0,0,42.648v5.264a1,1,0,0,0,.978-.995c0-2.242.7-4.914,4.029-4.914a1.987,1.987,0,0,1,1.556.649c.154.132.308.262.475.386l.056.091a1,1,0,0,0,1.74-.985,1.881,1.881,0,0,1,.309-1.7A5.863,5.863,0,0,1,14.2,37.93a21.4,21.4,0,0,1,4.841,1.119,30.527,30.527,0,0,0,8.2,1.672c3.374,0,5.438-2.111,5.732-4.2a3.4,3.4,0,0,0-2.631-3.838,1,1,0,0,0-1.263.8c-.112.683-.393,1.123-.717,1.123-.368,0-.879-.472-.879-1.359,0-.87,1.2-1.8,2.982-1.8a5.181,5.181,0,0,1,4.873,4.69c0,5.377-4.5,6.908-8.853,8.388-.569.194-1.128.384-1.664.579a.975.975,0,0,0-.274.109,3.047,3.047,0,0,0-1.629,2.537c0,.084.018.167.026.25h1.745a9.89,9.89,0,0,1-.6-1.671A1,1,0,0,1,24.809,45.114Z" fill="#ffa57d"/><path d="M46.805,43.117a1.032,1.032,0,0,1-.139.066Z" fill="#ffa57d"/><path d="M45.485,42.823a1,1,0,0,1,.259-1.39c.032-.022.062-.045.093-.067-3.267,1.559-6.545,2.51-9.757,1.795a23.151,23.151,0,0,1-2.427.517.969.969,0,0,1-1.127-1.154.967.967,0,0,0-.177.223.993.993,0,0,0,.389,1.3c.019.011.03.03.05.04,4.653,2.366,9.352,1.226,13.807-.876a1.023,1.023,0,0,1-.284.042A1,1,0,0,1,45.485,42.823Z" fill="#ffa57d"/><path d="M68.578,37.428a1,1,0,0,0,.525-1.751,8.793,8.793,0,0,0-5.867-2.191c-3.176,0-6.537,1.744-10.073,3.795a28.135,28.135,0,0,1-5.178,5.005q-.544.409-1.1.793c1.984-.956,3.919-2.092,5.778-3.185,3.854-2.267,7.495-4.408,10.578-4.408a6.823,6.823,0,0,1,2.5.449c-5.913,1.511-9.468,5.288-12.919,8.954C51.8,45.963,50.8,47.02,49.761,48h2.847c.562-.575,1.113-1.159,1.66-1.74C57.955,42.343,61.768,38.293,68.578,37.428Z" fill="#ffa57d"/><path d="M26.024,45.837a1,1,0,1,0-1.938.492,9.89,9.89,0,0,0,.6,1.671h2.259a7.805,7.805,0,0,1-.644-1.294A8.093,8.093,0,0,1,26.024,45.837Z" fill="#ffa57d"/><path d="M47.562,19.6c2.813-5.851,5.7-11.863,12.656-14.661C55.425,9.3,53.15,15.676,50.933,21.889c-3.042,8.523-5.947,16.6-14.975,19.218a20.549,20.549,0,0,1-2.611.594,1,1,0,0,0,.306,1.977,23.151,23.151,0,0,0,2.427-.517c7.9-2.1,11.655-7.866,14.384-14.383a1,1,0,1,1-1.446-1.38c.528-.555,1.018-1.076,1.478-1.565.664-.706,1.268-1.348,1.842-1.937q.239-.667.478-1.334C55.678,14.543,58.38,6.97,66.043,3.477a1,1,0,0,0-.538-1.9C54.332,2.966,50.037,10.023,46.69,16.823a25.01,25.01,0,0,1-5.674,13.113C43.923,27.154,45.765,23.341,47.562,19.6Z" fill="#ffa57d"/><path d="M40.174,30.385a1,1,0,0,1-.736-1.676c.044-.049.084-.1.129-.154a12.385,12.385,0,0,1-4.551,2.76c-.179.061-.35.129-.535.183a1,1,0,0,0,.563,1.92c.466-.137.909-.295,1.339-.467a14.3,14.3,0,0,0,4.4-2.8A1,1,0,0,1,40.174,30.385Z" fill="#ffa57d"/><path d="M49.018,27.4a1,1,0,1,0,1.446,1.38h0c.532-.558,1.024-1.082,1.487-1.574,4.127-4.389,5.735-6.1,11.769-7.3-4.263,2.779-6.161,6.24-8.139,9.843-1.99,3.63-4.049,7.383-8.8,10.946-.312.233-.629.459-.948.679-.031.022-.061.045-.093.067a1,1,0,0,0,.567,1.825,1.023,1.023,0,0,0,.284-.042c.025-.008.047-.023.071-.033a1.032,1.032,0,0,0,.139-.066c.022-.013.048-.019.07-.034l.005,0q.559-.384,1.1-.793a28.135,28.135,0,0,0,5.178-5.005A43.7,43.7,0,0,0,57.337,30.7c2.676-4.877,4.986-9.09,13.33-11.849a1,1,0,0,0-.431-1.942c-11.228,1.327-13.727,2.7-17.9,6.984-.574.589-1.178,1.231-1.842,1.937C50.036,26.322,49.546,26.843,49.018,27.4Z" fill="#ffa57d"/><path d="M23.805,36.7a4.755,4.755,0,0,0,.468-3.625,7.358,7.358,0,0,0,1.351-5.106,5,5,0,0,1-1.286-.314,1,1,0,0,1,.773-1.845,2.744,2.744,0,0,0,.425.13,6.633,6.633,0,0,1,.588-3.5,1,1,0,0,0-1.251-1.41,26.582,26.582,0,0,1-6.2,1.8c-2.525.433-3.415.754-7.052,5.159a4.32,4.32,0,0,1-.966.424,5.143,5.143,0,0,0-2.2,1.234A6.05,6.05,0,0,0,7.2,32.054a8.1,8.1,0,0,1,1.115.491A1,1,0,0,1,7.359,34.3a6.168,6.168,0,0,0-.8-.36c-.012.023-.018.048-.03.071a2.468,2.468,0,0,1-.569.572,5.243,5.243,0,0,0-1.3,1.465,5.429,5.429,0,0,0-.411,3.992,4.782,4.782,0,0,0,.534,1.146,1,1,0,0,0,1.38.308.986.986,0,0,0,.366-1.228.974.974,0,0,0-.059-.152,3.1,3.1,0,0,1-.043-3.135,3.455,3.455,0,0,1,.82-.863A3.942,3.942,0,0,0,8.3,34.934a9.483,9.483,0,0,0,.68-1.864,4.914,4.914,0,0,1,.97-2.1,3.9,3.9,0,0,1,1.38-.683,4.012,4.012,0,0,0,1.824-1.024c3.333-4.036,3.817-4.119,5.854-4.468a26.708,26.708,0,0,0,4.634-1.175,15.661,15.661,0,0,0-.063,3.372c.109,2.045.2,3.813-1.2,5.2a1,1,0,0,0-.121,1.28c.432.626.1,1.867-.465,2.7a1,1,0,0,0,.035,1.172,3.384,3.384,0,0,1,.341.521.963.963,0,0,1,.069.91,1,1,0,1,0,1.852.754,2.972,2.972,0,0,0,.228-1.15A3.3,3.3,0,0,0,23.805,36.7Z" fill="#ffa57d"/><path d="M16.619,33.132c.454-.446.924-.908,1.377-1.444a8.244,8.244,0,0,0,1.272-2.231A4.111,4.111,0,0,1,20.95,27.2a1,1,0,0,0-1.039-1.709,5.994,5.994,0,0,0-2.481,3.175,6.458,6.458,0,0,1-.961,1.727c-.394.466-.83.9-1.252,1.31a8.425,8.425,0,0,0-2.82,4.418c-.015.07-.036.132-.049.2a1,1,0,0,0,.808,1.161.979.979,0,0,0,.177.016,1,1,0,0,0,.984-.823,4.72,4.72,0,0,1,.195-.724A7.479,7.479,0,0,1,16.619,33.132Z" fill="#ffa57d"/><path d="M28.632,26.759a1,1,0,0,1-.818,1.153c-.252.043-.5.074-.739.095a3.292,3.292,0,0,0,6.041-1.812c0-.076-.017-.148-.022-.223-.049.026-.1.059-.146.084a1,1,0,0,1-.905-1.784c.1-.05.2-.116.3-.172a3.27,3.27,0,0,0-5.8,1.927,6.228,6.228,0,0,0,.934-.088A1,1,0,0,1,28.632,26.759Zm1.19-1.858a1.294,1.294,0,1,1-1.294,1.294A1.295,1.295,0,0,1,29.822,24.9Z" fill="#ffa57d"/><path d="M1.729,34.231a5.678,5.678,0,0,1,4.828-.288,6.168,6.168,0,0,1,.8.36,1,1,0,0,0,.955-1.758A8.1,8.1,0,0,0,7.2,32.054a7.7,7.7,0,0,0-6.492.459,5.957,5.957,0,0,0-.707.5v4.132A3.315,3.315,0,0,1,1.729,34.231Z" fill="#ffa57d"/><path d="M28.2,3.135a13.261,13.261,0,0,0-1.861,11.7,1,1,0,0,0,1.957-.324,8.181,8.181,0,0,1,5.461-7.844c2.354-.681,4.483.353,5.995,2.914C41.541,14.023,37.1,21.476,32.343,24.1c-.1.056-.2.122-.3.172a1,1,0,0,0,.905,1.784c.049-.025.1-.058.146-.084,5.708-3,10.818-11.624,8.477-17.221a.909.909,0,0,0-.058-.117C39.521,5.211,36.49,3.794,33.2,4.746A9.589,9.589,0,0,0,27.892,8.9,10.51,10.51,0,0,1,29.8,4.328,7.684,7.684,0,0,1,35.887,1a8.125,8.125,0,0,1,7.746,5.28c2.851,6.483.984,16.627-4.066,22.275-.045.05-.085.1-.129.154a.988.988,0,0,0,1.349,1.441,1.09,1.09,0,0,0,.125-.089c.036-.04.068-.085.1-.125A25.01,25.01,0,0,0,46.69,16.823,21.548,21.548,0,0,0,45.463,5.475,10.575,10.575,0,0,0,40.432,0H31.853A10.579,10.579,0,0,0,28.2,3.135Z" fill="#ffa57d"/><path d="M23.8,26.345a1,1,0,0,0,.536,1.309,5,5,0,0,0,1.286.314,6.045,6.045,0,0,0,.787.069c.214,0,.437-.011.664-.03s.487-.052.739-.095a1,1,0,0,0-.335-1.973,6.228,6.228,0,0,1-.934.088,4,4,0,0,1-1.009-.088,2.744,2.744,0,0,1-.425-.13A1,1,0,0,0,23.8,26.345Z" fill="#ffa57d"/></g></svg>