<svg width="16px" height="16px" xmlns="http://www.w3.org/2000/svg" viewBox="0 0 16 16"><title>attack-icon</title><g id="e11ce195-3b65-4e0c-870e-6bb660697f0b" data-name="レイヤー 2"><g id="b9cca3ad-3acc-44f9-a01c-665beba90a51" data-name="レイヤー 1"><path d="M15.73 14.85h-.37l-2-2a.32.32.0 0 1-.08-.33l.66-.93c0-.08.0-.16.0-.2L13.83 11a.14.14.0 0 0-.2.0l-1.06.81L8.85 8C11.53 5.39 14.48 2.52 15 2a3.1 3.1.0 0 0 1-2 3.1 3.1.0 0 0-2 1c-.52.52-3.39 3.45-6 6.14C5.39 4.45 2.52 1.52 2 1A3.1 3.1.0 0 0 0 0 3.1 3.1.0 0 0 1 2c.52.52 3.47 3.39 6.15 6L3.43 11.83 2.37 11a.14.14.0 0 0-.2.0L2 11.38s0 .12.0.2l.66.93a.32.32.0 0 1-.08.33l-2 2H.27v.35L0 15.78.22 16l.58-.33.34.06v-.37l2-2a.32.32.0 0 1 .33-.08l.91.67c.08.0.16.0.19.0L5 13.83a.14.14.0 0 0 0-.2l-.79-1.07L8 8.83l3.84 3.73-.79 1.07a.14.14.0 0 0 0 .2l.39.15s.11.0.19.0l.91-.67a.32.32.0 0 1 .33.08l2 2v.37l.34-.06.58.33.22-.22-.32-.58z" fill="#fff"/></g></g></svg>