<svg width="16px" height="16px" xmlns="http://www.w3.org/2000/svg" viewBox="0 0 16.02 16.02"><title>axe-icon</title><g id="f2634f6c-726e-4442-9662-8abb340ecd39" data-name="レイヤー 2"><g id="a4d8d06a-c7e1-4bc3-8da4-aa7675e311d7" data-name="レイヤー 1"><path d="M15.72 14.28a1 1 0 0 0-1-.23L8.34 7.66l-2-2v0a.18.18.0 0 0 0-.25l-.74-.74a.18.18.0 0 0-.25.0v0l-.23-.24A2.47 2.47.0 0 1 8 4.47 3.56 3.56.0 0 0 8 4 4 4 0 0 0 4 0a3.56 3.56.0 0 0-.47.05A2.51 2.51.0 0 1 4 1.5a2.45 2.45.0 0 1-.41 1.36l-.23-.24h0a.18.18.0 0 0 0-.25l-.74-.74a.18.18.0 0 0-.25.0l-.06.06A4.59 4.59.0 0 0 1 1a4.59 4.59.0 0 0 .69 1.32l-.06.06a.18.18.0 0 0 0 .25l.74.74a.18.18.0 0 0 .25.0h0l.24.23A2.45 2.45.0 0 1 1.5 4 2.51 2.51.0 0 1 .05 3.53 3.56 3.56.0 0 0 0 4 4 4 0 0 0 4 8a3.56 3.56.0 0 0 .47.0 2.47 2.47.0 0 1 0-2.83l.24.23v0a.18.18.0 0 0 0 .25l.74.74a.18.18.0 0 0 .25.0v0l2 2 6.39 6.34a1 1 0 0 0 .23 1 1 1 0 0 0 1.44-1.44z" fill="#fff"/></g></g></svg>