<svg width="10px" height="16px" xmlns="http://www.w3.org/2000/svg" viewBox="0 0 10 16"><title>balance-icon</title><g id="aa52895d-5c32-4987-a977-95262305b58d" data-name="レイヤー 2"><g id="f13bf677-f309-404b-bd30-e4583f2b338f" data-name="レイヤー 1"><path d="M9.64 1.12 10 1.05 9.83.75 10 .16 9.66.0 9.2.39H8.84L9 .74l-1.2 2a.28.28.0 0 1-.3.14l-.91-.12a.11.11.0 0 0-.14.0L6.13 3a.11.11.0 0 0 0 .16L7 3.67l-.44.75A17 17 0 0 1 5 3.71c-.59.29-1.11.53-1.6.72L3 3.67l.86-.48a.11.11.0 0 0 0-.16L3.59 2.8a.11.11.0 0 0-.14.0l-.91.12a.28.28.0 0 1-.3-.14L1 .74 1.16.4H.8L.34.0.05.16.17.75.0 1.05l.36.07 1.18 2a.29.29.0 0 1 0 .32L1 4.16a.14.14.0 0 0 0 .15V4.66a.11.11.0 0 0 .15.0L2 4.21l.34.58a9.4 9.4.0 0 1-1.8.34s-.2 3.92.74 5.94a12.25 12.25.0 0 0 .64 1.21L.89 14a6.14 6.14.0 0 0-.53 2 6.56 6.56.0 0 0 1.49-1.42l.76-1.28a5.69 5.69.0 0 0 2.41 2 5.75 5.75.0 0 0 2.39-2l.74 1.26A6.56 6.56.0 0 0 9.64 16a6.14 6.14.0 0 0-.53-2l-1-1.73c.22-.37.44-.78.66-1.24.93-2 .74-5.94.74-5.94a9.42 9.42.0 0 1-1.83-.35L8 4.21l.87.49a.11.11.0 0 0 .15.0l.07-.35a.14.14.0 0 0 0-.15l-.57-.7a.29.29.0 0 1 0-.32z" fill="#fff"/></g></g></svg>