<svg width="11px" height="16px" xmlns="http://www.w3.org/2000/svg" viewBox="0 0 11 16"><title>blow-arrow-icon</title><g id="fefe26b5-1d37-46fb-8ac7-9fecb67972ca" data-name="レイヤー 2"><g id="bf753f76-daeb-4ab4-8161-a73a91d24555" data-name="レイヤー 1"><path d="M11 .92l-.06-.2a.63.63.0 0 0-.31-.37L10.12.08A.77.77.0 0 0 9.78.0H9.61L9.39.08A.65.65.0 0 0 9 .36a.56.56.0 0 0-.06.47L9 .94 5.2 7 3.37 4a2.6 2.6.0 0 0-.48-2 3.05 3.05.0 0 0-.69-.77h-.33L.82 1.8l-.13.27A3 3 0 0 0 1.1 3 2.86 2.86.0 0 0 2.68 4.39L4.74 7.7 1.26 13.28h-.15a.65.65.0 0 0-.39.27A.55.55.0 0 0 .66 14v.14l-.08.13h-.15a.63.63.0 0 0-.38.27.56.56.0 0 0-.07.45l.08.24a.57.57.0 0 0 .29.36l.52.27a.55.55.0 0 0 .31.08h.16l.27-.07a.56.56.0 0 0 .44-.71v-.14l.08-.12h.16a.59.59.0 0 0 .44-.72v-.14l3-4.82 2.88 4.62a.4.4.0 0 0 .34.18.46.46.0 0 0 .2.0.37.37.0 0 0 .19-.22.31.31.0 0 0 0-.28l-3.11-5 4.23-6.77h.12A.63.63.0 0 0 11 .92z" fill="#fff"/></g></g></svg>