<svg width="16px" height="16px" xmlns="http://www.w3.org/2000/svg" viewBox="0 0 16 16"><title>bow-icon</title><g id="bfaa7c2a-7c74-4e60-ab91-32a45c4e714d" data-name="レイヤー 2"><g id="baa4d62a-3e56-4282-95ff-4ff9232f3eea" data-name="レイヤー 1"><path d="M15.85.15a.48.48.0 0 0-.7.0c-1.3 1.29-4.33-.18-6 1.5A7.77 7.77.0 0 0 7.89 3.58 11 11 0 0 1 6.32 6L4.07 3.51l.7-.25L2 2 3 4.87l.31-.68 2.21 2.4a13.48 13.48.0 0 1-1.25.69A8.07 8.07.0 0 0 2.15 8.65c-.88.87-1 2.23-1.15 3.55a5 5 0 0 1-.85 3 .48.48.0 0 0 0 .7A.47.47.0 0 0 .5 16a.47.47.0 0 0 .35-.15L7.74 9l3.33 3.63.24 1.67L13 16l.07-2H15l-1.54-1.74-1.65-.34L8.44 8.26 15.85.85a.48.48.0 0 0 0-.7zM8.77 4.05a7.69 7.69.0 0 1 1.08-1.7c.82-.81 2.31-.53 3.72-.63L7.76 7.53 7 6.69A10.8 10.8.0 0 0 8.77 4.05zM2 12.3a5 5 0 0 1 .85-3 7.82 7.82.0 0 1 1.9-1.18 13.17 13.17.0 0 0 1.48-.83l.83.9-5.2 5.19C1.92 13.06 2 12.68 2 12.3z" fill="#fff"/></g></g></svg>