<svg xmlns="http://www.w3.org/2000/svg" xmlns:xlink="http://www.w3.org/1999/xlink" viewBox="0 0 665 209"><defs><clipPath id="a"><rect width="665" height="209" transform="translate(0 -0.533)" fill="#fff"/></clipPath></defs><g transform="translate(0 0.533)" clip-path="url(#a)"><path d="M7.678,14.5A125.552,125.552,0,0,0,42.26,1.43c-.491,14.638-1.572,30.455-2.063,31.634a19.515,19.515,0,0,0-.491,3.93c0,5.207,4.912,10.709,9.53,10.709a6.268,6.268,0,0,0,5.5-3.93,11.4,11.4,0,0,0,.688-4.617c0-.393,0-.786-.1-2.161-.491-14.147-.589-20.042-.589-43.424a81.261,81.261,0,0,0,8.547-6.288,42.7,42.7,0,0,1,5.895-4.224c2.849-1.67,3.635-2.751,3.635-4.716A15.949,15.949,0,0,0,69.571-30.2c-2.358-3.046-6.484-5.305-11.2-6.091l-4.323,3.537c2.063.688,2.849,1.67,2.849,3.34a4.639,4.639,0,0,1-1.081,3.046A84.968,84.968,0,0,1,44.126-13.8C33.418-4.17,20.843,2.805,3.552,8.6ZM90.1-26.471a28.943,28.943,0,0,1,9.038,6.091c4.716,5.8,6.091,7.761,7.565,11.1a11.411,11.411,0,0,0,.982,2.26A5.589,5.589,0,0,0,112.8-4.268c4.716,0,8.744-4.323,8.744-9.53,0-8.547-11.593-16.014-27.7-17.88Zm3.34,52.757C96,35.127,102.581,42,108.279,42a5.522,5.522,0,0,0,4.519-1.867,21.738,21.738,0,0,1,5.7-4.912c22.2-13.165,37.529-29.866,47.157-51.086l-5.207-5.5A102.166,102.166,0,0,1,133.233,9.78c-11.3,8.547-24.954,15.621-30.062,15.621-2.751,0-4.421-1.081-5.895-3.733ZM202.986-1.223C209.666.546,218.8,7.914,224.7,16.166c1.965,3.046,3.635,4.126,6.091,4.126,4.224,0,7.172-3.733,7.172-9.137,0-4.224-2.358-8.351-6.484-11.1C223.617-5.251,215.07-8,202.986-9.18v-8.351c-.1-3.34.786-7.958,1.768-9.824a4.671,4.671,0,0,0,.688-2.456c0-4.814-7.172-8.056-17.782-8.056l-2.947,4.519c4.323,1.375,5.6,3.144,5.5,7.466l-.393,50.006a59.558,59.558,0,0,1-.491,7.466,27.9,27.9,0,0,0-.589,5.5c0,5.7,4.028,10.512,8.842,10.512,4.028,0,6.386-2.849,6.386-7.466a23.968,23.968,0,0,0-.1-2.554c-.688-12.379-.884-18.764-.884-27.017Zm18.764-21.81a14.7,14.7,0,0,1,9.333,7.958c1.375,3.34,2.358,4.323,4.519,4.323a4.475,4.475,0,0,0,4.421-4.716c0-5.5-5.7-9.53-15.915-11.1Zm8.842-8.056a14.7,14.7,0,0,1,9.333,7.958c1.375,3.34,2.358,4.323,4.519,4.323a4.475,4.475,0,0,0,4.421-4.716c0-5.5-5.7-9.53-15.915-11.1Zm25.052,14.245a15.054,15.054,0,0,0,1.965,7.466c1.768,2.849,4.814,4.814,7.368,4.814a11.9,11.9,0,0,0,4.224-.982,137.915,137.915,0,0,1,23.284-6.189c-12.87,15.228-31.733,29.08-51.185,37.824l4.028,5.5C259.77,26.58,270.97,20.98,279.812,14.3l-.1,1.768c-.589,9.235-1.081,14.736-1.67,18.764a19.965,19.965,0,0,0-.491,4.421,9.478,9.478,0,0,0,9.333,9.431,5.91,5.91,0,0,0,5.207-3.046c.688-1.081.982-3.046.982-5.5,0-1.67-.1-4.814-.2-7.859-.393-7.663-.491-12.477-.491-20.533,0-.884,0-4.126.1-7.27,2.161-1.768,6.877-5.895,7.958-6.877a13.071,13.071,0,0,1,5.4-3.144c2.358-.786,3.144-1.768,3.144-3.733,0-5.109-6.582-13.361-10.709-13.361a4.234,4.234,0,0,0-2.358.786,9.588,9.588,0,0,1-4.323,1.965l-.688.1a223.179,223.179,0,0,1-24.463,2.26c-4.126,0-5.993-.884-6.975-3.144Zm13.361-18.47a22.188,22.188,0,0,1,12.379,9.628c1.572,2.751,3.046,3.733,5.7,3.733a7.528,7.528,0,0,0,7.565-7.663c0-6.779-8.252-10.61-22.694-10.512ZM295.334,8.995c6.189,3.439,10.9,9.137,13.951,17,1.474,3.733,3.635,5.4,6.975,5.4,4.224,0,7.466-3.733,7.466-8.449,0-8.154-10.217-15.817-24.954-18.863Zm45-38.315a32.338,32.338,0,0,1,16.014,13.754c2.063,3.635,3.831,4.912,6.975,4.912,4.126,0,7.172-3.439,7.172-8.154,0-7.859-12.379-15.129-26.722-15.621ZM324.414-11.145c6.877,2.554,11.3,6.386,15.719,13.459,2.554,4.224,4.028,5.305,7.073,5.305,4.224,0,7.565-3.831,7.565-8.744,0-8.056-11.2-14.344-27.213-15.326ZM334.14,30.8c2.849,8.056,9.333,14.245,14.736,14.245a5.568,5.568,0,0,0,4.716-2.161c2.358-2.751,2.456-2.751,8.056-6.386,13.165-8.645,18.371-13.165,27.115-23.087,7.663-8.94,11.789-16.014,17.094-29.375l-5.5-5.7c-8.056,17.782-21.221,31.831-40.869,43.62-9.137,5.5-11.986,6.779-15.424,6.779-2.456,0-3.93-.884-6.091-3.439Zm74.174-57.472c.982,7.663,5.6,13.165,11.1,13.165a7.09,7.09,0,0,0,3.733-.982c4.028-2.947,22.891-5.5,45-6.189A81.75,81.75,0,0,1,454.881,4.181L461.169,8.7c4.421-3.635,11.986-12.477,17.291-20.14,2.063-3.046,2.947-4.028,4.519-4.421a3.184,3.184,0,0,0,2.554-3.242c0-4.224-9.333-13.558-13.459-13.558a5.168,5.168,0,0,0-3.144,1.179c-2.653,1.965-4.323,2.26-13.459,2.554-5.6.2-10.021.491-15.621.884-11.593.884-15.522,1.081-19.059,1.081-4.519,0-6.681-.884-8.842-3.635Zm15.129,74.174c16.112-7.663,23.48-19.059,26.919-41.36.491-3.635.589-4.126,1.867-5.895a4.241,4.241,0,0,0,.982-2.653c0-1.277-.884-2.849-2.554-4.224-2.849-2.554-6.681-3.733-11.494-3.733a32.976,32.976,0,0,0-3.93.2l-2.947,5.109c3.93.688,5.01,2.063,5.01,5.895,0,9.431-1.965,19.354-5.109,25.74-2.751,5.4-7.663,10.709-14.147,15.129Z" transform="translate(134.709 134.329)" fill="#ced5db"/><path d="M153.186-49.585v6.119h27.43v-58.658l6.541-5.486a4.344,4.344,0,0,0,1.9-3.376c0-3.587-5.7-8.651-24.9-21.733L151.92-121.536H117.738v-14.981h82.29l6.119-11.394c-7.807-8.44-10.761-11.183-24.9-23.421l-15.4,17.935H117.738V-164.58c6.541-3.587,9.284-5.908,9.284-7.807,0-3.8-9.5-5.7-35.659-7.174V-153.4H6.752l4.853,16.88H91.363v14.981H59.713l-5.7-1.477C43.255-125.545,38.824-126.6,29.54-128.5v86.3H56.97v-7.385H76.382A194.26,194.26,0,0,1,3.8,2.11l8.44,13.715A215.623,215.623,0,0,0,92.629-28.063v48.53h25.109V-35.659c18.779,22.577,41.778,38.4,69.841,48.319C192.643.844,198.129-7.385,207.624-17.3c-32.494-4.22-60.557-15.4-81.657-32.283Zm-61.823-13.5H56.97V-79.336H91.363Zm61.823,0H117.738V-79.336h35.448Zm0-29.54H117.738v-15.192h35.448Zm-61.823,0H56.97v-15.192H91.363Z" transform="translate(-43 178.467)" fill="#ced5db"/></g></svg>
