<svg xmlns="http://www.w3.org/2000/svg" viewBox="0 0 97.1 191.58"><title>help2</title><g id="e8a5d78d-b27e-44b2-8bb9-a7b34780716a" data-name="レイヤー 2"><g id="e64fcd16-4239-4641-8590-89c5c1527300" data-name="フォルダー 2 + レイヤー 5 + レイヤー 49 画像"><path d="M81.63,191.58H15.47A15.49,15.49,0,0,1,0,176.11V15.47A15.49,15.49,0,0,1,15.47,0H81.63A15.49,15.49,0,0,1,97.1,15.47V176.11A15.49,15.49,0,0,1,81.63,191.58ZM15.47,2A13.48,13.48,0,0,0,2,15.47V176.11a13.48,13.48,0,0,0,13.47,13.47H81.63A13.48,13.48,0,0,0,95.1,176.11V15.47A13.48,13.48,0,0,0,81.63,2Z"/><path d="M81.63,191.58H15.47A15.49,15.49,0,0,1,0,176.11V15.47A15.49,15.49,0,0,1,15.47,0H81.63A15.49,15.49,0,0,1,97.1,15.47V176.11A15.49,15.49,0,0,1,81.63,191.58ZM15.47,2A13.48,13.48,0,0,0,2,15.47V176.11a13.48,13.48,0,0,0,13.47,13.47H81.63A13.48,13.48,0,0,0,95.1,176.11V15.47A13.48,13.48,0,0,0,81.63,2Z"/><path d="M19.57,97.39C22.49,94.11,24.38,89,26,82.28c-.57.22-.81.67-2.42,1.52.6.77,2.2.3.46,3.54l-.45-.16c.1-.54.88-.57.42-2.38.28,0,0,.21.54.75.35-.26.36-1.12-.95-1.21l.43.47c-1-.57-1.4-.63-4.79.45A30.8,30.8,0,0,1,20,94.42c-.26-.12-.43.11-.65.13-.48-3.56,1.12-2.66-1.15-9.19C21,84.78,23.8,84.05,26,82c-.17-.23,0-.24.2-1.24l-.07-.07c-1.41.58-3.06,2.46-7.25,2.84,2.09-1,6.7-1.39,7.88-5.44L26.73,78c-1.27,0-5.78,7.88-9-.12,0,.59-.21.28.29,4.08-1.35-.6-.66-2.5-2.31-14H16c-.1-.06.19-.26-.3-.45h0c-.19-1.12,0-.26-1.11-3.22.17-.41.35-.87.53-1.32-.22-.47-.23-.48-.56-.33,0-.15.24,0,.24-.57.13-.27.13-.29.74-1.56l-1.2.27-.71.89.11-.5c1.33-1.39,2.58-.56,4-4.56.91,3.41,2-.56,6.08,3.7l.08-.07c-.88-.87.66-1.15-6.06-4.71.64,0,.47.8,3.81,1.18-.36-.12-.66-.4-1.06-.06,2-.78,4.41,5.67,6.85,2.16l-.72.23c.5,0,.56-1.15,3.07.05-.73-.73-1.31-2.36-3.87,0l.06.07.75-.18c-.31.22-.23.27-1.63.22,3.53-1.41-2.53-1.86,5.66-13.93l.09,0c-.47,1.09-.16,0-1.59,3-.07-.63,1.47.15,1.8-3.84a19,19,0,0,0,.21,2.18l1.13.48a2.48,2.48,0,0,0,.09-1.89h0l.37.31c1.46-1.35,2.87-8.42-1.69-1.68.57-2.77,3.48-4.85,7.46-6,0,.14,0,.28,0,.48a1.27,1.27,0,0,0,.59-.8c-.29-.07-.37.23-.56.33.23-.46.23-.46.77-.41.17.06-.37.44.3.73l.35-.79.72-.29c-.51.53-.53.13-.37,1.41-.07-.25.61-.39.43-1.58-.37-.9.39-3.12-.61-4.93a3.06,3.06,0,0,1-2.27.3l.62-.19h0c0,.49,2.42-.08,1-1.49h0c.13.09.25.16.37-.1,1.18,2.8,4.42,9.48,9.3,1h0c-.57,1,.22.85.15,4.34h0c-.48.55-1.66,1.34-.64,3,.58-.33.42.11,1.34-1.82h0l.25.19.2-.14.26.86H51c.55.59.11.24.92,0,.67.78,1.14.12,3.62,1.78-.41.4-.77-.28-3.64.57.59.21.65,0,4.44,0L56,40l0,0c.37.36.32.41,1.62,1-.69-.13-.28-.26-1.35.44.31.11.45-.38,1.77.16l-.46,0c.25.08.28.86,1,1.11-.07-.59,0-.07-.58-1.15.08-.09.1-.18,0-.26,9.18,21.92,34.62,47.22,20.06,74.65-1.18,3.86-1.41,6.6,1,11.26-4.32-3.72-8.17-5.4-2.91-18.3,2.39-9.65-13.53,19.87-15.32-3.56.37-1,.22-4.41-3.06-3.37,0,.82.22,1.12,1.8,2.15a13,13,0,0,0-1.64-.75c-.37,1.44,1.5,4,1.2,6.79,2.5-.06,0,1.77,3.24,5a17.25,17.25,0,0,1-1.55-1.38l-.09,0c.31.23-.42,2.3,1.06,3.23-.3,2.6,4.07,3.31.59-1.89.6.45.22.17,2.7,3.45a7.31,7.31,0,0,0-1.22-1.18c.22,1.05-.7.26-.24,9.31.14-2.45,4.26-4.09,1.45-8.15,2.07,14.23-1.41,34.49,7,51.91h0a14.72,14.72,0,0,0-.24,4.27,8.37,8.37,0,0,0,.72-2c1.36,2.3-13.58,16.19-11.64-15.84,0-5.9-2.51-14.45-5.45-22.81-.45-1.93-5.24-9.71-5.81-20.35a7.25,7.25,0,0,1-.51-3.29c-3.15-.38.39-6.22-3.65-7.71h1.06c-.58-1.92-1.16-3.22-2.39-7.74-.39.86-1.32.69-3.17,9.5.8,0,.35-1.1,3.36-1.61-.32.65-4.52,0-4.47,5.87-.52.36-.4.15-3,.79.75.56.5.75,1.63,2.61a4,4,0,0,1,2.48-.94c-.18.6-1.08-.63-2.32,1.62-.1-.91,3.4.55,2-3.47a12.45,12.45,0,0,1,.7,1.92c-1.2,1.28.74,2.25,1.45,5.06A32.74,32.74,0,0,0,41,113.06c-.07.7-2.27,5.89,1.52,3.68-.43.58-.36,1,1.1,1.75a3,3,0,0,0-.45-1.48c0,1,1.54-.1.49,4.72,0-.69.36.36.19-2.74-1.5-1.65-4.42,3.7-1.67,1.86.25,0,.08.38,1.17.25-.26,1.3-1.52.46-2.59,3.89.28-.25.2-.24,1.45-1.36-.4,1.21.51.83-2.1,4.7a1.19,1.19,0,0,0,1-.18c-.06.66-.75.14-1.55,1,.38.38.89.23,1.34.39-2.71.23-1.93.71-1,6.3.58-1.18,0,0,.94-4.54h.08c.65,4.43-4.2,10.1-1.42,15.69h.1l.28-.42c.16.18-.25.72.53,1.16-2,1.17,4.75,6.28-9.61,11.54.08-1.53.56-.85-3.73-5.26.51.15.84-.05,2-.39-.76-.68-.18-2,1.53-4.46l-.07,0-.1.28c-.4.29,0,0-.88.89l.12-.6h-.27v-.51l.11.31.33-.45.18.46a5.75,5.75,0,0,0,.8-2.22c.39-.2.74.09,1.14.15a35.94,35.94,0,0,0-1-23.25,6.59,6.59,0,0,0,1.11,2.29c-.6-1.08,1.51-2.07-.2-7.49l-.09,2.94-.23-1a8.17,8.17,0,0,0-.58,3.3c-.45-6.09,5.15-10.3-6.85-13.2l.1-.3c.83,2.35,2.33-8.73.87-11.57-6.73,8.54,10,22.39-6.8,35.42,2.16-.47-2.85-20,2.62-38.24-.31.13-.12.62-1.38,1.08ZM17.77,70c.06-.2,0-.34-.16-.52a.44.44,0,0,0,.17.52c-.44-.35-.15-.14-.87-1.08a1.69,1.69,0,0,0,.59.39c.12-.53.28-.4-.54-1.3-.27.38-.27.38-.15.75l-.28-.17a15.09,15.09,0,0,0,.7,5.81h.09l.43-1.84c.29,1.53-.56.46-.45,6.63-.22-1.34.84-.26.49-7.05-.16-.4.54-.16.05-2l.22.08c.05,0-.11-.45-.23-.1ZM59.66,51.43l-.06.3a1.21,1.21,0,0,0,.63-1l-.58.76c.28-.75.72-.53.2-2.09a8.73,8.73,0,0,0-.65,2.32ZM39.54,69.3c.33-.17.36-.54.53-.81,0,.22-.09.23-.26,1.21a2.69,2.69,0,0,0,.41-3c-.38.57.11,1-.89,2.92l.51.46a3,3,0,0,0,.87-2.33A4.62,4.62,0,0,1,39.8,70l-.33-.31Zm-1.43-.38h0c-1.71-1,.8,3,1.22-1.33-.14.37,0,.73-.35,1,0-.17.18-.13,0-.7-.06.07-.19-.07-.47.28-.27-.22-.19-.54-.81,0C37.86,68.34,38.28,68.36,38.11,68.92ZM67.87,169l-.39-.26c-.09.41,0,.61.33,1.46.14-.18.45-.14,0-1.22.43.56.5.16,0,1.58l.36.4c.4-.34.42-.36.77-1.15.06,1.46-1.56,1.81,1.71,4.14-.36-.11,3.54-3.08-2.18-5.55-.31.34,0,.63.08,1,0-.23-.48-.07-.4-1.17-1-.59-1.15-.62-1.54-.51l1.11.44A1.09,1.09,0,0,0,67.87,169ZM43.76,48.05c-.35-.1-1.66-.75-2.09,1.2C41.13,50.7,45,53.92,47.09,57l.08,0c-.78-2.09-2.28-3.15-4.9-6.93,1.56,1.5,3.1,4.32,5.73,6.79.16-.48.16-.3,1.22-.2-.24-2.2-2.33-4.07-5.15-8.17,1.43,1.69,1.3,1.44,5.52,7.15a22.09,22.09,0,0,0-6-7.82ZM23.53,76.65h0c-.35,1.23-.21.49-1.2,3.6.78-.47.72-2,2.47-2.82a1.31,1.31,0,0,0-.62-.08c.76,0,1-3.32-.82-2.8l-.12-.16.64-.2A16.79,16.79,0,0,1,18.8,71C16.66,73.2,19.93,88.2,23.53,76.65ZM48,83.74h0c.77.93,1,.28,1-3.88l-.58-.14-.19.4-.08,0,.12-1.66-.09,0c-.36.14.71,1.17-2,1.59a12.71,12.71,0,0,1-.58,2.34l.23-2.17c-.3,0-.51.25-.82.08-.22-.61.7-.59,0-3.36-1.67,1.27-1.1,2.58-2.08,7.2l1.07.17c-1.06-.16-2.37.44-4.93-.5,1.3.41,1.37-1.28,2.27-6.36-.47.06-1.62.54-1.14-1.26-1.31.66-.89,1.93-2.47,7.27l.37.18c-8.6-.74,3.16,2.27,10.71,1.45l.07-.55c-1-.39-.39-.09-3.45-.29v-.37h0l.08.31h2.35Zm.33-40.07h0a22.71,22.71,0,0,0,1.9-1.9A1.66,1.66,0,0,0,48,41.46l0-.1,1.44-.85c-2.15.29-4.82,2.35-8.71,4.29l.54-.45-2.73-4.21c-.16.68.43,1.12.52,1.74-.49-.14-.68-.69-1.21-.75-.11,0,0,.42-.78.24a3.15,3.15,0,0,0,.79,2.43l-.08,0-1.49-2.26c.36,1.72,1.45,3,2.38,4.46.2-.1.4-.16.33-.47.78,0,.26,0,1.75-.77C39,46.56,34.24,48.29,33,52c.91-1.22.06-.53,2.71-2.77l-2.31,2.33.27.52c.89-.08.26.22.53,1.36,1.61-1.29.64-.75,4.44-3.61h0c-.19,1-6.19,3.78-5,5.88-1.85,0,7.69-8.05,18.35-13.6C50.16,42.39,51.62,42.17,48.33,43.67ZM61.7,112.1l.1.05C63.44,108.05,71,124.57,77.62,89c7.29,11.73-9.88,25.17.2,36.46-5.86-6.82,16.33-25.76-4.7-50.63-.63,5-1.36-6.19-10.05-16.41a10,10,0,0,1,.7,4c-.31-.85.3-.85-.87-3.32-.19,1.64.31,3.44.71,6.23h.07l.09-2.45h.13C70.31,79.19,65.94,89.9,61.7,112.1Zm3.74-28.27c-1.51-20.06-11.68-9.65-5.63,9.75C61.44,92,62.7,85.87,65.44,83.83Zm-11.52-36c-2.33,5.54,7.65,5.4,5.48-3.05-1.06-4.59-7.79-5-9.3,4.85.86-.24,1.73-2.76,4.1-1.89ZM15.73,60.53c2-.51,3.46.78,3.05,2.76h-.19c-.05.22-.11.43-.16.65.39.32.2.84.39,1.23l-.25-.33c.23.87,2.41,3.15,3,4,0,1,1.34,1.14,3,1.88h-.37c0,.51,1,.22,1.06,1h.08l.27-.54c.28,0,.28.5,1.35.37l.36.29V71.3l.3-.06.49.32c.22.62-.22.48.32,2.36,1.12-1.14,1.34-3.17.61-6.49l-.25.31c.15-1.07.57-2.12-2.6-3.73-4.23,2.66-5.39-3.24-10.23-3.93ZM28.4,86.65l-.08-.05C18,95,21.34,114.19,28.4,86.65Zm9,.31c0,.73,1.72,1.85,10.71,1l-.13-.5H45.32c.19-.37,1.88.6,1.9-1.15h0l-.06,1c3.17-.93,1.34-2.66-5.38-2.09l-.22.93h0l0-.79c-.41,1-3-1.49-3.27,1.53.76-.08.26.59,3,.1l.07.31,1,.09A25,25,0,0,1,37.38,87Zm10.81,3.27-5,.17v-.05l3-.23.09-1.21c.1.4,0,.8.12,1.2,6.25-.22-5.38-4.58-6.71-.08l1.19.32,0,.09L38.6,90c.59,1.65,3.2,1.38,9.59.89Zm-8-6.35c2.43,1.9,5.6-6.73,1.42-6.65Zm-20-23.36c1.21,5.84,8.57.84-.27-1.91-.3.76.16.59-2.3,1.51.57.6.79.33,3.74.12A2.83,2.83,0,0,1,20.17,60.52ZM35.34,83l2,.35a57.76,57.76,0,0,0,1.7-6.92C37.44,77.16,35.93,79.44,35.34,83Zm42.47-3c-.77-2.34-2.31-7.71-4.92-11.69.83.48-1.42,2,2.7,8.39l0,0-.09-.52C76.14,76.63,75.62,76.67,77.81,80Zm-50.1,3.26.1,0c.76-1.43,3.28-5.61,2-9.25C28.35,76.12,28,78.64,27.71,83.28Zm24.62,20.55c-1.57,1.18.78,6,3.22,3.61C55.5,106.61,56,106.12,52.33,103.83ZM32.78,116.44c.56,4.65.25,8.64,2.63-2.78-.59-.24-.07,1.9-3,1.52A7.85,7.85,0,0,1,32.78,116.44Zm3-9.59c-.74-.29-.06-1.08-4.1-2.65l-.11.48c.57.46.23,1.1.29,1.69.93-.11.34-.3,3,2.06Zm14-15.45c1.67.68,4.57-2.68,1-4C50.74,88.7,50.16,87.84,49.79,91.4ZM43.85,36.73c.16-.19.59.43,1-.54-2.11-.08-1.89.79-4-3C42.12,34.38,42.19,45.21,43.85,36.73ZM35.08,83a22.73,22.73,0,0,0,1.14-4.24c-.27.43-1.82.32-2.71,3.16C33.93,82.53,33.67,82.73,35.08,83Zm29.85,49.49c-.21.41-2.55.93-.25,5C65.73,136.92,65.19,135.43,64.93,132.46Zm.88-74.66c.7-.32-1.82,2.27,4,5.59C69,62.28,68.66,61.64,65.81,57.8ZM49.59,89.74c.47-.31,1.24-2.59.21-4.38C49.36,85.61,48,88.47,49.59,89.74ZM60.82,63.5c.48-.06,1.31,2.78,2.39,3C63.8,66,62.56,61.87,60.82,63.5ZM25.53,75.7c2.27.69.87-6.85-.4-1.07C25.26,74.91,25.14,74.81,25.53,75.7Zm33.35,36.67c.37,0,.25,0,1.83-.45-.07-.21-.53-2.61-2.6-1.13C58.27,111.35,58.43,111.07,58.88,112.37ZM38.41,85.28c-1-.64-5.24.69-.6,1.49C38.32,86.39,38.05,86.71,38.41,85.28ZM48,74.75l-.09,0a10.22,10.22,0,0,1-.09,3.36,16.37,16.37,0,0,0,1.86-1.6A11.22,11.22,0,0,0,48,74.75ZM31.92,148.82c0,.41,1.93.79,1.43,2.65.9-.66,1.91-1.44-.9-3.32ZM48.59,33.35c-.8.61-.52.14-3.06,2.85C45.7,35.54,48.55,36.57,48.59,33.35ZM59,57.94c-.66,2.1,5.22,1.43,1.24.44A1.84,1.84,0,0,0,59,57.94Zm2.66,6.82a3.41,3.41,0,0,0-1.72-1.5L60.1,66Zm-13.74,41.9c.17-.46,1.21-1-1.19-4.66a7.31,7.31,0,0,0,.88,2.22l-.36-.45A14.17,14.17,0,0,0,47.92,106.66ZM50,70.14l-1.65,1,1.91,1.76Zm-2.37,4.25.08,0,.3-3C47.37,71.67,45.72,72.18,47.66,74.39Zm2.89-1.11L50.38,76A5.72,5.72,0,0,0,52,74.43Zm-27.32,30.1c.31.52-2.17,1-.09,4.58l.09,0A12.43,12.43,0,0,1,23.23,103.38ZM52.59,91.07c1.39-.35,3.13-4.57-.47-.28Zm-6-26.47c-1.36,0-.81,4.6.64,2.75C46.92,66.73,47.86,67.42,46.59,64.6ZM48,40.37c.26-.58,1.1.73,2.17-2.24l-2.32,1.65ZM59.42,70.69c-.17-1.27-3.34.67-.91,1.25C59.09,71.66,58.38,71.61,59.42,70.69Zm3.17,31.19h.07C63.44,101.74,62.87,93.9,62.59,101.88Zm5.48,55.55a23.7,23.7,0,0,0-1.25-3.85C66.37,155.06,66.6,155.28,68.07,157.43Zm-20-86.81-3.43,1.49C45,72.31,45.25,73.24,48.11,70.62ZM32.74,57.21a6.48,6.48,0,0,0-1.91.24,12.48,12.48,0,0,1,1.23,1.61ZM32.05,75c.2.29,1.26,1.11,2.72-.39a7.88,7.88,0,0,1-2.65.1l.28.27ZM52.3,81.07c.44.25,1.4-3.6.06-2A11.82,11.82,0,0,0,52.3,81.07Zm5.91,25.81a12.9,12.9,0,0,0-.73-3.76C57.79,104.29,56.53,104.78,58.21,106.88Zm9.95,53.52c-.38-1.55-.92-2.31-1.81-2.42C66.89,159.1,66.6,158.85,68.16,160.4ZM59.62,68.94a14.23,14.23,0,0,0,.31-2.33,6,6,0,0,0-1.21,1.56ZM23.87,127.37c.06-.72,1.6-1.35.12-3.58C23.77,124.52,24.32,123.77,23.87,127.37Zm4.7-62.62L26.89,64c.22-.05.51.07.75-.11-.42-.44-.19-.42-1.49-.09C26.6,63.94,26.24,64.91,28.57,64.75Zm31,8c-.78-.07.44-1-3.55-.7C57.32,71.9,56.41,72.27,59.54,72.73ZM48.09,35.34c.23.43-.21.58-.34.9.16-.29,1.84-.26,1.6-2.24A4.84,4.84,0,0,1,48.09,35.34Zm2.63,45.22a4.33,4.33,0,0,0,.37-3.15C50.65,78.61,50.68,77.47,50.72,80.56Zm9.42-9.73c-.08-.64-1.67-2-2.81-1.15C57.91,70,57.41,69.21,60.14,70.83Zm1.68-2.37-1.56,1,.68.94A7.18,7.18,0,0,0,61.82,68.46ZM22.25,93.6c.23-1,.48.7,1.86-4A17.54,17.54,0,0,0,22.25,93.6ZM19.6,88.05c.12.26-.29-3.07-.9-2.28C19,86.26,18.22,85.79,19.6,88.05Zm6.49,35.35a7.9,7.9,0,0,0-.12-4A14.08,14.08,0,0,0,26.09,123.4Zm29.28,9.08c-.37-.3-1.06,2.82.52.74C55.55,133,55.55,133,55.37,132.48Zm4-69.56c-.35.13-1.23-.72-2.27,2A10.45,10.45,0,0,1,59.35,62.92ZM35.17,151.39c-.32.07-.85-.93-2.31,1,.26.28.26.28.6.32A1.76,1.76,0,0,1,35.17,151.39Zm29.67-21a11.94,11.94,0,0,0,0-2.46,12,12,0,0,0-.75,2.41Zm-24-56.33a2.18,2.18,0,0,0-2.1-.76A1.67,1.67,0,0,0,40.81,74.07Zm22-6.16a3.15,3.15,0,0,0-.69-2.28l.11,2.28ZM25.58,85.11c.22-1.06.53-.24,1.17-4.4A16.09,16.09,0,0,0,25.58,85.11Zm4.54-30.89a9.29,9.29,0,0,0,.8-1.54l-.52,0c-.17-.15,0-.42-.26-.53A3,3,0,0,0,30.12,54.22Zm-2.38,3.52a10.11,10.11,0,0,1,2.62,0A1.73,1.73,0,0,0,27.74,57.74Zm12,31c-.26-.41-1.78.92-.27,1.19ZM15.84,67c.32-.29.25-1.34-.86-2.35A7.33,7.33,0,0,0,15.84,67ZM56,91.26c.58-.23.85-.68.57-2.39H56.5C56.51,89.69,56.13,89.4,56,91.26ZM18.28,67.1c.25-.07.39.32,1.39-.28-.41-.23-.44-.53-2.05-.2C17.88,66.8,18.34,66.58,18.28,67.1ZM45.76,36.6c-1.23.16-2,.86-1.88,1.79A15.57,15.57,0,0,1,45.76,36.6Zm5.31,85.77a6.57,6.57,0,0,0,.37,2.41A2.27,2.27,0,0,0,51.07,122.37Zm-33.86-63v.1C17.5,60.17,20.76,58.72,17.21,59.38ZM57.12,95.21c-.14.79-.21,1,.23,3.29A8.12,8.12,0,0,0,57.12,95.21ZM35.53,85.52c-.65,0-.94-.2,0,0C36.32,84.91,33.67,84.33,35.53,85.52ZM30.36,73.41c.59.28.36.37,2.27-.22l0-.1A5.28,5.28,0,0,0,30.36,73.41ZM18.56,69.9c-.16.45-.13.81,1.47,1.5l0-.07Zm19.3-24.65A9.83,9.83,0,0,0,37.35,47C38,46.38,38.08,46.82,37.86,45.25ZM16.09,70.89a2.64,2.64,0,0,0,.4,2C16.41,72.47,16.91,72.25,16.09,70.89ZM49.4,114.6a2.71,2.71,0,0,0,.39,2.06C49.66,116.22,50.26,116.54,49.4,114.6Zm-8-40.32a2.52,2.52,0,0,0,1,.69.86.86,0,0,0,.15-.87A4.26,4.26,0,0,0,41.35,74.28ZM43,64.3c-.2.48-.45.47,0,0C43.23,63.86,41.46,63.61,43,64.3ZM18.75,67.93c.59.12.5.31,1.53-.61C19.64,67.1,20,67.08,18.75,67.93Zm36.34.69-.63-1.53a3.13,3.13,0,0,0,.18,1.78ZM30.8,103.94h.08A5.91,5.91,0,0,0,30.8,101ZM56.91,92.09l.38,1.37C57.23,93.44,58.37,92.54,56.91,92.09ZM39.82,59.7c-.41-.13-.38.69-2.12-.1C38,59.59,37.93,60.87,39.82,59.7Zm-.08,3.65c-.25.41-.52.39,0,0C40,62.94,38.38,62.65,39.74,63.35Zm-3.36,9.11c.33-.39.74-.06,1.16-.22C37.49,72.2,36.07,70.87,36.38,72.46ZM61.54,55.61,61.1,56a8.71,8.71,0,0,1,1.31,1.84ZM57.76,97.17a1.14,1.14,0,0,0,.68-1C57.7,96.14,57.55,96.44,57.76,97.17Zm-5.65-15.6c-.38.54-.58.78,0,0C51.94,81.26,50.56,81.85,52.11,81.57Zm-19.4-40,1.45-.94C33.31,40.52,32.84,40.81,32.71,41.55Zm8,23c.35.3,1-1.54-.36-.29C40.44,64.25,40.39,64.47,40.76,64.52Zm21.37,96c-.09.25-.31.29.21,1.39C62.56,161.38,62.45,161.86,62.13,160.54ZM19.58,68.11c.43-.22.66-.3,0,0C19.53,68.77,21.35,68.05,19.58,68.11ZM56.74,85.48c-.36-.22-.37-.51-.82.67C56.27,86.27,56.13,86.35,56.74,85.48Zm-3-22.12a2.45,2.45,0,0,0-.57,1.28,12.07,12.07,0,0,1,1.15-1.15l0,0-.35.14Zm10.92,67.26c0,.27.82,0,.37,1.24C65.28,132,66.36,130.89,64.66,130.62ZM19.3,66.39a1,1,0,0,0-1.37-.22C18.46,66.48,18,66.33,19.3,66.39ZM38.69,151c.36-.32.19,0,.94-1.63l-.11,0A6.36,6.36,0,0,0,38.69,151ZM56.06,135l.36-1.16a.89.89,0,0,0-.68.23A1.71,1.71,0,0,0,56.06,135ZM31.57,70.22c.61-.28,0-.42.69-1.51A1.29,1.29,0,0,0,31.57,70.22Zm.62,43.27-.06,0c.26,0-.15,1.14,1,1.25Zm1.24-32.28-.1-.09c.11.16-1.06.44-.2,1Zm2.76-41.94c-.49.07-1-.1-1.33.35C35.78,39.71,36,39.65,36.19,39.27ZM46,67.68c.06-.4-.85-.26-.36-2.14A1.35,1.35,0,0,0,46,67.68Zm-7.6-6.11c-.19.19-.73.74.26.8ZM41,68.63c.44.26.54.48,0,0C40.64,68.74,41.36,69.83,41,68.63ZM31.21,48l-.08.47.69,0C31.9,48,31.87,48,31.21,48ZM18.39,61.42c.18.28-.33.54.38,1.59A2.41,2.41,0,0,0,18.39,61.42ZM47,77.21c.14.13,1.12-.95-.09-.52ZM42.13,37H42a6.5,6.5,0,0,1,.26,2.58A5.4,5.4,0,0,0,42.13,37Zm14.51,46c0,.19-.21.25.18,1C57.16,83.72,57.07,84,56.64,83.08ZM46.11,40.46l-2,.35,0,.1A4.15,4.15,0,0,0,46.11,40.46ZM31.81,71.63a1.7,1.7,0,0,0,.92-.56l-.51-.21ZM39.62,101l.14,0L40,98.18h-.07Zm29.09,60.39a6.93,6.93,0,0,1,0-1.51,2.76,2.76,0,0,0-.14,1.71l.43-.09v-.09ZM50.81,45.67l-.08-.06c.08.19-.76.19-.48,1.06A4.27,4.27,0,0,0,50.81,45.67Zm0,69.26a2.19,2.19,0,0,0-.89-1.12A2.39,2.39,0,0,0,50.84,114.93ZM35.44,89c-.4-.12-.59.07-.82.34l.62.18Zm5.31-53.52a1.3,1.3,0,0,0,0-1.26A1.77,1.77,0,0,0,40.75,35.46Zm6.29,42a1.68,1.68,0,0,0,.11,1.24C47.28,77.71,47.28,77.65,47,77.42ZM19.83,61.34v-.63l-.5.15C19.38,61.16,19.58,61.23,19.83,61.34Zm15,58.7.45.28a1.09,1.09,0,0,0,.13-.8ZM27.45,76.72l.34-1.14-.06,0-.55.81Zm23.34-35.6c-.23.34-.42.32,0,0C50.85,40.92,49.86,40.8,50.79,41.12Zm-20,23.13.06.06a2.15,2.15,0,0,0,.86-1.11l-.07-.06Zm27.71,46c.42,0,.57-.15.55-.64A.86.86,0,0,0,58.45,110.24Zm-26.63-2.68.12,0,.45-1.06-.09,0A1.68,1.68,0,0,0,31.82,107.56Zm8-66.45c-.32.37-.31.48,0,.76C40.12,41.46,40.12,41.46,39.83,41.11Zm25.06,85.12a3.49,3.49,0,0,0,.73-1.23A2.51,2.51,0,0,0,64.89,126.23ZM33.47,45c.31-.25.38-.63.58-1A1.32,1.32,0,0,0,33.47,45ZM57.55,78.58a2.58,2.58,0,0,0-.38,1.56Zm8.71,82c.46-.21.58-.43.44-.75A3.13,3.13,0,0,0,66.26,160.57ZM50.7,59.53c.08-.54.06-.58-.4-.78A1,1,0,0,0,50.7,59.53ZM34.85,40.24l-1-.27C34.09,40.34,34.17,40.36,34.85,40.24Zm14,23c.25.16.43.34.7.3C49.56,63.11,49.4,63,48.89,63.23ZM60.32,51.4h-.08c.09.09-.3.22,0,.65C60.4,51.82,60.48,51.92,60.32,51.4ZM28.21,50l.09,0A7.5,7.5,0,0,0,29,48.77l-.09,0ZM56.94,66.37l-.24.82C57.16,67,57,66.64,56.94,66.37ZM24.32,123.6c-.14-.06.07-.32-.44-.45C23.83,123.43,23.68,123.4,24.32,123.6Zm4.11-49.45c0,.06-.69.12-.36.76Zm13-5.82c0-.21,0,0-.29-.34C41.07,68.12,40.84,68.41,41.41,68.33Zm9,2.65c.27-.21.26-.27,0-.68Zm5.92,20.74.54.08-.07-.51-.1,0ZM34.17,121.27a1.28,1.28,0,0,0-.92-.06A1.11,1.11,0,0,0,34.17,121.27Zm-4.62-57-.73.33A.6.6,0,0,0,29.55,64.29ZM16.3,67.82c-.22.35-.18.46.18.58ZM37.39,73c.36,0,.42-.11.33-.49ZM42,117.74l-.08-.06a.81.81,0,0,0-.27.74Zm-24.83-57c-.27-.21-.27-.21-.5,0Zm-.16-1c-.18-.45-.18-.45-.47-.37Zm34.12-15,.08,0a.89.89,0,0,0,.35-.69Zm-9.95-4c.32.24.38.22.56-.13A2.5,2.5,0,0,1,41.17,40.72ZM59.86,112.3v.09c.42.06.42.06.61-.18ZM50,69.2v.62C50.19,69.55,50.19,69.55,50,69.2Zm11.16-15,.1,0-.16-.67-.09,0Zm-23,6.92.11-.53C38.09,60.74,37.9,60.83,38.16,61.11Zm-7.29,44.54a.33.33,0,0,0,0-.5Zm8-43.08-.1.06s-.23.11.06.27C38.77,62.84,39,62.86,38.83,62.57ZM48.4,79.13c.1-.16.17-.31,0-.49Zm-4-14.5.07-.09c-.12-.09-.19-.26-.43-.15ZM23.3,84.24V84.1c0,.07-.19-.14-.31.12Zm43.15,75.32h-.12v.35h.09ZM38.86,60.75l-.2.36C38.82,61.07,39,61,38.86,60.75Zm-3.25,52.49.06,0,.21-.42-.07,0ZM29.29,73.5l-.05-.12S28.82,73.69,29.29,73.5ZM19.53,80l-.11,0-.05.2C19.47,80.13,19.49,80.21,19.53,80ZM39.89,64.88c-.08-.14-.07-.17,0,0C39.92,64.87,40.18,64.56,39.89,64.88ZM32.76,53.29l.09.05.22-.4-.09,0Zm3.36,18.22c-.11.09-.17.12,0,0C36.12,71.42,35.78,71.39,36.12,71.51Zm7.14-7.44c.08.11-.14.17.18.32l0,0Zm-1.32.16c-.1,0-.1-.18-.33,0C41.69,64.32,41.64,64.44,41.94,64.23ZM39,59.56s-.07-.11-.21,0C38.82,59.57,38.87,59.79,39,59.56Zm27.5,99.23-.07,0v.3h0ZM51.07,60l-.11,0-.07.24.07,0ZM34.72,43l.07.07.2-.25-.06,0Zm-16,15.85,0,.09.23-.12L19,58.74ZM43,41.12l.07,0L43,40.92C42.92,41,42.92,40.92,43,41.12Zm11.2,11s-.08-.16-.2,0C54.05,52.18,54,52.22,54.18,52.14Zm-28.4,66.38.06,0-.06-.22-.07,0ZM56.59,52.2s0-.08-.13,0S56.52,52.34,56.59,52.2ZM38.81,61.75l-.07,0,0,.2.05,0Z"/><path d="M41,20.07a15,15,0,0,0,1.33,1.33c.07-1,.08-.37-.77-2.23.6.38.35.85,1.64,1.84.56-.8-.31-.14-.13-3.91.34,1-.58-.31.8,4.07l-.06-.75h.06l.23.65.11,0c.09-1.24.09-.68.15-3.7.31.79-.3,1.41.37,3.26.21-.45.06-.86.2-1.24v1.21l.17-.23.16.39c.38-.25.39-.68.6-1,.36.33-.55.51-.2,1.58a5.33,5.33,0,0,1,2.45-1.76h0A6.69,6.69,0,0,0,47,20.66l.06.08a5.65,5.65,0,0,1,2.14-.89l-.93.67.07.1c.3-.07.08-.44,1.44-.66-.32.3-.83.26-.93.75-.45.12-.51-.18-1,1l.25-1.15c-.49.4-1.11-.12-2.14,1.19l.54-.35a1.18,1.18,0,0,1,.06,1.56h0l-.36-.3.22-.65c-.58.27-1.43,1.16-2.75.21l.17.47-1-.18-.07.19a4.2,4.2,0,0,0-1.8-.26c-.06.92-.73,1.37-1.28,1.9h0l-.25-.09-.39.26c.2-.54.68-.76.94-1.23L39.36,23l.6-.44-.57,0,.18-.24c-.06-.14-.35-.1-.3-.34h0a4,4,0,0,0,2.46.06c-.3-.32-.7-.35-1-.62l.45.06,0-.06-.83-.53c.38,0,.64.3,1,.42v-.29l.57.55.07-.07A7.81,7.81,0,0,1,41,20.06Z"/><path d="M51.79,28.12l-.29.7c0-.54.23-1-.17-1.45l-.17.71h0c.19-.53-.33-2.84-1.27-.31,0-.43,0-.43-.31-.69,0-.49.77-3.44-.79-4.34l.56-1.23h0l0,.15c.33,0,.66-.11,1,.09a1.66,1.66,0,0,0-1,.4l.23.26-.54.05a10.34,10.34,0,0,1,2.65,2.32c.23-.31-.15-.24.11-1.62h0c-.1.49.46.52-.21,2.35l-.21-.09c-.23.31.25.42.19.68-.45-.25-.16-.1-1.7-1a6.39,6.39,0,0,0,.66,1.25c.35-.06.35-.06.34-.43.42.22.51.65.74,1l.11-.12a2.2,2.2,0,0,1,0,1.27c0-.21,0-.43,0-.64C51.83,27.52,51.52,27.62,51.79,28.12Zm-1.71-4.23c-.28.14-.17.56,1,1.57a3.37,3.37,0,0,0-1-1.59l.64.36a1.13,1.13,0,0,0-.73-.59Zm0,3a.81.81,0,0,0-.15-.95Z"/><path d="M13.56,59c.11-.17.85-.23.91-1.08L14,58,14,58l.48-.31a1.48,1.48,0,0,1,.49-1.34l-.24.48c.12-.33,1.14.38,1.53-.79a3.13,3.13,0,0,0-1.13.15,2,2,0,0,1,1.3-.24c0,.26-.21.12-.18,1.17.16.21.2-1.19,1.54-1.28A23.58,23.58,0,0,0,14,60.34l-.17,0c.05-.32-.22-.42-.29-1.31Z"/><path d="M47.18,24.79a.34.34,0,0,0,.17.42c.38-.3.53-.78.89-1.12.18.26-2.46,2.67-.49,2.4l-.37-.09c.53-.21.61-.74.95-1.09v.45l.4-.29c-.62.62,0,1.72-3.07,1.67l.92-.31c-.2-.24,0-.52-.09-.77l-.44-.2.11-.61c-.34.1-.28.46-.49.59a1,1,0,0,1,0-1l.06.51c.21-.06.2-.25.3-.37l-.2-.18c.14-.56.27-.66.87-.73l-.19.47.69.25Z"/><path d="M38.82,26.74l-.19,0a2.81,2.81,0,0,1,.95-.93c.17.25.09,1.46.52,3.69-.41-.63.13.29-1.28-2.72l.75.45a.6.6,0,0,0-.32-.66Z"/><path d="M20.58,158.68l-.26.1a14,14,0,0,1,1.12-1.64l.08.05c-.62,1.39-1.88,2.71,3.34,3.23C24.81,160.24,21.34,161.15,20.58,158.68Z"/><path d="M49,27.46l-.55.34,0-.35c-.62-.08-.38,0-1.58.24.23.35.24.35.73.17-.29.62-.85-.55-1.69.09C46.31,27.6,46.27,26.69,49,27.46Z"/><path d="M20.4,161.56a22.72,22.72,0,0,0,5.25.86C23.65,162.69,21.35,162.33,20.4,161.56Z"/><path d="M38.8,25.59c.13.82-.76-.49-.24,3.34h0c-.39-.27-.13-.91-.4-2.33l-.14.24c-.09-.2.16-.3-.24-1.13a3.32,3.32,0,0,1,.88-1.41l.1.05a2.09,2.09,0,0,0-.49,1.79l.53-.53Z"/><path d="M41.76,27.91c-.07.05-.56-.92-.68,0l-.47-.48a5.64,5.64,0,0,1,2.74,0,3.93,3.93,0,0,0,.08.39L43,27.68l-.5.32h0l.16-.26,0-.12c-.28.35-.56.19-.84.05v.24Z"/><path d="M39.7,24.31h0l.21.17c0,.16,0,.08-.24.79l.35-.15c-.26.23-.54.52-1.15,1.05l-.09-.08.69-1.1-.05,0-.29.15h0C39.23,25,39.23,25,39.7,24.31Z"/><path d="M50.33,28.05c-.53-.31,1-2.3.59-.17l-.6.17.58-.32-.17-.23C50.54,27.67,50.34,27.79,50.33,28.05Z"/><path d="M39.27,22c-.67.45-.8.07-1.45,1.49l.36-.13-.39.36c0-.64-.21-.69,1.13-1.91l.34.2Z"/><path d="M26.8,155.25c-.18-.73-.18-.73-1.11-.67C25.45,154.36,27,153.7,26.8,155.25Z"/><path d="M39.12,28.14h-.39l.07-.48-.3.08a.54.54,0,0,1,.13-.58C39,27.38,39.06,27.76,39.12,28.14Z"/><path d="M38.78,28.67c.31.38.25,0,.58,1.39C38.92,29.72,39.28,30.07,38.78,28.67Z"/><path d="M40.18,145.71l-.33.18a2.88,2.88,0,0,1-.24-1.47C39.51,145,40,145.24,40.18,145.71Z"/><path d="M42.17,17.56c-.7.41-.33,0-1,1.11l-.31-.34c.17-.25.14-.21,1.27-.85Z"/><path d="M49.21,31.54l.27-1.26.42,0c-.25.43-.47.83-.7,1.22Z"/><path d="M51.51,21.9l-.67-.52.37-.34.37.82Z"/><path d="M50.08,29.42l.13-.85C50.66,29,50.66,29,50.08,29.42Z"/><path d="M13.45,62c.33.32.11.72,1.38.08,0,.16-.41,0-.51.73l-.11-.24C14.2,62.3,13.47,62.93,13.45,62Z"/><path d="M41.18,26.81a6.7,6.7,0,0,1,1.9.18v.09Z"/><path d="M51.17,20.77,50.12,20C50.29,20.11,50.72,19.83,51.17,20.77Z"/><path d="M45.81,17.46l.1-.52a3.65,3.65,0,0,1,0,1.79,3.15,3.15,0,0,0-.15-1.27Z"/><path d="M46.54,22.92a2.26,2.26,0,0,1-.62,1.13c.22-.37.18-.88.63-1.12Z"/><path d="M49,21l-.21,1C48.56,21.53,48.58,21.41,49,21Z"/><path d="M34.86,158.21l1.27.34,0,.09-1.27-.36Z"/><path d="M40.31,18.69l.31.67-.32.09C40.39,19.19,40,19,40.31,18.69Z"/><path d="M49,19.38l1-.39C49.74,19.44,49.33,19.33,49,19.38Z"/><path d="M72,170.45a7.09,7.09,0,0,1,.16,1.66A6.12,6.12,0,0,1,72,170.45Z"/><path d="M44.84,16.77a5.28,5.28,0,0,1-.07,1.62,5.09,5.09,0,0,1,.08-1.61Z"/><path d="M37.6,24.46l.07.22.35-.15-.28.52C37.48,24.88,37.64,24.65,37.6,24.46Z"/><path d="M51.85,23.15l-.37-.81a1.64,1.64,0,0,1,.51.46C51.94,22.93,52,22.79,51.85,23.15Z"/><path d="M38.54,32.15c.23.12.22-.31,1.11-.31C39.26,32.05,39.65,31.83,38.54,32.15Z"/><path d="M46.66,17.28l-.3-.37c.28-.17.52.25.82.14-.16.12-.43,0-.53.22Z"/><path d="M51,38l-.07-1,.26.21c-.07.26-.13.49-.2.73Z"/><path d="M46.13,19.38l.58-.84.08.06-.57.85Z"/><path d="M49.52,36.32l.42.32c-.15.16.13.29.11.46h0a1.19,1.19,0,0,1-.53-.78Z"/><path d="M46.65,17.27a1.72,1.72,0,0,1-.18.88c.12-.16-.23-.21.19-.87Z"/><path d="M16.62,55.67a.76.76,0,0,1,.78-.28Z"/><path d="M49.43,18.74a1,1,0,0,1-.9.17l.91-.16Z"/><path d="M44.85,16.78a1,1,0,0,1,.77.17C45.3,17,45.62,17,44.85,16.78Z"/><path d="M39.56,143.19V144A.75.75,0,0,1,39.56,143.19Z"/><path d="M19.56,97.38l-.77.62h0l.77-.62Z"/><path d="M42.64,19.11l-.19-.59A.4.4,0,0,1,42.64,19.11Z"/><path d="M49.39,21.51l.1-.78.1,0c0,.27-.15.49-.2.75Z"/><path d="M22,156.73c.13-.26.39-.34.61-.49l.06.08-.68.4Z"/><path d="M13.43,60.62v-.51h.06v.52Z"/><path d="M45,33.77l-.62-.06v-.09l.62.07Z"/><path d="M42.45,28c-.1-.08-.36.5-.69-.09h0c.23.09.45.25.71.09Z"/><path d="M23.71,156l-.19.44C23.44,156.23,23.55,156.1,23.71,156Z"/><path d="M47.25,17.86l.09-.43.27.11-.37.31Z"/><path d="M14.7,60l.29-.4C15,59.82,15,59.82,14.7,60Z"/><path d="M27.64,155.34l-.17-.39C27.67,155.13,27.67,155.13,27.64,155.34Z"/><path d="M24.33,155.24l.51-.22C24.69,155.26,24.49,155.21,24.33,155.24Z"/><path d="M24.19,156.46l.35-.08v.08l-.34.06Z"/><path d="M49.14,18.48l-.34.12C48.81,18.38,48.73,18.45,49.14,18.48Z"/><path d="M49.44,18.75V18.4l.29.22C49.6,18.69,49.73,18.59,49.44,18.75Z"/><path d="M39.63,156.93l-.27.17,0,0,.26-.18Z"/><path d="M23.17,156l.23-.12,0,.05-.21.16Z"/><path d="M48.07,19.57l.44-.12C48.39,19.64,48.51,19.45,48.07,19.57Z"/><path d="M18.32,98.35,18.8,98h0l-.48.34Z"/><path d="M46,32.59c-.07.2-.22.16-.38.11l.38-.11Z"/><path d="M13.56,59l0-.56h.09C13.66,58.64,13.7,58.46,13.56,59Z"/><path d="M39.55,30.66c-.23.12-.36,0-.51-.22l.5.23Z"/><path d="M46,32.59l.53-.05v.05Z"/><path d="M48.86,18s-.42,0,0-.11Z"/><path d="M49.08,25.08c-.08,0-.06.11-.28,0C48.85,25.09,48.85,25,49.08,25.08Z"/><path d="M38.8,25.6l.33-.49h0c-.11.16-.22.32-.32.49Z"/><path d="M15.72,67.94c-.23-.19,0,0,0-.44V68Z"/><path d="M43.62,27.2l-.21,0,0-.07.21.06Z"/><path d="M38.56,28.93l.15.43C38.57,29.24,38.72,29.36,38.56,28.93Z"/><path d="M45.57,19.15l-.08.23h0l0-.23Z"/><path d="M41,20.06l-.23-.26.09-.06.14.33Z"/><path d="M52.34,23.22,52.25,23l.06,0,.09.24Z"/><path d="M14.31,62.78l.19,0-.09.31h-.1Z"/><path d="M45.28,18.39l0-.21h.05l-.05.2Z"/><path d="M58,41.25l-.36-.32Z"/><path d="M49.69,27.83V28h0v-.19Z"/><path d="M44.49,32.56h.27v0h-.28Z"/><path d="M49.35,35.87l.17.45h0l-.17-.45Z"/><path d="M47.19,24.8l.09-.26.07,0-.17.21Z"/><path d="M32.48,45.24,32.29,45l.07,0,.11.27Z"/><path d="M22,156.72l-.21.2,0,0,.25-.14Z"/><path d="M47.24,17.85l-.12.3-.08,0,.21-.24Z"/><path d="M47.75,19.22l-.13.14,0,0,.12-.16Z"/><path d="M48.31,18.17l-.11.11-.09-.09.11-.12Z"/><path d="M45.8,17.46l.07.42h-.08c0-.14,0-.27,0-.41Z"/><path d="M14.47,61.23a.62.62,0,0,1-.29.65A.74.74,0,0,1,14.47,61.23Z"/><path d="M65,82.35l.09.07L65,82.5S64.84,82.47,65,82.35Z"/><path d="M28.36,68.31A26.15,26.15,0,0,1,26.41,71l.44.15c-.29.27-.48-.07-.71,0l0-.09Z"/><path d="M27.17,71c.19-.24.36-.23.62-.11Z"/><path d="M47,43c.2.8-3,2-1.63.21C46,43.15,45.87,42.68,47,43Zm-1.69,1a1.51,1.51,0,0,0,.32-.26C45.92,43.63,45,43,45.35,44.07Z"/><path d="M35.87,49.93a.58.58,0,0,1,.64-.33h0c.15.38.16.39.45.12l-.18-.43c.23-.32,0-.32.83-.31.34.31-2.26,3-1.71.94a.38.38,0,0,0,.07.57C35.87,50.43,36.27,50.05,35.87,49.93Z"/><path d="M40,46.71c-.07.59,1.9.29.4-.43.17-.49,3-.84.82.46C41.14,46.77,40.41,48.12,40,46.71Z"/><path d="M37.65,47.59a7.57,7.57,0,0,1,1.62-1.23,7.54,7.54,0,0,1-1.63,1.22Z"/><path d="M48.33,43.67l-1.72,1,0-.06a4.85,4.85,0,0,1,1.78-.94Z"/><path d="M36.07,48.86l.3-.24,0,0-.29.28Z"/><path d="M37.64,47.58l-.29.33C37.37,47.71,37.37,47.93,37.64,47.58Z"/><path d="M45.13,42.9,45,43l0,0,.18-.11Z"/><path d="M36.78,49.27h0l-.27.31h0C36.59,49.48,36.56,49.28,36.78,49.27Z"/><path d="M37.05,48.1l-.13.12,0,0L37,48Z"/><path d="M39,49.59a.34.34,0,0,1-.36.24h0L39,49.6Z"/><path d="M39,49.6l.35-.27h0l-.35.27Z"/><path d="M39.39,49.33l.21-.23.07.07-.29.15Z"/><path d="M48,83.74a8.26,8.26,0,0,1,.13-2.15C48.09,82.3,48.13,81.59,48,83.74Z"/><path d="M23.53,76.65l.07-.49h.07c-.05.16-.1.31-.14.47Z"/><path d="M44.48,87.08v-.19h0v.19Z"/><path d="M42.92,89.62v-.18h0v.18Z"/><path d="M43.59,49.61c.19-.12,2,1.58.45,1.34C44.08,50.71,43.36,50.76,43.59,49.61Zm.29.53c.1,0,0,1,.62.58C44.37,50.42,44.51,50.48,43.88,50.14Z"/><path d="M46.87,54.12c.06-1.06,2.61,1.56.75,1.21C47.53,55,47.4,55.29,46.87,54.12Zm.22-.17c.36.19.45.32,0,0C46.89,54.73,48.93,55.79,47.09,54Z"/><path d="M42.28,50,42,49.63Z"/><path d="M43.76,48.06l.31.4A.48.48,0,0,1,43.76,48.06Z"/><path d="M42,49.6l-.32-.37Z"/><path d="M38.93,43.1c.44,2.33-2-2.38,0,0-.3.08-.2-.26-.38-.36l-.4.11C38.07,43,39.34,44.35,38.93,43.1Z"/><path d="M38.11,68.92l.12.22.43-.17c-.2.24-.2.24-.61.31l.06-.35Z"/><path d="M46.7,65c.68.62-.05,4.82-.58.86C46.29,65.72,46,65.55,46.7,65Z"/><rect x="-40.24" y="54.24" width="177.58" height="83.11" rx="8.47" transform="translate(144.34 47.24) rotate(90)" fill="none" stroke="#000" stroke-linecap="round" stroke-miterlimit="10"/></g></g></svg>