<svg xmlns="http://www.w3.org/2000/svg" viewBox="0 0 265.46 241.31"><title>help1</title><g id="bdb0ecaf-e0f4-4b51-b86c-9f0b72f3817b" data-name="レイヤー 2"><g id="e9f52b2c-09aa-445e-9459-a285ef6e9ff3" data-name="編集モード"><path d="M231.07,227.77a19.56,19.56,0,0,1,4,10.41,1,1,0,0,0,1,1,1,1,0,0,0,1-1,21.36,21.36,0,0,0-4.28-11.42,1,1,0,0,0-1.37-.35,1,1,0,0,0-.36,1.36Z"/><path d="M206.42,234.71h-34a1,1,0,0,1,0-2h34a1,1,0,0,1,0,2Z"/><path d="M256.55,203.79c-1.34-4-3.29-7.9-6.54-10.65a16.67,16.67,0,0,0-5.34-3c-1.69-.6-3.5-.91-5.23-1.41a29.32,29.32,0,0,1-4.59-1.84,18.78,18.78,0,0,1-3-1.66,26,26,0,0,1-3.1-3c-2.67-2.76-5.14-5.71-7.82-8.47-1.71-1.76-5.68-5.73-8.27-3.09-1.87,1.91-1.36,5.59-.94,7.93a19,19,0,0,0,2.54,6.67,35.89,35.89,0,0,0,4.71,5.52,59.82,59.82,0,0,1,4.69,6,34.57,34.57,0,0,1,3.72,5.79c1,2.07,1.48,4.31,2.22,6.45a65,65,0,0,0,2.82,6.86c2.05,4.28,4.72,9.29,9,11.73a1,1,0,0,0,1-1.73c-3.55-2-5.8-6.13-7.6-9.65a79.79,79.79,0,0,1-4.59-11.74c-1.28-3.93-3.61-7-6-10.36a47.9,47.9,0,0,0-4.41-5.34,24.88,24.88,0,0,1-4.17-5.1c-1.63-2.89-2.78-6.87-2.1-10.22.15-.72.41-1.64,1.29-1.6,1.64.08,3.32,2,4.37,3,2.53,2.53,4.81,5.28,7.27,7.88a28.09,28.09,0,0,0,5.05,4.7,30.32,30.32,0,0,0,4.43,2.27c3.7,1.52,7.88,1.71,11.29,3.92,3.79,2.46,6,6.6,7.37,10.77.41,1.22,2.35.7,1.93-.53Z"/><path d="M231.43,158.52c5.58,9.57,16.83,13.61,23.17,22.52,6.91,9.69,7.86,21.62,8.49,33.13a173.94,173.94,0,0,1,.2,18.83c-.06,1.29,1.94,1.28,2,0a169.57,169.57,0,0,0-.11-17.17A152.91,152.91,0,0,0,263.7,199a47,47,0,0,0-5.81-16.6c-2.92-4.88-7-8.61-11.43-12-4.89-3.78-10.13-7.41-13.3-12.85a1,1,0,0,0-1.73,1Z"/><path d="M175.42,121.62a.8.8,0,0,1-.8-.8v-3a4.83,4.83,0,0,1,4.83-4.83h3a.8.8,0,1,1,0,1.6h-3a3.23,3.23,0,0,0-3.23,3.23v3A.8.8,0,0,1,175.42,121.62Z"/><path d="M179.45,144.62a4.83,4.83,0,0,1-4.83-4.83v-3a.8.8,0,1,1,1.6,0v3a3.23,3.23,0,0,0,3.23,3.23h3a.8.8,0,0,1,0,1.6Z"/><path d="M198.42,144.62a.8.8,0,0,1,0-1.6h3a3.23,3.23,0,0,0,3.23-3.23v-3a.8.8,0,1,1,1.6,0v3a4.83,4.83,0,0,1-4.83,4.83Z"/><path d="M205.42,121.62a.8.8,0,0,1-.8-.8v-3a3.23,3.23,0,0,0-3.23-3.23h-3a.8.8,0,0,1,0-1.6h3a4.84,4.84,0,0,1,4.83,4.83v3A.8.8,0,0,1,205.42,121.62Z"/><path d="M180,125.62a1.32,1.32,0,0,1-1.33-1.33v-5.93A1.33,1.33,0,0,1,180,117h5.93a1.34,1.34,0,0,1,1.34,1.34v5.93a1.33,1.33,0,0,1-1.34,1.33Zm.27-1.6h5.4v-5.4h-5.4Z"/><path d="M180,140.62a1.32,1.32,0,0,1-1.33-1.33v-5.93A1.33,1.33,0,0,1,180,132h5.93a1.34,1.34,0,0,1,1.34,1.34v5.93a1.33,1.33,0,0,1-1.34,1.33Zm.27-1.6h5.4v-5.4h-5.4Z"/><path d="M195,125.62a1.32,1.32,0,0,1-1.33-1.33v-5.93A1.33,1.33,0,0,1,195,117h5.93a1.34,1.34,0,0,1,1.34,1.34v5.93a1.33,1.33,0,0,1-1.34,1.33Zm.27-1.6h5.4v-5.4h-5.4Z"/><path d="M190.42,125.62a.8.8,0,0,1-.8-.8v-7a.8.8,0,0,1,1.6,0v7A.8.8,0,0,1,190.42,125.62Z"/><path d="M190.42,133.62a.8.8,0,0,1-.8-.8v-3.2h-10.2a.8.8,0,0,1,0-1.6h11a.8.8,0,0,1,.8.8v4A.8.8,0,0,1,190.42,133.62Z"/><path d="M190.42,140.62a.8.8,0,0,1-.8-.8v-4a.8.8,0,1,1,1.6,0V139h1.4v-7.2a.8.8,0,1,1,1.6,0v8a.8.8,0,0,1-.8.8Z"/><path d="M197.42,132.62a.8.8,0,0,1-.8-.8v-2.2h-3.2a.8.8,0,0,1,0-1.6h4a.8.8,0,0,1,.8.8v3A.8.8,0,0,1,197.42,132.62Z"/><path d="M197.42,140.62a.8.8,0,0,1-.8-.8v-4a.8.8,0,1,1,1.6,0V139h3.2a.8.8,0,0,1,0,1.6Z"/><path d="M201.42,136.62a.8.8,0,0,1-.8-.8v-7a.8.8,0,1,1,1.6,0v7A.8.8,0,0,1,201.42,136.62Z"/><path d="M130.41,208.07H4.06A4.06,4.06,0,0,1,0,204V4.06A4.06,4.06,0,0,1,4.06,0H130.41a4.06,4.06,0,0,1,4.06,4.06V204A4.06,4.06,0,0,1,130.41,208.07ZM4.06,2A2.06,2.06,0,0,0,2,4.06V204a2.06,2.06,0,0,0,2.06,2.06H130.41a2.06,2.06,0,0,0,2.06-2.06V4.06A2.06,2.06,0,0,0,130.41,2Z"/><path d="M71.12,43.93H46.76a12,12,0,0,0-12,12V80.29A12.35,12.35,0,0,0,35,82.58l-17.14,24a.68.68,0,0,0,.92,1l24-16a11.75,11.75,0,0,0,4,.72H71.12a12,12,0,0,0,12-12V55.93A12,12,0,0,0,71.12,43.93Z" fill="none" stroke="#000" stroke-miterlimit="10" stroke-width="2"/><path d="M44.62,60.64a.8.8,0,0,1-.8-.8v-3A4.84,4.84,0,0,1,48.65,52h3a.8.8,0,0,1,0,1.6h-3a3.23,3.23,0,0,0-3.23,3.23v3A.8.8,0,0,1,44.62,60.64Z"/><path d="M48.65,83.64a4.84,4.84,0,0,1-4.83-4.83v-3a.8.8,0,1,1,1.6,0v3A3.23,3.23,0,0,0,48.65,82h3a.8.8,0,1,1,0,1.6Z"/><path d="M67.62,83.64a.8.8,0,1,1,0-1.6h3a3.23,3.23,0,0,0,3.23-3.23v-3a.8.8,0,0,1,1.6,0v3a4.83,4.83,0,0,1-4.83,4.83Z"/><path d="M74.62,60.64a.8.8,0,0,1-.8-.8v-3a3.23,3.23,0,0,0-3.23-3.23h-3a.8.8,0,0,1,0-1.6h3a4.83,4.83,0,0,1,4.83,4.83v3A.8.8,0,0,1,74.62,60.64Z"/><path d="M49.16,64.64a1.34,1.34,0,0,1-1.34-1.33V57.37A1.34,1.34,0,0,1,49.16,56h5.93a1.33,1.33,0,0,1,1.33,1.33v5.94a1.33,1.33,0,0,1-1.33,1.33Zm.26-1.6h5.4v-5.4h-5.4Z"/><path d="M49.16,79.64a1.34,1.34,0,0,1-1.34-1.33V72.37A1.34,1.34,0,0,1,49.16,71h5.93a1.33,1.33,0,0,1,1.33,1.33v5.94a1.33,1.33,0,0,1-1.33,1.33Zm.26-1.6h5.4v-5.4h-5.4Z"/><path d="M64.16,64.64a1.34,1.34,0,0,1-1.34-1.33V57.37A1.34,1.34,0,0,1,64.16,56h5.93a1.33,1.33,0,0,1,1.33,1.33v5.94a1.33,1.33,0,0,1-1.33,1.33Zm.26-1.6h5.4v-5.4h-5.4Z"/><path d="M59.62,64.64a.8.8,0,0,1-.8-.8v-7a.8.8,0,1,1,1.6,0v7A.8.8,0,0,1,59.62,64.64Z"/><path d="M59.62,72.64a.8.8,0,0,1-.8-.8v-3.2H48.62a.8.8,0,0,1,0-1.6h11a.8.8,0,0,1,.8.8v4A.8.8,0,0,1,59.62,72.64Z"/><path d="M59.62,79.64a.8.8,0,0,1-.8-.8v-4a.8.8,0,0,1,1.6,0V78h1.4v-7.2a.8.8,0,0,1,1.6,0v8a.8.8,0,0,1-.8.8Z"/><path d="M66.62,71.64a.8.8,0,0,1-.8-.8v-2.2h-3.2a.8.8,0,0,1,0-1.6h4a.8.8,0,0,1,.8.8v3A.8.8,0,0,1,66.62,71.64Z"/><path d="M66.62,79.64a.8.8,0,0,1-.8-.8v-4a.8.8,0,1,1,1.6,0V78h3.2a.8.8,0,0,1,0,1.6Z"/><path d="M70.62,75.64a.8.8,0,0,1-.8-.8v-7a.8.8,0,0,1,1.6,0v7A.8.8,0,0,1,70.62,75.64Z"/><path d="M133.47,145a3.3,3.3,0,0,1-3.29,3.29H4.29A3.3,3.3,0,0,1,1,145" fill="none" stroke="#000" stroke-miterlimit="10"/><path d="M1,21.24a3.3,3.3,0,0,1,3.29-3.3H130.18a3.3,3.3,0,0,1,3.29,3.3" fill="none" stroke="#000" stroke-miterlimit="10"/><line x1="89.94" y1="130.29" x2="125.24" y2="130.29" fill="none" stroke="#000" stroke-linecap="round" stroke-miterlimit="10"/><line x1="89.94" y1="135.24" x2="125.24" y2="135.24" fill="none" stroke="#000" stroke-linecap="round" stroke-miterlimit="10"/><line x1="89.94" y1="140.18" x2="125.24" y2="140.18" fill="none" stroke="#000" stroke-linecap="round" stroke-miterlimit="10"/><rect x="90.29" y="117.47" width="23.29" height="8.59" rx="1.56" fill="none" stroke="#000" stroke-linecap="round" stroke-miterlimit="10"/><path d="M216,241.31H162.88A12.32,12.32,0,0,1,150.57,229V100.72a12.32,12.32,0,0,1,12.31-12.31H216a12.33,12.33,0,0,1,12.32,12.31v72.49a1,1,0,0,1-2,0V100.72A10.33,10.33,0,0,0,216,90.41H162.88a10.32,10.32,0,0,0-10.31,10.31V229a10.32,10.32,0,0,0,10.31,10.32H216A10.33,10.33,0,0,0,226.27,229v-13.6a1,1,0,0,1,2,0V229A12.33,12.33,0,0,1,216,241.31Z"/></g></g></svg>