<svg xmlns="http://www.w3.org/2000/svg" viewBox="0 0 32 32"><title>help-icon2-white</title><g id="f4f2c116-c7f1-49f8-bcc7-cffd013c5824" data-name="レイヤー 2"><g id="e2077378-0fcb-488a-ab5f-986b5b52324e" data-name="レイヤー 1"><path d="M16,32H1.05a1,1,0,0,1-.89-1.46c1.4-2.68,2.42-5.58,2.17-6.23A16,16,0,1,1,16,32ZM2.67,30H16A14,14,0,1,0,4.05,23.29C4.88,24.65,3.77,27.67,2.67,30Z" fill="#fff"/><path d="M12.07,8.4A6.4,6.4,0,0,1,16.13,7c3.39,0,5.63,2.27,5.63,5.17,0,2.3-1.19,3.33-2.76,4.71a3.7,3.7,0,0,0-1.7,3A1.09,1.09,0,0,1,16,21c-1.17,0-1.28-.7-1.28-1.26a5.17,5.17,0,0,1,2.09-4.15c1.91-1.66,2.38-2.06,2.38-3.35A2.93,2.93,0,0,0,16,9.41a4.2,4.2,0,0,0-3,1.22c-.6.63-.72.75-1.12.75a1.19,1.19,0,0,1-1.15-1.31C10.76,9.32,11.84,8.57,12.07,8.4Zm5.69,16.09a1.5,1.5,0,1,1-3,0,1.5,1.5,0,0,1,3,0Z" fill="#fff"/></g></g></svg>