<svg xmlns="http://www.w3.org/2000/svg" xmlns:xlink="http://www.w3.org/1999/xlink" viewBox="0 0 461.89 243.92"><defs><clipPath id="a7adcb12-0e58-4672-a39d-29f3cb86dc32" transform="translate(96.64 -37.83)"><rect width="300" height="300" fill="none"/></clipPath></defs><title>help3</title><g id="bc86bf1c-d299-4323-923e-ee41bd3e0cf4" data-name="レイヤー 2"><g id="afb10b3b-f3b2-41f2-8e52-e7fed29aba41" data-name="フォルダー 2 + レイヤー 5 + レイヤー 49 画像"><g clip-path="url(#a7adcb12-0e58-4672-a39d-29f3cb86dc32)"><path d="M8.28,72.78c.49-.25,1-.53,1.49-.82A1.74,1.74,0,0,0,8.28,72.78Z" transform="translate(96.64 -37.83)"/><path d="M13.39,73.14l.13-.36c-2.17-.71-2.08-1-2.11-1.87-.55.38-1.1.73-1.64,1C11.19,72,12.81,73.32,13.39,73.14Z" transform="translate(96.64 -37.83)"/><path d="M-53.61,71.66l-.19.23c.31.11.63.23.95.37Z" transform="translate(96.64 -37.83)"/><path d="M12.35,264.29h.06v0S12.37,264.27,12.35,264.29Z" transform="translate(96.64 -37.83)"/><path d="M59.61,58.2Z" transform="translate(96.64 -37.83)"/><path d="M12.4,264.24v0h0Z" transform="translate(96.64 -37.83)"/><path d="M60.5,106.56l0-.31-.11.3Z" transform="translate(96.64 -37.83)"/><path d="M31.23,82.1c1.67.09,3.45.16,5.27.15A25.65,25.65,0,0,0,31.23,82.1Z" transform="translate(96.64 -37.83)"/><path d="M83.51,148c-4.32-2.64-8.49-1.35-12.69.78,2.7-3.14,7.68-2.58,9-2.85-2.41-2.26-5.61-3.63-8.78-5.08-5.56,2-16-2.44-13.4-7.92-5.88-15.18-.56-18.13,2.76-26.33l-.56-.09.33-1.93.57,0-.23,1.67a30.59,30.59,0,0,0,2.05-10.5c-.76,3.31-.46,2.25-.63,3l-.38,0,.54-5.29.44,0V95.8c.09-3.58,1-7.18-.24-10.81,2.33,1.59,1.77,1.1,2.33,1.49,2.77-2-.48-5.32-.19-6.3,1-.48,2.41-.8,3-2.08l-5.39-.27L63,76.67l-.24-.34-3.7,2.2.81,1L58.4,80c1.08.85,2.09,1.63,2.27,3.08l-2.2-1.21c-.24.6-.45,1.15-.74,1.89l-1.26-1.35-.26.47-4.68-2.18-.09.22,1.65,1.51A12.77,12.77,0,0,0,47.83,81c4.67-.75,6.45-2.21,7-5.74L58,76l-.72-1.1h1.27l-1.15-2.62,1.16.34.2-.26c-.85-.31-.56-.66-.74-.74,3.75-4.29,13.81-7.78,17.22-4.81v-.43c3.76-.51,3.74,2,5,2A7.93,7.93,0,0,1,78.51,66l1.18-.31c-8.5-4-15.45,0-21.06,4.24-1.77-4,.75-7.86.64-10.64h1.21l-1.08-1,.21-.11c-2.85-2-4.18-4.12-5.76-5.13l.41.18c1.2-1.89,3-1,3.07-1.37,0-.16,0-.33,0-.49l-1.45-.46-.13-1-2.14,3a4.25,4.25,0,0,0-.43-.21s0,0,0,0v0h0c-7.8-4.1-12.82.78-18.45,1.27l1.26.2c-4.91.73-5.56,4.69-6.81,8.18,0-.54.07-1.08.11-1.63-1.71,9.89,11,15.58-9,14.32-.87-2.8-3.49-2.49-4.75-3.37.84.69-.18,1.06-.28,1.59h0c-2.34,3.21-1.86,5.1-2.39,6.11L6,74c1.2-1,2.8.4,4.37-.43l-2.08-.77s0,0,0,0c-15.35,7.72-29.12-5.25-27.17,7.11-3,.2-2.47-3.58-2.87-4.33-8.2.6-17.38.25-24.45.54a38.76,38.76,0,0,0-6.64-3.84l3.22,2.56c-.12.21-.25.41-.38.62l-2.08-1.1c-1.56,1.53-3.16-1-3.56-1.3,1.7-.81,1.58,0,2.08-.12l-.36-.89.13-.14C-57.56,70.58-61,71-64.69,74.75c4.85-1.43,8-2.35,10.5,1.3-5.83,0-11.31.56-15.64-.4-3,.17-5-.69-7-.58C-70.27,71-63.43,66.45-58.22,63l-4.59,1.81-.14-1.5-.31-.24c-1.43,3.6-4.48,4.39-6.07,4.17v-.4c-4.58,1.24-9,9.4-10.59,7.09l-4.2,5.48-.47-.34c4.39-7.06,11.21-10.3,15.93-14.48,5.51-4.29,16-7.16,10.41-1.49,7.71-4.56,15.87-9.65,23.51-11.75l-1.17-.17,0-.25,7.59-3.18-.06-.16-13.68,4.7a77.28,77.28,0,0,1,15.1-6c-10.92,2.39-22.76,4.48-33.36,8.32,1.09-.31,2.56-.36,2.59-.6-1.26,2-2.74,2.32-3.51,2.07-.45-.63-.15-1,.42-1.28-7.12,2.63-13.66,6.07-19,11l-.17-.17,2.37-3.35-1,.36-.25-.33L-76.32,60a14.15,14.15,0,0,0-6.1,6.93l2.32-.5A12.69,12.69,0,0,0-84,74.08l1.33-2.77.25.1c-.13.54-.27,1.08-.49,1.94C-80,68.49-78,65-74.67,63.49l-3.83,4c5.59-3.91,8.66-7.91,14.17-9.42l0,.12-10.52,7.09.25.38a140.37,140.37,0,0,1,13.1-7.38l-1.45.27-.13-.36,5-2.14.2.43-3.65,1.83,5.11-1.55c-4.49,3.08-9.46,5.1-12.25,7.79-8.58,3.76-30.75,22.59-14.8,28,.13-.61.21-1,.29-1.42h.37c1,3.9-.09,3.88.09,5.22-1.13,7.05,5.44,7.81,6.58,12.42l-1.44-1.51c3.23,8.75,10.92,13,14.46,21a124.18,124.18,0,0,1-33.53,20.39c11.92-2.17,22.61-7.53,31.54-13.77,1.3,5-4.3,7.05-5.41,9.47l.27.32a61.89,61.89,0,0,0,15-9.38c9.53,10.66,24.12,19.24,37.83,20l.08-.32-3.34-2.77,8.16,1.59c-4.21-3.66-10-5.11-13.1-7.76l.13-.44,3.16.31c-10.22-5.58-18.15-13.63-26-20.34,7-12.74,14.82-30.32,7.87-42.11,1.13,10.7-2.58,19.67-7.12,27.57,4.43-5.36,6.42-12.64,8.31-17.58.4,3.75,0,7.06-1.12,8.86l0,0,0,.08,0,0c1,3.42-4.44,8-5.69,10.28,10.37-8.86-2.4,12.19-2.08,7.83-3.79,3.4-6,6.52-8.87,7.88.49-3.5,1.46-2.33,2.09-3.68l-1.35.11c2.58-3.54,5.24-5.67,6.65-8l0,0,2-2.77-1.46,1-.32-.28,1.46-3c-2.83,2.9-5.11,6.37-6.8,8.32-4.92-4.63-9.6-9.18-12.91-14.85l13.49-8.94.11.13-1.26,2a12.83,12.83,0,0,0,4.85-5.12L-52.08,95c-3.51-1.85-1-4.64-1.73-5.65,3.29-3,4.51-6.36,6-8.75a16.7,16.7,0,0,0,1.14,5.25c.39-2,.78-4.07,1.21-6.29h17.21c0,.23.09.55.15.89,4.81-2.7,7.35,3.1,11.86,2.46C4.88,85.07-7.3,89-3,91.82l.64-1c0,1-.79,2,.61,2.29.41-1.56.82-3.08,1.26-4.72,7.88,5.12,15.4,9.27,23.18,7-3.37-.88-6.89,1.26-8.64-.11,2.49-2.38,12.75-3.65,13.28-.53a39.88,39.88,0,0,0,8.28-.41c-.84,1.5-.81.82-1.09,1.43-3.55-1.58-5.14.9-6.13,2.2,3.66-2.44,4.13.45,4.5.56-.62.52-1.37,1.18-2.24,1.93l.94.41c-3.27,2-2.92,4.27-4.7,6.18l.47.57-1,.72,1.52,1.06c2.08-2.49,1.56-2.49.81-3.13l1.4-2.66c4.31,5-.23,8.46,1,12.9,1.09-6.73,15.16,7.13,13.56,7.08-4.07,2.71-15.12,4-15-.52-2-2.64-2.09-3.76-4.09-3.18,4.25,9.28-6.48.88-8.63.77l-.25.26c2,3.28,6.47,3.06,8.4,4.51-1.49,3.91-1.87,7.22-.9,8.81l-1.37,5.17-2.79-2.82c-1.94,2.85,1.47,4.33,1.73,5.46-4.45,8.07-7.78,12.27.93,13.51,1.05,4.41-1,8.08.51,9.66v8.07h.07l.47-7,.43,0c-.18,2.88-.35,5.76-.53,8.65l-.25-.35-.37.18c6.85,12.35,0,18.87,10.38,28.34-6.51,1.25-8.07.68-6.49,4.11l-2.27.54c2.35.21,3.23,1.11,3.19,3,3.89-.14,5.23-.08,5.55,2.34l1.15-.22.07.35c-3.51,1.36-4.94,0-6.08,2.44l6.11-2-.9,1.53c.61-.38,1-.62,1.6-1l-.86,2.51,3-1.93,1.11,5.33L37.42,220c.48,3.72.06,7.67,2.93,8.14-.5,25.09-3.69,32.86-26.75,36,.88.48,1,2.48.87,3l-.48.09-1.57-3h0c3.65,11.08,21,11.15,27.41,5.05,8.08,6,12.32-.11,18.08-3.07L54,267.61c-.07-.78-.1-1.15-.14-1.64,3.26-.31,4.15-3.38,6.07-5.23l1.11,1c2.49-1.77,2-5.29,3.92-5.4,2.63,4.38,7.17-1.06,8.83-1.82l-6.62,3.33-.18-.39c5.06-1.7,2-2.77.65-2.33l5.63-3.28.41.61c-5.79-13.18-10.56-26.59-9.65-40a14.46,14.46,0,0,1,5.17-1l-1.51-1,2.7-.82L68,206.84l4.54-.8,0-.2-2.8-.4,2.55-2.67c-3.12,1.6-2.6,3.5-4.67,2.91l2-.93c.16-3.28,2.73-2.29,3-2.45l.53-.71c-6,2-4.25-3.9-4.23-5.73l-.61.35-.36-.73-2.55,1c3-8.73,3.6-13.39,2.32-15.64v5.54H66c2.88-14.34-11.23-8-9.24-29.91l.35-.08c2.08,3,4.53,6.43,5.06,8.58l.11-.06L62,163.7c13.4,17.29,33.15,3,24-13.77C84.92,156.29,63.62,143.7,83.51,148Zm-154-78.15-3.2,2.6A2.68,2.68,0,0,1-70.45,69.8Zm15.08-10.06c-2.17-2.42,2.33-2.86,2.18-2Zm8.78-7-4.7,3c1.83,2,2.95-.1,4.42,0-4.22,2.53-4.28,2.39-6.64.71,2-2,4.54-2.69,6.72-4.05Zm-7.3.62c1.28.78.12,1.29.25,1.32C-59.51,56.27-55.17,53.27-53.89,53.39ZM-39.81,91.7V85.12l.15,0C-39.1,89.5-37.1,90.78-39.81,91.7Zm-2.3,18c0-3.16,1.1-2.14,1-2.93l.66.28C-41.1,109.75-41,109.09-42.11,109.74Zm-7.55,7.13-4.15,3.85C-53.37,117.74-50,115-49.66,116.87Zm-28-42.63.38.44-2.66,2.1-.31-.38ZM-80.94,80h.37v2.09l-.37,0ZM-82.67,96.4c2.3-2.36,1.27,2,0,0Zm2.87,4.88c-1.31,1.66-1.72,0-1.71.29C-83.13,95.38-79.44,99.13-79.8,101.28Zm1.77,1.13c.36.9.71,1.79,1.16,2.94C-78.06,104.82-78.38,104-78,102.41Zm1.83,7.2.72-.27C-74.3,113.7-76.61,109.21-76.2,109.61Zm3.78,2.76c1.08,1.82,1.49,2.1,1.59,2.68C-72.93,116-73.53,112.67-72.42,112.37Zm1.84,1.33c-2.09-2.18-2.66-2.93-2.22-4.49,4.15.71,1.44,4.13,2.53,4.25Zm5.32,7.21c-10.44-9.55,5.34.3,6.37,3.31l-3.43,3.26C-64.66,122.55-67.69,122.86-65.26,120.91Zm-.62-7,2.15,1.94C-66.33,118.69-67,114.18-65.88,114ZM-74.4,138.5c4.51-5.17,11.48-7.86,15.1-12.17l.27.31-2.33,2.44C-52.07,128.39-74.29,139-74.4,138.5Zm13.31-.55c1.07-2.7,2.52-2.54,3-3.46C-55.83,136.11-60.45,138.54-61.09,138Zm12.93.55-2.91-2.24-.27.32,1.39,1.3-.15.22-4.73-3,2.26-2c1.52,1.79,3.83,2.7,4.7,5Zm-4.77-7.57c.53-1.88,2.72-3.09,3.28-4.09C-49.94,129.55-51.56,131.75-52.93,130.93Zm8.39,11.14c-2.19-.68-2.63-1.61-2.52-2.16C-44.88,137.81-43.43,141.75-44.54,142.07Zm-2.07-5.92c1.19-1.52,1.31.2,1.71,0C-46,137.47-46.13,136.27-46.61,136.15ZM-29.73,144c-1.07,3.9-4.44,3.89-6.09,1.49C-38.17,139.32-30.07,140.72-29.73,144Zm-11.93-12c13.42,18-8.32,6.32-.21,3.43-1-.82-2.46-1.26-2.05-2.94C-42.59,131.45-42.15,131.68-41.66,132Zm-6.6-4.61c3.12,3.07,4.19,3.5,4.31,5.12-1.55,1.49-1.58,1.48-4.46-.23a4.11,4.11,0,0,1,1,2.7c-3.3-.91-2.89-2.35-3.93-2.73Zm-.62-4c-1.35,4.76-7.08,8.31-9.94,10.59l-.38-.33C-55.33,129.71-53,124.7-48.88,123.32Zm-13.82-7.5c3.6-1,7.3,5.75,3.65,5.82C-61.51,121-64.59,117.81-62.7,115.82Zm-.69-1.83c-5.19-2-7.21-6.23-8.5-8-.56,2.28-1.94,1.15-1.59.2-2.57-2.74-8-8.92-3.36-9.18-1-2-2-4.24-3.08-6.51-.54,1.71-.07,1.5-.24,1.94-4.41-3-.53-6.29-.51-9C-77,95.45-69.54,104.35-63.39,114Zm9.54-24.6,0,0c-4.15,4.37-9.46,10.16-12.83,13.22l1.34-.66-2.8,2.84c-3.71-4.84-7.58-9.68-9.61-15.41l9-6.39-.25-.43-3.63,1.57,1.13-1.53-.14-.34-7.48,2.21c-1.59-5.55.07-6.39.66-8.18l.45.14c-.63,4.21.43,4.54,2.5,3.83l2.29.8.4-1,.25.05.06.35C-62.1,80.16-43.93,75.66-53.85,89.39ZM-56.13,76.9l0-.34h15.3v.34Zm37.57,2.23c-.28-2.93.8-4.75,2.54-4.59C-17.63,77.7-15.86,78.7-18.56,79.13Zm42.21,82.76-.11-.08-.3-5.37.41,0Zm-1.87-19.07,2-5C24.49,139.26,23.76,141.07,21.78,142.82Zm13.65,72.86c.53-2,1.11-2.46,2.49-1.82Zm-9.32,56.78-1.42-.07-.25-.47c1.69-1.7,1.53.39,1.91.23Zm41.64-76.67.53.44v2.49l-.48.06C67.34,196.12,67.26,197,67.75,195.79Zm-2.36,5.36.56.16c-.23.82-.46,1.64-.68,2.46l-.41-.1C65,202.83,65.21,202,65.39,201.15Zm-1.3,23.08.74,4.08-.45.12c-.24-1.37-.48-2.74-.73-4.12Zm-7.7-61.08c.36,1.72-.09,2.3-2,2.44C54.32,164.13,54.6,163.8,56.39,163.15ZM51.84,106c1.07-.8,2.25-.37,3.37,1.15C53.93,107.77,53.42,107.6,51.84,106Zm4.35-.11-1.87-1C55.64,104,55.81,104,56.19,105.93ZM54,103.23l-.05.47-3,.14C52.1,102.13,52.53,102.1,54,103.23Zm-2-19.81L48.48,82C50.17,81.47,51,82.08,51.94,83.42Zm1,11.84v.24l-5.34.78-.13,1-1.41-.28.7-1.37ZM46.43,77.54c.21-1.17.4-2.2.59-3.24C47.75,76.32,47.59,77.14,46.43,77.54Zm4.85-24.27,1.83,3.53-.48.25-1.89-3.5Zm-6.1.89c0-.41,0-.76.07-1.15h1.16l.31-.54,1.5,2.26.35-.28c-.1-.48-.19-1-.29-1.48C50,53.6,51,55.38,51,58.08l-1.31-1.75c-.12,1.06-.25,2.19-.38,3.32h-.41l-.59-2.55h-.17c-.13,1.15-.27,2.3-.44,3.71L43.86,53.2ZM44.93,58l-2.71-4.49C44.41,54.52,45.91,57.19,44.93,58Zm-3-2.54-.12-.69c.93-.28,3.78,4.86,4.07,7.41l-1.39-3.11-.23.07.42,2.8-.17,0c-.44-.76-.87-1.52-1.31-2.27l-.18.09a24.62,24.62,0,0,1,1,5.9c-.91-3.9-2.1-7.68-4.64-10.92C40.58,53.89,41,55.33,41.88,55.47Zm-.12,6c-.76-1.43-2-2.67-1.69-4.51A6.25,6.25,0,0,1,41.76,61.49ZM39.35,58c.81,1.81,1.63,3.61,2.45,5.46C40.24,63.24,38.79,60.39,39.35,58ZM21.14,78.75c5.36-1.14,8.64.83,11.85-.8.38,1.86,1.19.56,2.06.19l1.51,2.14C34.43,71.76,32.74,62,39.73,64l0,.43-3.31,1c2.69,3.6,3.86,4,4.38,1.35,1.61.56,2,1.82,1.47,5l1.29-.61c.18.71.35,1.41.55,2.2l1.11-1.64.39.08-.8,4c.76-.64.38-2,1.73-2.24-1.75,5.47-5.07,6.83-9.81,7,5.16-.12,4.27.72,5.21,1.28a33.46,33.46,0,0,1-5.47.45,23.33,23.33,0,0,1,7.16,2.08l-4.29.81,0,.54c10-1,1.54,3.81-.12,2.21l-.1.39c1.62,1.2.87,1.23,1.27,1.49-6.63.76-14-2.23-18.35-5.36a26.27,26.27,0,0,1,9.12-2.31c-1.87-.11-3.61-.22-5.09-.22-.26-2.7-4.94-2.31-5-2.74Zm21.27,13-3.24-.72c1.33,0,2.71-.72,4.1.43l-.91.26c2.59.52,1.48,1.13,2.08,1.21-2.51,1.41-2,.23-2.64.61C41.87,92.92,40.65,91.93,42.41,91.78ZM18.77,81.31l2.16.2-.08.65-2.15-.3ZM18,80.08c-2.22-1.54-2.11-2.33-1.32-3.35C19,78.2,17.9,79.74,18,80.08Zm-2.77-6.82,1.09-.4c.26,3.15-2,5-1.5,5.88A5.58,5.58,0,0,1,15.25,73.26Zm-27.64,5.29c2.76-1.64,4.91.4,7.33.79-.07.16-.17.4-.28.63C-8.07,81.52-10,79.35-12.39,78.55Zm5.25,3.7L-5.33,80-3,79.67l.19.51-3,2.55ZM23.1,90.86C17.67,92.3-8.36,85.33,4.47,82.77a3,3,0,0,0-3.25-.85l.84.5c-1.12,1.16-2.2,2.29-3.39,3.51l-1.24-.54c.27-.51.54-1,1-1.83l-1.42.8-2.49-.62c2.91-3.46,2.85-3,5-2.89A14.6,14.6,0,0,1-2.81,79c19-2.54,17,7.49,23,7.17l0,.48-5.42.17a3,3,0,0,0,3.05,1.36L17,87.36c2.65-.87,4.95-.22,7.22,1.46C23.09,89.1,22.66,89.73,23.1,90.86Zm.12-3.33,10.84,3.2C32.7,91.31,26.44,89.6,23.22,87.53Zm9.16,4.89,2.09-.28-2-.54c1.63-.57,2.81.15,3.93,1.16-.29.59-.52,1-.71,1.39C35.37,92.28,33.55,93.22,32.38,92.42ZM33.06,112v-3.58l1.19,1.48Zm.32-7.53-.12-.48L36,103l0-.12L33.8,103c2.13-2.59,4-.55,3.94-3.51l1.87-.39C41.79,106.69,34.69,103.76,33.38,104.51Zm10.79,4.64,3,.21v1.52C46.21,110.44,44.64,111.24,44.17,109.15Zm-2.62,29.72,1.39.36-.14.71C41.07,139.79,41.63,139.53,41.55,138.87Zm-.68,16.69-1.2.44a5.55,5.55,0,0,1,2.38-6.24C40.41,152.74,41,154.18,40.87,155.56Zm6.53,59.38-.71-.48c.14,1,.25,1.81.39,2.85-2-1-3.87-1.94-5.19-4.1-.06.75-.09,1.19-.12,1.65-1.35-6.55,4.28-2.48,5.63-1.5Zm-6-109.78c1.68-2.36,2.41-5,4.38-6.74,0-.3.09-.7.13-1a4.8,4.8,0,0,1,3.63,4.73l-2.79-2-.4.26c.15.8.31,1.6.47,2.44l-1.26-.27c.63,1.08,1.22,2.08,1.92,3.29Zm7.75,107.28c2.45-.34,3.36,1.33,4.41,3.07C50.76,215,49.11,213.79,49.15,212.44Zm3.66,39.74c.2-4.5.41-9,.62-13.65,5.15,3.93,1.19,10.35-.2,13.69Zm2.95,1.52c-5-.5,1-8.12,2.63-5.16C56.66,252.57,57.15,252,55.76,253.7Zm3.78-74.24c-1.22-2.16-2.21-4.1-2-6.42C59.21,174.77,59.61,176.89,59.54,179.46Zm-2.84-11.9,2.06,4.94C56.37,170.77,55.56,169,56.7,167.56Z" transform="translate(96.64 -37.83)"/><path d="M13.6,264.12a1.19,1.19,0,0,0-1.19.14v0Z" transform="translate(96.64 -37.83)"/><path d="M-72.5,80.47Z" transform="translate(96.64 -37.83)"/><path d="M-27,46.28c2.28-.5,4.52-1,6.7-1.56C-22.56,45.14-24.79,45.67-27,46.28Z" transform="translate(96.64 -37.83)"/><path d="M17.57,184c-5.05-4.07-11.17-6.68-16.28-10a57.66,57.66,0,0,0,9.53,6.46C2.87,176.88-5.42,174-12.95,169.45-3.58,175.84,8.09,179.44,17.57,184Z" transform="translate(96.64 -37.83)"/><path d="M.84,170l.14-.26-7.58-5.08,0,0c-3.85-3.77-10.66-6.6-11.69-1.78L-25,160c4.67,3.68,8.48,9.57,11.58,9.31-2.29-2.12-3.49-2.86-2.52-4.15l3.41,1c1.43-1.46,4.5.47,8.31,3.45a18.23,18.23,0,0,1-2.4-3.12Zm-20.52-6.52c2.22-.5,2.28,1.07,3.1,1.08C-18.8,165.31-19.34,164.6-19.68,163.48Zm10.69,0,2.42,1.23,1.19,1.55-.16.24-3.69-2.6Z" transform="translate(96.64 -37.83)"/><path d="M1.29,174c-1.94-1.54-3.8-3.09-5.52-4.42A29.83,29.83,0,0,0,1.29,174Z" transform="translate(96.64 -37.83)"/><path d="M-32.23,51.6c.58,1.58-.34,2-1.56,2.2l4.19.31,0,.42H-34.2l17.05,1.63-2.53-.72c2.16-1.42,3.93.16,5.79-.19l-10.52-2.14.07-.35,8.27,1.14,0-.09-1.27-.44,1.2-.22V53h-1.8C-20.81,49.12-29.16,52.1-32.23,51.6ZM-31,52.89l1.63-1.09c.57.43,1,.75,1.42,1.06C-30.44,54.73-30.43,52.7-31,52.89Z" transform="translate(96.64 -37.83)"/><path d="M100.48,77.49l-1.1-.71c.31-3,1.86-1.42,2.08-2C91.88,73.15,84,79.82,82,68c-.13.77-.25,1.55-.44,2.69l-1.21-1.82C79.43,82.35,93.65,74.32,100.48,77.49Zm-12.87-1c.89-1.16,3.76-1.17,4.52,0Z" transform="translate(96.64 -37.83)"/><path d="M-10.83,152c-.53-.46-1.09-.95-1.68-1.5l.12-.64c10.79,3.47,11.28,9.53,3.57,3.76-.62,1.3-.4,1.75,1.6,3.6l-.35.11c.21.65.41,1.3.68,2.13,2.51-3.29,4.92,2.25,6.79,1.67l-2.33-2.79c1.57-.37.46-1.71.32-2.92l2.52-.12c-4.14-3-13.68-7.06-17.09-7.24Z" transform="translate(96.64 -37.83)"/><path d="M-10.83,152q1.08.93,2,1.62l.09-.21Z" transform="translate(96.64 -37.83)"/><path d="M-.06,161.07h0l0,0Z" transform="translate(96.64 -37.83)"/><path d="M93.51,95c3.77-.79,5.94-3.75,8.43-5.2-3.08,1.09-6.34,1.3-9.59,1.68C94.63,92,93.43,93.65,93.51,95Z" transform="translate(96.64 -37.83)"/><path d="M101.94,89.76a15.74,15.74,0,0,0,1.71-.7A5.88,5.88,0,0,0,101.94,89.76Z" transform="translate(96.64 -37.83)"/><path d="M0,161.16l-.07-.09,0,0Z" transform="translate(96.64 -37.83)"/><path d="M-4.39,161.2c2.08,1.83,9.87,5.28,12.17,5.09L0,161.16l1.61,2C-.68,163.89-3.24,161.18-4.39,161.2Z" transform="translate(96.64 -37.83)"/><path d="M-73.62,115.08l-.53.09c-.53,4.28,4.26,6.79,6.09,8.39C-69.86,120.69-70.92,117.33-73.62,115.08Zm-.06.38,3.78,5.24C-71.39,120.6-73.89,117-73.68,115.46Z" transform="translate(96.64 -37.83)"/><path d="M10.05,171.07c11.19,3.86,3.84,5.19-.53,4.16,5.7,2.39,6.83,2.26,8.49,3l.11-.29-2.63-1.32C19,172.93,11.46,171.08,10.05,171.07Z" transform="translate(96.64 -37.83)"/><path d="M8.78,116.87c1.7,2.24,5.53,3,6.66,4A12.09,12.09,0,0,0,8.78,116.87Z" transform="translate(96.64 -37.83)"/><path d="M22.71,210.89l-4.16,2.71c4-.23,6.84-2.23,8.28-.37l1.66-1.12-6.91.31c.53-.48.94-.87,1.35-1.25Z" transform="translate(96.64 -37.83)"/><path d="M.37,110.56c1.67,1.76,3.09,3.77,5.46,4.65L1,109.9l.86,1.71-.22.2C.75,110.59.56,110.82.37,110.56Z" transform="translate(96.64 -37.83)"/><path d="M54.07,49l-.14-.73c-.8,1.47-1.38,2.84-.81,4.4.75-1.33,1.49-2.66,2.26-4Z" transform="translate(96.64 -37.83)"/><path d="M4,101.65l4.14,5.22C8.53,105.66,6.65,103.27,4,101.65Z" transform="translate(96.64 -37.83)"/><path d="M7.36,174.09c-4.51-3.94-.17-3.47,1.56-3.39C2.27,169.1,5.72,173.08,7.36,174.09Z" transform="translate(96.64 -37.83)"/><path d="M15.07,72.43,13.48,71l1.4-.31-2.25,0A2.83,2.83,0,0,0,15.07,72.43Z" transform="translate(96.64 -37.83)"/><path d="M-18.74,73.61l0,.14,3.28-.36-1.37-.07c-.17-.39-.31-.73-.45-1.08C-18.2,74.58-18.56,73-18.74,73.61Z" transform="translate(96.64 -37.83)"/><path d="M-20,78.26V75.43l-.22,0v2.84Z" transform="translate(96.64 -37.83)"/><path d="M-43.47,107.24a9.67,9.67,0,0,0,3.06-4.85A8.53,8.53,0,0,0-43.47,107.24Z" transform="translate(96.64 -37.83)"/><path d="M70.08,158.37c-3.41-5.2,2.8-8.87,6.22-13.54a20,20,0,0,1,3.31,3c-.93.06-2.72,6.7.63,6.11l-.23.54c2.26-1.76,4.41,1.23,6-3.79l-3,1.45c1.46-1.35,4-2.26,5.63-4.84l-3.52,6,.29.27a21.13,21.13,0,0,0,10.17-6.92l-1.37,2.32c3.5.83,5.39-4.94,6.59-8.77.22,1-2.27,4.64.28,5.64,2.27-2,3.84-8.62-1.76-7.87l1.51,2.22c-2.43,0-4.23,3-5.18,6.35,1.13-1.91,1.54-5.37-2.15-6.14,0,1,.18,1.68.39,5L93,142.65l-1.24,1.18-.19-.16c5-4.59-2.92-6.68-3,0L89.7,143c-.83,1.33-1.63,4.29-4.21,3.24,2-.22,3.3-.76,2.46-3.85l-.57,0,.25,2-.43,0c-.17-2.57-.34-5.13-.49-7.44,5.38-3.33,4-14.07,6.26-20.61-.15-.3-.38-.74-.61-1.17l1.16,1,1.5-2.83-.26-.18a21.92,21.92,0,0,1-2.41,2L91.63,117l-.4-1.1,5-4.83.15.09-.4.95,2.64-1,.12.21-2.34,1.32c7.5-.49.42-4.51,4.11-5.88-.29-2.26-.83-4.41-2.81-5.91,4.64,1.86.46,7.42,7.53,5.3-2.59-2.74-5.64-7.72-10.41-8.76l1.47-.28-.92-1.47c5.93-.62,6.2-9,12.88-9.82.1-.49.12-.13-.23-1.12l-.82.92,1.15-5.28-.34-.08-.3.83-.36-1-1.64,2.8c.35-2.95,2.45-5.89.44-9.18l.61-.22c-4.15-9.9,15.62-16.7,22.3-9.29l-.76,1.08a3.29,3.29,0,0,1,.84,2h2.18c.74-1.72,3.92-4.95,1.69-7.82,3.52,3.15-1.46,9,2,12.57.65,3-.28,9.63,5.78,8.44-3.82,1.21-4.15,2.22-7.32-1-.74,2.26.19,5-1.81,7.84l.27-2.77h-.35c-1.41,2.86-2.81,5.73-4.28,8.71-.28-.68-.45-1.08-.63-1.49,1.94-2.45,4.3-6.34,3.81-10.41h-1.42c.68-.79.35-3.74-.5-5.07l-3.72,3.2.17.18,1.16-1.93-.18-.08-4,2.6,1.93,1.17-.12.22-.73-.15c.27,1.74-.71.77-1.28.54l-.9,1.33c-1.39.06-1.85-.72-1.89-1.6l-1.57-.19v-.49l3.31-.38V80.4L118.89,80l2.91-4.46-.59-.39c-2.26,2.68-5.76,4.49-5.54,9.14l-.76-1.69-.47.08.38,3.92-.11.25-.77-1.28-.22.18L115.66,91c-1-.52-2.45-1.14-2.9-2.87l.12,1.92-2.69-2.14V90l-.69-1.43-1.42,2.12c1.5,1.4,2.79,2.61,5,4.87,0-.59,0-.77,0-.74l2.61,2.32-.08.16-2.67-1.07c1.44,1.84,0,4.69,2.26,6.13l-1-.12.82,3.43,2.67-2.31-1.25-.63c3.1-1,4.1-1.23,6.07,3.14l.38-.12-.28-5.4L121,102a10,10,0,0,0,1.28-5.35c-1.08,1.38-3.31,2-3.3,4.36-.54-2.07-1.5-4.1.38-5.79l-1.56-2,.48-.43c2.38,4.1,4.29,2.85,8.49-1.07-1.08,2.81,3.42,7,6.69,8.64,10-8.83,21.17-18.21,30.67-28.4h0c5.21,11.73-18.91,23.21-24.19,29.77-9.69,11.42-1.86,3.74-12.89,9.68,4.26-3.91,10.6-8.3,15.44-12.21l-3.69-1.93c-11.66,9.12-25.37,18.75-36.48,29.36-5,.16-1.6,4.91,0,0l1.25,2c4.14-3.07,8.26-6.23,13-9.51-1.24,1.34-1.42,1.93-1.25,4.19L128,114.15l.13.12-1,1.17,0,0c-6.15,11.62-8.82,5.43-10.21,14.52l.8-.54c-1.77,2.47,1.63,4.22-.84,6.86,17.15,9.37,32.7,22.44,43.2,40.33.59,6.51-1.9,13.39-2.51,20.08l1.77,1.58c-2.67,3.24,3.55,12.3-5.07,10.6-.48.13-.76.49-.91,1.65h4l.08.35-3.23,1.55c.56,1-.2,1.3-.83,1.83l3.61-.84a21.93,21.93,0,0,0-5.34,7.46l.36.2,1.55-3,.31.1c-1.62,3.11-3.18,6.21-1.13,9.47-1.81.17-2.63,1.74-3.85,2.61.87-2.58,1.74-5.18,2.61-7.78-1.4,2.42-2.3,5.18-4.74,7.12l1.77,2.66L150,231l.09.05-.86,1,4.3-2.22.07.55c5-.31-.08,2.49,3.32,6,1.28,3.57,7.16,1.9,8.07,7.77l.32-.07-.21-2.41c5.59,4.7-8.16,4.84-11.39,4.75-.18,1.74-.18,1.74,2.12,2.11-4.88,1.23-5.17-4.11-9.3-4.27,0-1.79-8.35-3-7.41,1.91,2.27.37,4.5,1.08,7.06.62-9.13-.17-12,1.46-11.22-9.21l-.42,0,2.21-5.1.25.11-1.72,4.47c1.47-2.67,3.61-5.06,3.57-8.4l-.62.24c.55-4,2.94-8,3.69-12.8l-1,.41c3.6-17.94-15.83-11.19-.76-25.48l-.06.44c2-.1,1.07-1,2.94-3.64l-.34,1.75c2.78-2.9.71-6.13,1-10.5l-5.19,1.58-.34-2.34-.53,3.23c-.19-2.19.25-4.44-.7-6.5l-.46,0c-2.48,10.19-2.4,21.75-6.51,32.32l2.09.42-2.25,1.6c1.6-.09,2.38-2.3,4-.7l.54-1.8,1.54.56c.23.8-.71,2.18,1.11,2.88-4.18,2.93-9.77,5.62-14.92,8.57l1-6.16c-7.17.08-9.16-8.38-14.79-12.13l4.26-1.37c5.39,9,15.57-19.14,11.37-24.44.18-16.14-10-9-15.71-1.12-5.79,20.26-10.07,17-11,26-.45.89-.84,1.62,1.39,2.48l.37-1c.76,1.25.34,3.8,1.84,5.4.2,2,1.15,2.7,3.06,2.19l-3.09-2.21c6.86,1.76,4.64,8.67,1.13,12.67.24-3.58,3.59-6.2-3.92-6.73l-2.73,5.33,4,2.91c-2.41,1.29-6.68.94-7.28,5-.87-.12-1.14,1.72-.74,3.41l.76-3.46-1.7,11.57c-4.17-14.89-14-8.56-6.27-7l0,0c-5-1.05-.64,18.08-6.35,21.6,6.35-2.23,12,11.08,10.25-2.68-2.82-3-2.46-7.93.36-11.76,4.68,6.39-.24,41.63-9.36,43.29.4-.82,1.45-.45,2.44-3-3.4.94-8.21,3.45-12.44.2l-.26.32c2,3.33,5.81,3.67,10.29,2.46-12.38,4.51-14.94-6.8-7.77-14.86l-.87.57c-.19-2.54,4.46-5.62,6.37-12.84l-.27-.16-1.4,1.66c-1.4-4.73,2.17-9,1.73-14.53l.44,2.67a8.69,8.69,0,0,0-.59-5.83v2.86c4.53-29.1-1.31-13.55-3-28.83l.27,3.2,3.13-8.81-.33-.17c-4.27,3.7-8.49,7.53-15,5.78-3.43,4.85-5.35,8.13-2.49,14.55l0,0C53.84,209.9,63,191.23,71.55,177.49V178l2.75,2.65.64-1.06.24.15-.32,1.14.2.14,1.2-1.47-.51,1.74.24.14,1.09-1.66.3.19c-6,9-9.52,20.5-15,30.79,6.43,3.78,10.76-9.75,15.28-14.08,11.47-12.3,8-27.46,12.74-42.67,3.84-1.89,3.84-1.89,4-2.46l-10.77,4.6L90,154.29c-1.59,1.65-1.66,1.44-4.36,4.44l-.25-.19,2.55-3-.12-.23-5.73,2.09.13-.4c-2.35,0-4.49.49-5.92,2.58l1.22-2.11c-2.5-.09-6.62,5.78-7.56-3A4.37,4.37,0,0,0,70.08,158.37Zm11.63,40c.54-.59.15-.09.94-1.53l-.32-.22c-1.59,1.76-1.49,1.72-4.3,4.79l.17.22C79.38,201.07,81.22,200.57,81.71,198.38Zm34.83-125.1-1.53,2,.21.33c.76-.38,2.15,0,1.31-2.37a8.51,8.51,0,0,1,2.71-2l-2-.46Zm-13,18.14.79-.09L104,88.47c-1.65,1-.61,2-.39,3-.94.86-.74,1.74.55,2.38C104.9,92.78,103.78,92.2,103.53,91.42Zm21.7-23.69c-.69-.88-1.29-.63-3.28-.14.69.89.69.89,2.7,0,0,1.57-1.32,1.62-2.44,2.17,1.78-.1,2.44-.49,3-1.65l-1.5,2c1.56-.28,1.71-.45,2.19-2.73l.65-.13.29-2.93c-.92.46-2.1-1.46-3,.49.56-.22,0,.72,2.51-.31l-.13,2.08Zm20,160.4c-.92,1.53,1.18,4.28,3.31,5.5-.17-1.86-2.33-3.12-3.32-5.5a2.81,2.81,0,0,0,3.11-2.15ZM105.68,98.43c.38.52.65.93,1.77,2.51l1.35-.48,0,.18v-.18l1.33.07c-.27-1.73-.56-4-3.27-4.91ZM91.53,135.35l-1.22-1.84c.13,2.67,1.18,4.74,2.35,4.85l-1.18-3.05c.52.57,1.11,3.67,3.09,2.3l-.78-1.78,1.13,1.24c5.64-1.9-4.72-9.42,3.45-11.55l-.24-.63.2-.09L99.82,127l7-5.38-6.23-11.28c-.4,1.49-2.26,2.42-.46,4.31L99,114.24c-1,2.22-3.57,4.08-2.53,7.7-1.73-2-.08-4.41-1.08-6.54-.25,5.32-1.24,10.47,0,15.63l-1-2.52c-3.86,1.12-2,3.92-.61,7.36l-2.6-5.24C90.28,132.37,91,133.86,91.53,135.35Zm31.6,30.83c-1.94,7.47,8.62,20.67,11.87,8.13C131,173.08,127.16,169.2,123.13,166.18ZM58.28,215.52l.5.23c4.51-7.91,6.53-18.39,7.77-28.38A64.1,64.1,0,0,0,58.28,215.52Zm18.91-61.78c-.3-2.75-7.9-1.71-5.25,1.42C73.25,157.15,81.85,156,77.19,153.74Zm25.28-21.61c-.24,2.57,1.49,2.87,4.66,2.59.06-1.92-1.14-2.84-2.19-3.83Zm38.1,68.53.2,1.64-3.21-2.06c1,2.24,3.28,2.83,5.05,4l-1-2.91a64.82,64.82,0,0,0,7.25-2.71l-.13-.35ZM98.76,113.41l-3.28-.28.84,4.06.37.06Zm4.74,29.69a5.9,5.9,0,0,0,3-3.47h-3Zm49.91,63.76.06.32h3.09l-.67-.53c.31-1.64-.69-2.33-2.41-4.14-.42,1.66,1.07,2.15,1.41,3.19Zm-20.5-106.17-1.36-1.57-2.2,4.15.18.12Zm-5.14-3.54-.31.12-.5,1.4-.47-.1V96.1l-.88.41.41,2.84h2.2Zm-3.44-21-.24-.17L120,79.77C122,80.58,122.58,78.35,124.33,76.16Zm29,154.81-.14.49,1.76,1.7.46-.15.11-2ZM118.81,99.09l.26.11c.23-.52,3.24-2.65.11-3.49ZM152.46,237l-.56-.09c-1.05,2,1.09,2.7,3.2,4.72l.3-.32C155.12,240.42,152,239.12,152.46,237Zm-21.71-36.69,1.17-4.61C129.87,197.74,129.74,198.23,130.75,200.29Zm-20.66-87.82.44.25,1.33-1.09-1.34-1.56-.43.18ZM68.43,272.1c-.76,1.74.07,4.41,1.32,4.91ZM90,241a9.05,9.05,0,0,0-.85,5.47l.34,0ZM101.14,211c1.09.8,3,.3,3.31,2.27C104.39,211.37,103.13,210.5,101.14,211ZM79.87,261.13c1.13-2.38,1.17-2.61.54-3.28C79.16,260.07,79.11,260.39,79.87,261.13ZM110.64,72.66c.61.3,2.77-.26,1.52-1.63C111.61,71.06,111,71.33,110.64,72.66ZM85,155c-1.54-1.3-2.72-1.29-3,0Zm27.13-39.26.66-.42-.57-1.76-1.31.93ZM129,157.64l-.29.43,3.59,2.56C132.65,159.39,130.67,159.05,129,157.64ZM126.9,74.08c-1.57-.21-1.86.14-1.77,2.2ZM89,221.07c-1.46-.88-2.71-.86-3.25,0Zm-9.45-22.75.24.27c1-1.44,2.73-2.27,3.57-3.88l-.24-.21Zm46.72-96.75-.29.18,1.22,2.28.81-2.72-.14-.14-.73,1.09ZM99.58,192l.33.16,2.08-3.82-.38-.2C100.94,189.41,100.26,190.7,99.58,192ZM114.34,63.35l-.22.3c.29-.41.5,2.67,2.17,1.13ZM118.94,76c-2,1-2.23,1.28-1.58,2.15ZM75.85,248.69l-.29,0-.42,3.3.56,0ZM125.19,73.94c-1.68-.27-1.5,1-1.72,1.84Zm6.73,137.32c.5-.35,2.26-2.06.29-1.81C132.06,209.66,132,209.89,131.92,211.26Zm12.72-31.79-.51.05.14,2.19.52,0ZM115.29,76.92l-.22-.27-1.49.68,1.18.76ZM86.62,245l.2.06.76-4.25-.32,0Z" transform="translate(96.64 -37.83)"/><path d="M76.91,113.07l-1.42,4.14.3.18,2.83-2.67,1.75,6.3.35,0c.75-2.15-1.73-9.41,4.34-5.23l.23-.54L87,117.65l.44-.23-1.38-3.58.36-.14c.9,1.34.43,4.07,3.93,3-6,1.59,3,2.65-2.77,15.31l-3.1-2.89,1.8.84c-1.54-5.88-11-2.87-10.34,3.39C70.88,125.91,72.76,120.75,76.91,113.07Zm2.28,12.53a9.68,9.68,0,0,1,6.77.05C84.05,124.15,80.52,124.2,79.19,125.6Zm1.59-2.23,5.37.67C85.24,123,82.45,122.6,80.78,123.37Zm-1.2.59-.23-.39L76.85,125l.2.34Z" transform="translate(96.64 -37.83)"/><path d="M152,128c-.49-6.41-12,.56-7.08,5-10.38-3.24-10.94-10-1.92-18.55l.47.51,1.34-.57c.87,1.77,1.72,3.52,2.57,5.26l.38-.06-.35-5C150.31,117.7,153.64,123.15,152,128Zm-12,1-2.15-1.93-.26.32C137.81,128.62,138.78,129,139.93,129.06Zm8.06-6-.12-.3-4.1,2.54.15.26Z" transform="translate(96.64 -37.83)"/><path d="M123,137.3c5.1-3.11,8.53-10.52,12.87.3C133,145,127.26,143.21,123,137.3Zm8-2.25c-7,6.85,3.52.08,2.7,4.74l.41.13c.34-1,1.29-1.94-.34-4.22Z" transform="translate(96.64 -37.83)"/><path d="M164.11,71.94c2-1.85,4.6-5.27,7.59-7.57-.51,2.6-1,5.2-1.54,7.79l-.37-.21c-1.1.75-2.08,2.86-4.37,2.26-.28-.83.19-2.14-1.31-2.28Z" transform="translate(96.64 -37.83)"/><path d="M159.53,139.44c-3.4-4.92-10.1,1.44-8.68,6.7v-4.63l-.89-.42c1.06-6,7.18-7.44,9.84-1.86Z" transform="translate(96.64 -37.83)"/><path d="M76,138.09l.84-4.37.41.08L77,134.94c2.16-2.72,7-4.14,10-.69l.79-.37-1.1,1.65c-2.78-2.34-8.7-1.85-10.29,2.66Z" transform="translate(96.64 -37.83)"/><path d="M164.91,188c-.4-6.81-.46-14.12-3.44-21.06-3.24.86-4.15-4.7-6.74-7.21C163.68,165.39,165.77,177.52,164.91,188Z" transform="translate(96.64 -37.83)"/><path d="M114.05,170.89l1.43,5.06.52-1.29-.26.06c1.77,5.45-.57,9.53,7.38,9.05h-5.5l.5,2.72-.11,0-4.29-15.57Z" transform="translate(96.64 -37.83)"/><path d="M59.29,226c1.9,2.88,3.8,6.56,6.75,9.84l-.32.41-10.55-7,.23-.35,8.52,5.71.22-.22C63,232,60.32,229.48,59.32,226Z" transform="translate(96.64 -37.83)"/><path d="M137.58,192.21c-.12-1.48-.23-3-.35-4.44l-.36-.09-.69,3.19c-.54-2.82.45-5.39,1.2-7.92.14,3,.29,6.15.43,9.25Z" transform="translate(96.64 -37.83)"/><path d="M57,198.15l-.3-3.21-2.05,3.29-.21-.11c2.68-4,3.08-8.67,4-14.45Z" transform="translate(96.64 -37.83)"/><path d="M136.56,203.4c.35.16,2.89,1.47,2.19,3.57l-.68-1.26-.79.5c-.53-1.2-2.06-1.72-2.13-3.6Z" transform="translate(96.64 -37.83)"/><path d="M155.16,148.39l2-.38c.61-2.42.59-2.9-1.27-3,0-.23,0-.47,0-.46h2.48c-.36,1-.07,3.24-1.15,5.45C156.44,149.4,156.64,149.59,155.16,148.39Z" transform="translate(96.64 -37.83)"/><path d="M70.78,159.47a6,6,0,0,0,4.44.75c-4.37-.77-8,3.91-11.48,7.24l-.25-.24C65.14,164.84,69,162.72,70.78,159.47Z" transform="translate(96.64 -37.83)"/><path d="M112.43,191.56l3.6-1a5.82,5.82,0,0,1-.42-1.92c3.12.86,0,2.72-3,3.31Z" transform="translate(96.64 -37.83)"/><path d="M84.13,230.33c1.93.66,4,3.86,4.32,6.71-.6-2.8-2.43-4.78-4.29-6.74Z" transform="translate(96.64 -37.83)"/><path d="M146.2,139.41l1.3-4L146,133.74l.29-.28,1.26,1.46,1.52-1.77-2.74,6.26Z" transform="translate(96.64 -37.83)"/><path d="M87.36,253.16c-.84.46-3-1.91-4.91-3.52C84.05,250.13,85,251.39,87.36,253.16Z" transform="translate(96.64 -37.83)"/><path d="M127.21,115.44l4.12,2.07-.23.46-2.18-1.13,0,.61-1.71-2Z" transform="translate(96.64 -37.83)"/><path d="M155.83,145.11c-.47,1.06-1.53,2-.62,3.31-.71-.71-.58-1.46-.71-3.87l.32,0,.16,1Z" transform="translate(96.64 -37.83)"/><path d="M129.19,67.3c.06-.48-.37,0-.19-2C129.21,65.33,130.93,65.85,129.19,67.3Z" transform="translate(96.64 -37.83)"/><path d="M86.49,255.27l-1.09-1.72.34-.23C86.38,253.72,87,254.15,86.49,255.27Z" transform="translate(96.64 -37.83)"/><path d="M164.48,145.57l.25,1.7-.09,0-.21-.89-2,2.41-.23-.17Z" transform="translate(96.64 -37.83)"/><path d="M160.36,149.26l1.13-3.73.6.23-1.73,3.48Z" transform="translate(96.64 -37.83)"/><path d="M160.36,149.24l-.27,1.8.94.08-2.3.78,1.64-2.63A0,0,0,0,1,160.36,149.24Z" transform="translate(96.64 -37.83)"/><path d="M105.68,98.43,107,97l1.59,2.55-1,.67C107.25,99.87,106.89,99.56,105.68,98.43Z" transform="translate(96.64 -37.83)"/><path d="M82,198.17c-1.13.74-1.59,2.54-3.75,3.47l-.17-.22C78.49,201.09,77.93,200.91,82,198.17Z" transform="translate(96.64 -37.83)"/><path d="M129.5,83.56l-2.23.63s0,.17-.06.39c-.68-.83,2-3.51,3-1Z" transform="translate(96.64 -37.83)"/><path d="M288.29,280.82c-12.94-1.36-7.44-20.11-8.06-28.73l.25,3.12-1.08-2.68-.38.11-.16,1.27c.07-3.92-.87-7.42-4.63-9.82a12.16,12.16,0,0,1,2.25-1.89c-.3-1.7-5.47-3.49-1.09-6.89-.67,4.27,11.48,6.69,9.74-.23l-.17,1.28c-8.6-3.12-14.5-10.22-24.95-12.46-.55,3.21,2,11.62,6.08,20.28-3.08-.15-5.39-2-8.11-3.41,1.87,2.26-.59,1.44-.39,7l-7.34,2.57,4.34,7.33c3.09-.29,3.77-.91,4.19-4.14,3,1.06,2.08,10.54-7.39,8.66.55,4.37-21.7,10.4-20,.84.72.58,2.86,2.35,4.89-.41,0,.71,0,1.42,0,2.07l-1.14-.1V265c19.44.7,13.71-12.86,1.14-2.3,1.76-1.66-.51-5.91,3.5-6.75l-.26,1.88c4.4-2.6,6.88-2.66,10.08.42-1.23-2.34-1.3-5.34-3.89-6.52l2.13-1.76-.43-.48.84.32.14-.27-2.2-1.2c-.16-.6,1.45-.94.7-2.76l-.53.34c-.56-9.28,6.39-25.49-10.86-30.54-.58-.57-.61-1.26.34-2.9l-.18,1,.48.22a24,24,0,0,0,2.4-5.89l.37.08-.58-1.9-.42.56c-.58-10.64-.4-22.9-3.53-34.69.22.45.45.9.79,1.57l.16-1.13.63.49.33-.14q-.8-3.65-1.57-7.29l-.31,0v6.51c-.19-1.94.23-5.68-.32-9-1,6.23-8.29,10-11.2,16.25,1.57,8.36-1.92,19.21,2.37,28.19,21.19,29.35,10.6,37.55-19.46,28.45A37.34,37.34,0,0,0,210,222.78l.47-.17C227.3,237.32,244,237,220.22,213c-1.76-7,.32-12.9-3.16-20.52-7.47-9.62,7.16-16.07,1.61-24.4l2.94-1.27.92,1.36c-.27-1.93.45-3.19,2.89-4.5-.43.94-1.79.61-2.57,3.38,2.46-.28,5-2.48,7.16-5.32l-2.09,1.87a63.94,63.94,0,0,1,7.1-13c.31.64,4.57-2.13,2.72-3.53l-.2-1.23,1.6.75-1.7-1.83c1.07-1.81,5-2.7,2-9.34l2.84,3.09c.44-1.42.36-1.64-1-2.64l3.72-2.33.41,2.21h.49l.43-3.19,1.26-.84c-2.71,7,2.86,5.13,10.09,6.29l-.2-2.49,1.35,2.32.45-.2-.68-2.81.25-.31c1,.87,6,5.49,2.1,7.94,4.44.09,8-1.48,11.32-3.62-2.27,1.41-4.16,4.23-5.95,8.07.63,1.62,1.7.47,2.61.37l0,0c1.52,3.77,6-2.68,9.95-1.89l-6.17,3.23c.79,1.86,3.44-.25,6.09-.52.93,7.52,5.17,10.15,10.4,18.34l.32-.18-1.36-2.4a7.87,7.87,0,0,0,2.56,2l.41,1.17.19,0,.1-1.08c6.62,23,25.42,14.1,37.12,22.3,44.18,43.91-25.64,51.45-32.3,59.39,12.4-37.35,59.13-24.65,18.9-51.61-20.21-10.58-16.29-.5-31-20.08l-.33.22c4.38,12.18,7,26,12.31,38.79l-.81-1.25-.37.06c5.47,17.2-17.55,11.77-6,23.42-1.9,7.64-1.56,15.53,3,25.46-3.79-4.41-5.81,3.74-4.35,9.49-.56-1.16-1-2.08-3.38-7.07l-2.33,3.71-.13-.47-.45.08c-1.6,2.67,7.32,13.61,6.78,5.25,1.41.65.76,1.81.68,2.91.89.31,2.65.62,2.69-2.45l.59,1.59.36.07.69-2.89.22,0v1.86l.34.07,1-2.95.29,1.65c.6-1.36.6-1.36-.07-4.29C299.36,273.82,295.75,281.77,288.29,280.82ZM275.57,170.09a23.65,23.65,0,0,0,8.51,5.5c-.84-1.39-3.09-1-2.69-3.13l2.16.78c-4.32-2-7-4.65-8.67-10.5l-.28.12,2.6,6.93Zm6.48,72.14c-2.09-.7-1.83,6.63,2.73,4C285.17,244.8,285.76,245.23,282.05,242.23Zm7.56,15.62c-2.23-2.66-6.88,0-4.33,4.81A7.18,7.18,0,0,1,289.61,257.85Zm-10.17-94.13a10.61,10.61,0,0,0-2.57-7.65C274.88,157.6,277.36,161.23,279.44,163.72Zm-37.9-21.23c.55,2,5.11,6.57,5.94,6.5C246.43,147.47,247.86,144.2,241.54,142.49Zm-13.86,24.75,4.91-5.17c-3-.19-3.79,2.37-5.57,3.68Zm61.33,7c-3.72-1.15-9.43-3.93-12.38-8C278,170.85,283.59,173,289,174.21ZM274.87,153c.5-2.22,1.93-2.87,3.47-3.49-2,.3-3.89,1.35-5.89.08C272.27,151.54,274.23,151.47,274.87,153Zm-26.71,90.66c1.56-.16,4.86-.91.31-3.08ZM244.88,151c.44-1.61-.46-2.5-3.49-3.29ZM285.57,277.5,281.14,273A5.38,5.38,0,0,0,285.57,277.5ZM253,138.43l-.33-.19-2.56,3.44.23.4,2.4-.75-.64-1Zm26.6,121.68.42,0,2.21-2.86-1.07.67-.36-1.59-.5,0Zm2.16.34c-1.59.4-2,1.62-1.38,3.28C282.61,263.4,280.63,261.3,281.73,260.45Zm-44.67-67.8h.15v-7.08h-.45Zm11.06,41.84c1-2,.91-3.66-.19-4.25C248,231.61,248.06,233,248.12,234.49ZM260,152.18l-.15-.56-3.57,1.14.17.57ZM284.07,248l-.28-.45-2.15.35-.06.48C282.12,248,281.58,249.63,284.07,248ZM262.41,143.24l.06.42c1,0,2.13.36,3-.52l-.09-.45Zm28.11,25.47c.11,2.1,1.75,3.84.05,5.67C292.13,173,292.13,172.33,290.52,168.71Zm2.54,3.87-.22,3.85C293.73,175.31,293.54,174.13,293.06,172.58Z" transform="translate(96.64 -37.83)"/><path d="M178.55,116.42c-.74-13.45,4.87-8.08,9.73-1.26,4.24-5,2.22-15.21-7.81-9.11,7.95-6.44,15.55,7.39,29.27-7.7,4.49.54,5.61,4.24,12.63-2.5,2.95-.43,7.06,2.75,9.17-2.15l-.26,1.36,2.09-1,2.15,3.16-.21.22c-5.38-3.33-8.81,5.38,2.76,2.65l-1.36-1.74.93-.54c.71.81.08,0,1.34,2,0-.47.87-.64.68-4.67.6,1-.82,1.88,1.28,4.56a5.18,5.18,0,0,0,.91-3.57l.39,1.7L244.87,96l-1.45-.53,0,0,1.92-.33L243.43,92c10.12-2.16,12.08-6,22.05-1.76,3.18-1.61,15.11-11.61,10.79-14.37l.89,1.69-.36.19-.61-1.15L273,80c-1.27-1.64.58-5.18-2.16-7.29,1.22-2.53-1.58-4.07-1.91-6.49l-2.29,1.59-.32-.69-3.38,2-.31-1.37-2.17,3-1.15-2.37c-.37,0-.38,1.83-1.11.33-1.47,1-1.37,2.17-.36,3.71l-1.71-.64c-1.32,2.92.48,6.26,1.27,10.86l-.63.14c.34-7.82-9.46-3.5-14.51-1,2.25-3.84,9-6,11.71-10.51l-.52-.33L252,73.12l-.41-.35c1.94-6.38,9.58-12.11,12.47-18.5l5.54,2.35c1.35-1.35,1.31-1.48-1.06-2.61l6.79-4.16.18.15-.58,1h1.67l-2.42,3.46,4.3-2.29.13.23-.4.66h9.12l-.95,1.19c8.94-.82,18.8-7,29.8-6.83h-4.45c-1.76-2,2.11-7.63-3.39-8.21,5.2-1.18,10.48-.59,15.72-.81H306.9c16-2.24,31.84,2,48.3,5.65-7.49,3.64-33.9,9.16-24.66,22.15,1.65-1,2.65-5.8,8.33-2.09l.45-.55.3,1.21c2.16-3.46,5.21-4.15,9-3.26-.43.41-4.15-1-4.69.78a198.3,198.3,0,0,1,21.37-.27c-7.74,3.38-14.82,13.58-24.15,9.65-1.05,1.29-.92,5.44-6,2.87,3.78,15.29,1,28.92-9.89,40.65-.16-4.46-.41-8.88-2.51-13.37,1,2.59.36,3.47.55,8.93a110.31,110.31,0,0,0-12.84-26.73c-4.19,1.92-8.11-2-12.67,4.34-6.88-9.54-25,10.43-23.74-3.81-1.68,2.55-1.5,6,.36,7.9l-2-.79c1.79-6.65-6-3.8-7.59,3.11l-.44,0L263.67,92c-1.55,1.14-6,2.39-3,6.11l-.72-.7c.68,2.18,3.22,3,5.28,2.18l-3.84-1.16c4.43,1.35,9.41-.85,14.87-4.33,1.25,0,2.61,0,2.82,2.63l1.58-.67.11.18L279,97.43l.07.14,2.82-.95,2.3,2c-8.38-2.7-21.8,14.19-26.84,3.44,2.11,3.94,6.39,3.49,11.16,1-8.15,2.09-9,2.66-13.08-8.1l-.36.12c.26,1.89,1.2,3.59,2.33,7L254,96c-1.46,1.07-4.08.54-5.3,2.83-.37-1-4.09.43-6.07,3.06,2.51-1.78-14.35,1.17-9.8,4.14,2.36,1.56,1.9-1.46,6.49-1.72l-4,1.95c2.85.65,3.54-3,6.61-3.95-.34,1-2.32,1.7-.42,4.39-4.3,1.88,2,4.85.87,9-1.66-6-15.06,2.41-6.72,10.27l0,0c-3.1-2.42-6.9-3-4.19-11.82,1.2-4.3-4-5.56-.45-9.63-1.33-2.53-2.36,2.6-7,3.29a6.55,6.55,0,0,0-6.88.83c-5.06,1,.38,5.65-8.1,2.76l-.16.32-.57-1.09c-4.37,1.84-10.62,1.72-15.06,5.75C194.26,109.85,186.57,128.1,178.55,116.42ZM299.6,74.71c.77.85,6,2.38,5.39-1.31-1.29,3.23-2.38,1-5.29,1.32-1.12-1.94-3.32-2.23-5-3.36-9.47,5.29-11.52-6-17.49,10.46l.32.25c4.88-2.78,15.71-1.84,17.52-9.77l.53,0,2.93,5.14-.48.27c-1.71-3.52-4.11-5.81-1.9,4.09,3.31.84,3.59-.43,2.62-5.34l.37,0c.29,2.11.57,4.22.86,6.33C302.15,81.35,300.46,78.2,299.6,74.71ZM197,112.46l.1.26,8.15-1.63c6.43-11.29-14.38-5.47-8.57-.31l-.54.48c1.94-.31,1.94-.31,2.52.39ZM311,72.32a7.27,7.27,0,0,0,1.8,5.41c1.77.24,3.47.5,5-.53-.69-2,.58-3.17,1.56-4.48l-1.05-1.61Zm-6.2-.82c1.16,2,.4,6-3.93,4.66l1.15,5.38.29-.28C307.89,84.34,310,75.59,304.84,71.5Zm21.12.26c4.88,3.56,11.05-5.58-1.76-3.4ZM217.7,106.43c1.86-.8,5.09-8-1.54-5.44Zm109.47-7.67.36,0L328.72,96l.42.11.7,1.44.33,0,.2-2.78a9,9,0,0,0-5.18-.34c-.12.78-.29,1.84-.45,2.9l.32.06,1-1.61.52,0Zm-105.43-.12,1.13,2.67,1.41-.73,1.29.87,1.83-.63A4.73,4.73,0,0,0,225.26,97l.35,1.05-2.05.85.15.31ZM305.62,63.9l.22.54c1.21-1.63,9.51,1.24,8.3-3.26ZM260.39,103c-.45-.14,2.68-3.11-1.95-4.6C257.7,99.64,258.38,101.32,260.39,103Zm-47.78,1.74.62-.21c.09-2.69-5.43-8.71-4.43-1.46C210.3,101.77,211.67,101.14,212.61,104.77ZM318.67,69.41l.49,0c.65.19,1.89,6.26,4.58,4.23-.34-.54-5.52-3.1-3.43-5.67l1.27.92.23-.23-1.68-2.13C319.57,67.6,319.12,68.5,318.67,69.41Zm13,19.7c-2.2-.51-4,.52-6.12,1.73C327.25,91.47,329.66,91.08,331.71,89.11ZM304.32,72.36c-.62-.93-3.51-1.38-4.22.85C301.11,74.34,302.61,74,304.32,72.36Zm-11.15,7.1-.45-.37a5.81,5.81,0,0,0-3.6,1.68C290.58,81.9,292.24,82.33,293.17,79.46Zm-62.25,27.28c-.3,1.53,3.67,3.42,4,.42Zm-19-7.13c.62.73.1,1.86,2.09,4C214.71,103.08,214.72,101.41,211.91,99.61ZM320.65,82.36c-.16,1-.31,1.77-.47,2.72l3.16-2Zm-10.51-5.89.29,3.9A2.14,2.14,0,0,0,310.14,76.47Zm-14-8.62A2.92,2.92,0,0,0,296.8,72,18.64,18.64,0,0,0,296.14,67.85Zm45.45-3,1.85-.67V62.11l-.33-.1Zm-33.2,15.4,1.76-1.61-1.76-.52Zm-1.18-9.31v-.4c-.52.11-1.35-.77-1.35,1.08l.39.13ZM226.88,96.76l-.46.29,1.63,2.54.36-.23Z" transform="translate(96.64 -37.83)"/><path d="M281.65,132.81c.27-1.89.05-4.82,2.78-7.94-.14.48-.28,1-.46,1.63,5.43-5.53,9.67,14.79,12.08-5.18.45,5.21-2.19,12-7,15.41l.85-1.63c-1.57-.19-2,.53-1.45,2.24l-1.26,4.76c-2.2.23-2.25,2.82-4.93,5.16,5.56-6.85,1.38-10.68-10.09-8.41.28-.95-.5-1.56-.73-4.91l6.74,2.56c1.14-1.2,2.33-2.47,3.52-3.74l-.89,2.56c1.61.56,1.53-.93,2-1.67l1.11.23c-1.89-1.81.43-4.38,3.36-5.56-.92-.93-1.78-.24-2.65,0,.51-.61,0,.45,2.27-2.29l-.28-.33-4.53,3,2.51-.41A42.44,42.44,0,0,1,281.65,132.81Z" transform="translate(96.64 -37.83)"/><path d="M285.68,123.1c-1.83-1.41-1.43-7.61-5.59-7.56l.69-3-.92.72c.57-2-1-3.18-1.67-4.68.93-.09.8,1.63,3.21,3,.75-2.11,10.19-10.07,10.6-4.59-.38-.22.52-.43-.91-1.38.64,1.58-.56,3.27,3.64,7.45a3.18,3.18,0,0,0-.37,4.44l-.47.56-.74-2.64C289.88,117.38,287.81,118.23,285.68,123.1Zm.61-14.09c-1.35-.62-3.94,1-2.66,2.86Zm1.44,6.14-.38-.3-2.4,3C286.61,117.75,287.9,116.31,287.73,115.15Zm1.57-3.25c-.38-.46-1.65-1.2-2.15.58C287.66,112.22,287.18,112.86,289.3,111.9Z" transform="translate(96.64 -37.83)"/><path d="M264.93,78.23c.3-2.07,3.82-1.82,6.23.32l-1.07.68L269.15,78C267.77,82.08,266.35,78.94,264.93,78.23Z" transform="translate(96.64 -37.83)"/><path d="M249.55,123.22l-.43-4.69-.27-.08-.87,1.67-.13,0c2.63-4.22-2.39-8.45.13-13.76C246.37,109.63,251,117.73,249.55,123.22Z" transform="translate(96.64 -37.83)"/><path d="M270.13,75.6c-1.76-1.76-3.51.39-6.1.21C264.31,73.59,268.57,72.61,270.13,75.6Z" transform="translate(96.64 -37.83)"/><path d="M258.67,76.79c-.9,1.17-1.3,1.79,0,0C261.24,77.32,261.41,81.53,258.67,76.79Z" transform="translate(96.64 -37.83)"/><path d="M257.14,124.37c-.1,1.81-.19,3.63-.29,5.67-1.13.83-1.77-.55-3-1.07C257.13,128.64,256.48,126.17,257.14,124.37Z" transform="translate(96.64 -37.83)"/><path d="M256.28,112.46l3-2.41C260.36,111,260.1,112.55,256.28,112.46Z" transform="translate(96.64 -37.83)"/><path d="M235.68,125.92c1.31,1,.74,7.84,4.72,3.71-2.56,3.44-4.73,1.42-4.68-3.74Z" transform="translate(96.64 -37.83)"/><path d="M257.09,74.58c.51-.63,3.11-.9,3.38,2Z" transform="translate(96.64 -37.83)"/><path d="M269.07,114.61c3.47.48,4.93-1.9,6.84-4.16C274.61,113.73,271.29,115.81,269.07,114.61Z" transform="translate(96.64 -37.83)"/><path d="M250.83,123c.61,1.94-.61,4.42,2.08,5.86C251.05,128.93,250.47,127.4,250.83,123Z" transform="translate(96.64 -37.83)"/><path d="M270.29,136.63l-.62-3.57h-.35l1.41-2c-.31,1.25-.08,2.38-.29,5.65Z" transform="translate(96.64 -37.83)"/><path d="M243.42,95.49c-1.32-1.11-1.8-1.54-3.5-4.83,1.83,1.16,2.4,3.2,3.47,4.87Z" transform="translate(96.64 -37.83)"/><path d="M247.94,130.2l1.12-6,.35.06q-.58,3-1.19,6Z" transform="translate(96.64 -37.83)"/><path d="M278.68,148.06l2.14-1.26c.18,1.46.95.41,1.48.41l-2.67,1c0-.08,0,.17-.08.31Z" transform="translate(96.64 -37.83)"/><path d="M257.33,119.19v3.15c-1.47-1.09.25-2.22-.57-3.14Z" transform="translate(96.64 -37.83)"/><path d="M277.73,119.57l1.56-5.49.35.11c-.54,1.82-1.09,3.64-1.63,5.46Z" transform="translate(96.64 -37.83)"/><path d="M272.42,127.85l1.08-3.69.43.13-1.1,3.74Z" transform="translate(96.64 -37.83)"/><path d="M268.87,147.24c1.83-2.26,6.19-5,7.35-4.56-2.31,1.78-4.3,4-7.37,4.53Z" transform="translate(96.64 -37.83)"/><path d="M294.54,120.15l1,3.22-.36.13-1.07-3.21Z" transform="translate(96.64 -37.83)"/><path d="M213.15,274.87c-12-1.44-4.67-16.09-8.34-24.08l.38-.07-.37-2.78h-.24v2.22l-.27.06c-1.23-3-.08-6.62-1.6-10.79-1.75.59-1.11-2.13-1.51-4.25-2.56.49-3.33.09-3.48-1.58-1.39-2.06-5.8-.31-5.55-5.24-6.25-2.6-.62-7.16,4.19-9-4.73-16.26-7.44-38.07-21.44-38.89-.92,6.5-2.45,13.13-1.88,20a56.45,56.45,0,0,1-.58-10.27c-2.25-5.49-8.73-6.54-12.13-1.15.2,2,2.78,5.29,1.85,7.85-1.9-5.46-3.38-12.64-4.72-19-3.87,1.8-6.84-2.87-10.59-5.08,3.62-2.18,7.24-2.1,6.07-8.4-10.49,4-11.3,23.18-2.38,27.76l-1.56-.59c-.55,2.14.26,3.22,2.53,3.79-11.11-3.88-10.17-26.37-.53-31.69-7,1.86-14.31,10.22-10,17.34l-1.25-2-.36,0c-1.91,2.27-.54,4.5,3.73,3.85-13.36,3.29.13-21.35,8.41-20.57,2.47-1-.69-5.05,1.44-7.49l-6,2.15.84.44-4,1.29,2.6-1.39-.07-.2h-1c1.5-.3,1.37-1.45,1.49-2.5h-2.37l-.67,4.09c-4.59,1.76-9.94,3.35-14.89,6.25a78.27,78.27,0,0,1,3.92-7.61c-.51.78-6.37-1.46-8.4-2.23l1.11,3.08-2.17-3,.81-1-.85-.11c1.26-1.46,2.26-3.17,4.7-2.37-.06-.39-.11-.67-.15-.94,1.53,1.72,2.51,1.92,3.35.59l-1.71.15,0-.18,2.14-.79c-.93-.62-1.93.09-3.76.27,1.37-.63,5-1,6.88-1.51-.18-.19,0-.08-.59-.22,1-.65,3-.49,4.52-1.84,0,.13,0,.26,0,.38l3.57-.78-.09-.42-3.47.86,5-2.07c6.75,11.28,18.47-3.85,7.68-5l4.27.44a30.24,30.24,0,0,1,3.16-9.38c20.17-5.75-18.49-14.23-13.61-24-.11,1.19-.68,2.5.72,3.25-.07-1.08,2.07-4,1.26-5.65l2.23-2.42c.36,1.11,2.72-1.05,2.44-2.79l2-2-.36,1.21c2.58-.92,1.77.88,3.21,2.8,1.88,1.33,11.24-7.55,5.48-8.32,2.94-.79,3.87-3.28,5.57-5-1.14,2.13-4.86,9.13.5,10l2.28-10.66-1.66.2,1.5-2.74-3.43-.73a2.74,2.74,0,0,0,2.89-.35h-1.55l8-2.64-.06-.45-1-.62c3.52.59,4-2.57,2.16-6,4.57,8.06,11-3.73,13.32-7.62l-1.23.83L189,65.89l-.83,1.39c-.18-3.67-2-5.3-6.08-2.7h4l0,.51-2.13.38.26.49c-1,.46-1.83-.45-3.46-1.21V66l-1.91-2.2.28,1.84-.27.09-.72-1.09c-.26,1.49-1.5,2-2.41,1.28l-1.2,2.29,1.14.27c.4,2,0,2.71,1.67,5.81l-.58.33-.38-.55-.18,0,.65,2.76-.28.14-3.26-6.27-.15,2.15-.24.07L171.78,68,171,70.45l-.18,0-.24-4-.7.65.54-2.41-.2-.14-1.6,1.69L169.74,61l-1.19,1.48-.27-.15,1.61-4.66-.77.35c1.94-2.81,4.57-5.51,4.07-10.24l1.05,2,2.09-4.1.34.15-1.4,3.51c1.71-1.5,2.41-3.57,4.51-4.83l-.35,2-.36-.63-.37,1.27c2.06,0,2.88-1.91,4.64-2.52l-1.88,2.58c2.78,1.17,5.17-.58,8.66-.58l.09.37-2.23.84a24.29,24.29,0,0,0,6.51,3.08l-.1.42-1.81-.1,3.13,4.26-1.3-.56,2.37,4.24-.19.16-1.31-1,.61,3-.78-1v2.35l-.76-.61.13,1.59-.18.17-.33-1-.35.21c-1.54,4.93-5.21,10-1.78,15.91l.35-.09,0-.54,5.92,1.41-.94.21.86,1c-1.28-.43-3.28-2.38-5.17-.33,1.62,1.87,4.09.58,5.78,1.93l.15-.36-.81-1.28,1.39,1.21-.18.51c-2.18-.4-6.39-.17-3.74,4-.78-.4-2.23-3.87-4.32-2.4.29,1.75,1.95,2.19,4.42,3.35l-.13-1,.29,1.23a4.3,4.3,0,0,1-2.43-1,72.3,72.3,0,0,0-3.56,14.06l.46.33c3.41-2.91,5-10.16,11.07-10.93l.53.54-1.56.94c1.36,1.8,8.16-5.81,6.12-8.67l1.17,1.71c-.3-1.49-.35-2.16,2.56-2.34l-.51,1.94.88-1,.27.06c-1.92,3.32-.72,6.16,3,9.25l.43-1.63.79.52c.26-.41.54-.82.81-1.23l.23.08v.67c1.26.32,1.93.18,1.34,2.76l.72.29-1.58.89c.85.78.75,1.57,0,2.59l1.45-.3c0,1.22,1,1.32,2,1.4l-.37,1.75.15.08L220,100c-1.57,8.33-1.79,18.1-3.29,26.78l-.64-2.43c-3.64,3.16-6.74,6.27-7.05,11.11l1.44.36.23-.72.34,0,.55,2.23c-.62.45-1.06.76-1.5,1.09,0-.45,0-.9,0-1.35-1.51.79-1.51.79-.91,1.94l.95-.63c-.56,1.35-.92,1.38-2,.15-2.13,2-3.86,2-7.39,3,1.24,1.45-1.91,3.66-.93,5.06a9,9,0,0,0,1.44,6.08l-.9-1.16c-.7,5.17,4.65,10.67,6.42,15.94l-.2.11.07-1.28.4.95c-.08-6.48,2.63-12.87,4.56-19.72l2.58,3.27,1.41-1.3c-1.81-2.68,2.45-5.22,1.18-7.86a8.93,8.93,0,0,0,1.55-6.1l-1.47.64.53-5c3,.12,1.75-1,4.94-1.85L221,132.27l-.87-.54L219,133.42c3.91-1,6.81-2.46,8.91-6.91.85,5.54-3.48,7.66-8.48,8.73,1.46,1.58,1.24,3.5-.49,4.5l-.14-1.32c-.24.63-1.17,1.5.13,2.2L218,141c1,1.58.13,1.55.51,4.66l-.83-.77.26-2.12c-.42.34-2.48,3.63-1.05,4.64A5.43,5.43,0,0,0,216,151l.46.08.41-3.68c1,.41,0,.18.82,1.94l-.79.57c.66,3.5,1.1,6.78,4.85,10.5l-1.8-1.13-.19.17c3.07,3,5.14,13.94,9.73,12.7l-.17-1.52.43-.06q1.64,10,3.25,20c-.21-.77-.43-1.54-.65-2.33l-2.49.37.68,4.05L233,192v-1.56l1.33,6.87-2.81.68.21,1.65,2.8-.54c1.59,10,3.22,20.24,4.85,30.48l-2.39.15.46,2.76c1.08-.27,2.2-.26,2-1.75l1.69,9.7-.25.05-.29-1.26-2,.43c1.53,10.24.41,22.35-4.16,32.27-9.74-14.56-13.62-32.19-17.08-49.54-2.78,10-9,11.77-3.13,22.61l-.82-.46-.37.07c2,2.07,1,4.59,1.23,6.77-1.51,0-5.23.73-5.51,3.42l6.92.89.2-1C217.84,262.69,229.41,274.32,213.15,274.87Zm-76.5-115.62L133.07,161l.18.37,7-3c-.91-.28-1.49.21-3.62.92.94-.67,2.09-1.2,1.8-3.13-.94,1.37-1.73,2.8-3.52,1C134.87,158.3,134.56,159,136.65,159.25ZM127,152.43c-1.2-.53-1.35.34-1.61,1.16l1.13.58-.63.3c1,0,3.14,1.29,4.95.15-.4-.28.23-.21-1.72-1.52.75.27,1.48.84,2.51.36C130.73,153.55,127.73,151.05,127,152.43Zm57.07,9.33c-3.33,5.73-2.48,13.75.89,20.26-3.44.31-6.12-1.8-9.44-2.48,3.32,2.35,7.5,3.57,10.06,3-5.7-10.16-1.63-19-.62-27.75A30.28,30.28,0,0,0,184.05,161.76ZM204.83,198c3.76,4.83,4.81,11.78,5.46,18.42,3.17.27,5.82-1.51,6.56,4.14l.37-.12c-3.58-16.6-7.2-33.2-9.67-50.39-.55,3.92-3.19,1-5.67-.78-5.33,1.1.9,25.22,2.35,27.2l-1.89-2.62c-1.06,6,2.78,10.79,6.32,16.23A28.59,28.59,0,0,0,204.83,198Zm-7.9-64.14c-.85,2.34-.85,2.34.11,3l1-3.46-.87,0,1.08-.52v1.35c1.4.6,5.54-5.39,3.78.15,3.57-.93,4.32-.81,4.66.81,3.61-5.64,5.23-14.87,1.05-21.66.42-2,3-6.84.29-9.26l-1.5,1v-1.09l-1.1.17c1.67-2.64-1.5-4.83-3.89-7-.64,2.12-1.26,4.17-1.87,6.21l-.17-1.07c-2.55,2.48-2.35,6.84-3.76,10.82l.22.1,1.14-1.8c-1.05,4.22-4.92,7.59-5.55,12.59l.58-1,.33.12c-.13,1.31-4.07,9.6-.11,8.49l.82,1.39v-1.86h.12l.6,3.74Zm-16.78-6.52c-1.05-16-20,11.38-14.54-26.43-4.4,5.26-9.72,4.87-4.17,12.64l-.29.16c-.68-3.79-11.53-14.91-13.09-6.3,5.16,8.92,17.07,20.15,25.5,17.83,1,.52.13,1.36,1.17,3l.44-.1.94-3.31.4.07v3l.61,0a7,7,0,0,0-.86-5.41C178.25,123.44,178.61,125.84,180.15,127.34Zm19.38,48.19c-21.47,4.9-3.1,42.79-.82,19.22C201.12,188.35,200.72,182.67,199.53,175.53Zm-28-30.89c6.14,6.82,1.75-15.66-6.57-1.11,1.64.25,1.69,4.15-.9,2.71l1.38,1.1c-.73,1.82,0,2.35,2.85,2.55C170,148.43,171.66,148.07,171.51,144.64Zm40.38,120.58.45,0c.4.61.11,3.37,2,4.1a6.2,6.2,0,0,0-.22-3.76l.51-.13c.31.67.11,3.2,2.35,3.28l-.41-3,.47-.17,1.19,2.56.37-.05.26-2.74,1.25,1.92c1.43-8.74-18-5.83-9.3,1.72C212.27,268.76,212.19,268.88,211.89,265.22ZM181.5,88.93l-.26-.24.41-1c-2.18,1.46-3.79-.9-6.08-.92,1.41,2.82,1.07,6,2.74,9.72,2.92-4,7.48-6.52,9.9-11.16A6.8,6.8,0,0,0,181.5,88.93Zm35.7,27.64c1.21-3.85,2-7.6,1.36-11.74C215.64,107.22,211.9,114.41,217.2,116.57Zm-32.95,19.7c2.07-1.05,6.06-9,1.17-8,.19,1.4-.85,1.59-1.62,1.72-.34,1.62-2.24,4-1.12,6.41.57-.58.65-1.91,2.1-1.36Zm20.88,33.45c-2.41-4-4.81-8-7.44-12.42C196.66,160.82,201.92,167.84,205.13,169.72Zm-11.7-69c-1.29,2.24-5.28,3.36-4.88,6.85C192.8,107.7,193.57,104.94,193.43,100.73Zm-11.82-16.9c3.29,0,3.72-3.25,4.12-6.71C183.69,79.1,181.8,80.72,181.61,83.83Zm58.76,154.86c-.34-2.12-.65-4.1-1-6.09l-.37-.23c-2.13,1.22-.7,3.83-.35,6.86ZM209.32,95c1.39,1.77,4.61-1.07,2.81-3.3C210.11,91,209.37,91,209.32,95Zm-14.43,11.22c-1.44,1.59-5.41,2-5.18,5.37C192,111.4,194.34,109.14,194.89,106.21Zm3,44.18c1.29-4.24-2.61-8.39-3.78-13.34l-.37.12C195.58,141.34,195.38,146.13,197.86,150.39Zm31,31.74.54,3.55,2.56-.44-.65-3.59ZM191.21,92.31l.39-.22c-.85-.85-.52-4.33-3.31-4.37C187.45,89.46,189.36,91.29,191.21,92.31Zm-18.6,2.19.38.26c.75-1.22,4-2.32,3.26-4.91C174.42,90,174.78,91,172.61,94.5Zm23.25,59.88c-1.31-1.17-2-4.1-4.63-4.06l3.74,5.16ZM169.61,91.23l.41.39c.94-1.05,3.93-1.59,4.46-4C172.57,87.22,171.4,89.47,169.61,91.23Zm14.83,3.88.46-.07C186.94,90.08,181.26,87.2,184.44,95.11ZM164,135.16c1-1.69.16-3.07-.45-4.62C161.78,132.9,161.93,134.32,164,135.16ZM216,98.8c-.67,1.58-2.08,2.86-2,4.91C216.8,101.92,217.19,101,216,98.8ZM174.51,84c-1.47-.94-4,.8-4.75,3.24C171.14,85.88,173.45,85.89,174.51,84Zm64,142-.49-2.81-2.21.45.56,2.89Zm-1.21-7.56-.45-2.49c-2.44.4-2.58.69-1.56,3.09ZM190.11,114.1c1.82-.48,3.39-1.24,3.92-3.51C192,111.22,191.07,112.66,190.11,114.1Zm3.95.29c-.73-.38-2.95.2-2.57,1.21C192.61,117.1,193.73,116,194.06,114.39Zm-5.86,14.66c-.12,1.65-.92,2.78-.13,5.27l.42-.1C189.36,132.54,188.82,131,188.2,129.05ZM172.13,177.9l.2-.39L165.39,174l-.23.45Zm17.34-37.8,1.31.77c.63-1.56.54-2.9-.19-3.54Zm-46.73,15.06c-.89.4-2.1,2.64-1.66,3.83C142.44,159.51,142.15,157.24,142.74,155.16ZM213.84,185l-1.62-5.39-.95,1.84C213.27,181.75,212.11,184.31,213.84,185Zm-19.59-39.16.54-.14C195.41,142.8,191.25,142.36,194.25,145.86Zm-52.9,3.1a6.66,6.66,0,0,0-4.15,1.26A7.25,7.25,0,0,0,141.35,149Zm24.47-49.11,1.54,3.44C168.07,101.07,168,101,165.82,99.85Zm23.3-15.32-.09-.39c-1.84.72-4,.08-5.72,1.23l.08.37ZM208.4,247.45l3.2-.78C208.8,245.42,208.78,245.43,208.4,247.45Zm-40.88-95L165,151l-.61.75A2.55,2.55,0,0,0,167.52,152.46ZM189,135.14c-.47.05-.52,5.36.84,2A11.48,11.48,0,0,0,189,135.14Zm12,1.17-.32-.15c-.4.69-1.23-.06-2.06,2.1C199.74,138.35,199.86,138.17,201,136.31ZM187.64,79.49c.9,0,1.62-1.79,1.45-3.51Zm27.5,108.79,1.31-1.21c-2.16,1-2.46-1.28-3.8-1.81ZM190.89,92.75l-.28-.06-1.48,6.89.26,0Zm39.65,88.38.58-.06-.76-4.26-.35,0ZM142.6,154.41l-.11-.32-4.34,1.38.13.37Zm42.52-91.59,0-.39-2.27-.52-.42,1.19Zm5.67,14.49h-.32c.07.67-.89.75-.32,2.48C190.83,79.36,191.07,78.84,190.79,77.31ZM220,271c-.69.08-2.27,1.17-.31,1.71Zm-4.24-117.84c-1-.06-1.38.83-1.14,2.81ZM170.21,92.84l-.37-.06-1,5.09.3.06Zm45.52,61.89a3.29,3.29,0,0,0,1.19-3.42Zm-3.69,86-.35-.09-.94,1.46,1.48.75ZM217.25,155l-.38.25,2,2.83.38-.26Zm-9.83-61.67.37.22,1.56-2.7-.37-.22ZM187,110.44l.36,0,.69-4.13-.25,0C187.55,107.68,187.29,109.06,187,110.44Z" transform="translate(96.64 -37.83)"/><path d="M162.29,219.59l4-1.71L165.27,214l.29-.09c2.33,6.81.87,11,9.74,7.17,5.22-.46,3-5,3.68-9.3.25,7-.2,3.11,5.92,6.73.87,1.43-1.75,13.32-5.94,11.49-2.18,5.81,1.34,12.18.08,18.46-3.61,2.06-7.21,3-10.9,1.57a86.78,86.78,0,0,0-.75-14.15l.67.09c-.22-1,.62-1-.27-3.88l-.87.75c-1.19-1.14-3.94-.71-4.73-3.3l.76.27c.09-.36,0-1.12-1.4-1.23l-.14.68c-1.39,0-3-.92-2.18-2.79-1-.36-1.9.13-2-1.6,1.2.4,1.78,0,1.63-1.25,2.27-.44,2.27-.44,2.6-2.86h1.28Zm15.83,14.82c-4.05.7-11.19,7.54-5.48,11C179.77,245.11,178,239.63,178.12,234.41ZM169,245.76l0,.49c.42-.39.11,1.32,2.06-.22C170.65,245.69,170.21,244.17,169,245.76Zm10-1.86c-1,1.3-.44,2.24,0,3.18Zm5.18-21.64-.66-.11-.29,2.28.56.08Zm-6.77,11.16.69.14.35-2.11-.58-.12Z" transform="translate(96.64 -37.83)"/><path d="M167.75,265.64c-3.65,3.27-11.4,3.6-16.67,2.68l2.08.16v-1.82c-1.94-.38-4-.6-5.08-2.63,1.82,2.06,4.29,1.75,6.64,1.84l-2.61-.57,0-.27H158a8,8,0,0,0-.84-4.48c1.93-1.6,2.63-3.7,6-4.22l-1-.94.2-.26,3.08,2.51c1.34-.52,2.83-3,5.29-2.51-.13,1.85-2.16,3.12-4,4.95l-.38-.27.29,3.23c8.22,1,5.45-10,12.45-13.16l.53,4.38c-2.51,1.77-3.79,4.57-4.21,7.88,2,.71,3.48-.51,4.85-1,.79,4.41-.2,6.07-6.22,6.11l-.7-3.59c-2.13-.14-1,.8-1.2,3.12-1.38-.39-2-2.87-4-1.34l2.7-1.48C170.4,264.38,166.51,264.16,167.75,265.64Zm-6.86-.6c4.06.33,4.47-5.53-.75-5.24Zm14.48-6c-1.24-.37-4.41,2.87-1.44,3.78C175.06,262.69,175,262.14,175.37,259.05Z" transform="translate(96.64 -37.83)"/><path d="M161.82,87.7c-.47,4.2-4.7,6.22-7.58,9.44C155.88,94,159.69,91.34,161.82,87.7Z" transform="translate(96.64 -37.83)"/><path d="M119.85,157c-1.87-.37-3.6-1.5-5.6-1,.37-.63.37-.63,3.81-1.48l-.68.88.12.28,1.24-.22-.24.85,1-.44.28,1.19Z" transform="translate(96.64 -37.83)"/><path d="M163.79,207.34l-1.52-7.68c.82,1.64,1.84,3.68,2.87,5.72l-.23.12-1.25-2-.25.05.47,3.81Z" transform="translate(96.64 -37.83)"/><path d="M119.82,157l1.1-.64c.42.86.26,1.14-1.29,2.27.07-.53.15-1.1.22-1.67Z" transform="translate(96.64 -37.83)"/><path d="M120.43,152.32l3.54-1.11.11.33-3.55,1.1Z" transform="translate(96.64 -37.83)"/><path d="M167.54,146.39c-.35-1.85,4-2.24,2.8.38C169.57,147.81,168.23,148.2,167.54,146.39Zm1.67,1c1.22-.53.48-3.24-.83-1.1C168.4,146.42,168.46,146.57,169.21,147.37Z" transform="translate(96.64 -37.83)"/><path d="M178.37,89.67c-2,8.36,7.37-.87.11-.1,4.65-3.76,3,8.42-.84,4.06C177.6,92.43,176.35,91.43,178.37,89.67Z" transform="translate(96.64 -37.83)"/><path d="M171.86,242.9c.91-1.52,4.1-3.38,3.09.71C174.08,245,173.34,244.64,171.86,242.9Z" transform="translate(96.64 -37.83)"/></g></g></g></svg>