<svg xmlns="http://www.w3.org/2000/svg" viewBox="0 0 25 30"><title>home-white</title><g id="eaaf1077-57f5-415e-91bb-293563d4a737" data-name="レイヤー 2"><g id="b0b97871-c2de-4127-803b-e7f850d03aba" data-name="レイヤー 1"><path d="M24.46,10.34,13.64.42a1.77,1.77,0,0,0-2.31,0L.54,10.37A1.71,1.71,0,0,0,0,11.61V28.26A1.74,1.74,0,0,0,1.75,30h21.5A1.74,1.74,0,0,0,25,28.26V11.57A1.67,1.67,0,0,0,24.46,10.34ZM16,28H9V16h7Zm7,0H18V15.46A1.4,1.4,0,0,0,16.67,14H8.33A1.4,1.4,0,0,0,7,15.46V28H2V11.7L12.5,2,23,11.67Z" fill="#fff"/></g></g></svg>