<svg xmlns="http://www.w3.org/2000/svg" viewBox="0 0 1366 470"><title>indonesia-map</title><g id="f982387f-d608-4603-acee-77b97beb0531" data-name="レイヤー 2"><g id="f16b9e19-e29f-40d8-be5a-d9ad9743a1bb" data-name="レイヤー 1"><path d="M891.62 206.29c-2.1-.8-4.86-.48-7-.11s-4.24 1.16-5.58 3.18c-1.11 1.7-.19 3.69 1.25 4.76 1.6 1.2 3.66 1.12 5.57 1.22a27.33 27.33.0 0 0 5.79.0c2-.34 3.44-2.62 3.44-4.53A4.88 4.88.0 0 0 891.62 206.29z" fill="#fff"/><path d="M916.73 213c2.09-1 1.67-3.91.0-5-2.39-1.57-5.35-1.2-8.11-1.2a31.35 31.35.0 0 0-8.57 1 2.6 2.6.0 0 0-1.81 1.82 2.11 2.11.0 0 0-.08 1.14 2.25 2.25.0 0 0 .08.24 2.61 2.61.0 0 0 1.81 1.82 57.09 57.09.0 0 0 8.57.75C911.5 213.7 914.07 214.26 916.73 213z" fill="#fff"/><path d="M912 224.7a9.28 9.28.0 0 0-4.27-7.94c-1.81-1.29-4.46.06-5 2a12 12 0 0 0 1.28 9.33 23.78 23.78.0 0 0 3 4 5.27 5.27.0 0 0 4.7 1.8 3.28 3.28.0 0 0 3.22-3.22 6.33 6.33.0 0 0-.51-3.32A19.08 19.08.0 0 0 912 224.7z" fill="#fff"/><path d="M1365.76 297.63c.42-25.45.2-50.91.0-76.37.0-6-.93-11.48-8.61-12-3.36-3.13-7.46-4.36-11.94-4.71a106.6 106.6.0 0 1-40.47-11.66c-10.09-5.11-20.5-9.61-30.88-14.13-7.16-3.11-26.22 2.44-26.52 8.35-.47 9.57-6.76 9.52-13 10.56-4 .66-9.31.42-11 4.48-4 10-13.55 15.24-19.41 23.66-5.18 7.44-15.43 9.67-20.19 4.78-.49-.5-1-1-1.41-1.57a25.9 25.9.0 0 1-2.17-4.91 101.36 101.36.0 0 0-3.52-10.38 17.87 17.87.0 0 0-1.84-4.09 2.76 2.76.0 0 0-1-1.38v-.07a1.22 1.22.0 0 0-.86-.43v.09a2.15 2.15.0 0 0-2.54 1.49 19.88 19.88.0 0 0-.34 2.51 21.57 21.57.0 0 1-.63 2.73 16.16 16.16.0 0 1-.7 2 8.16 8.16.0 0 1-.73-.65 12.59 12.59.0 0 1-1.52-1.84c-.47-.71-.93-1.42-1.35-2.16a8.93 8.93.0 0 0-.75-1.15v0c-4.65-8.26-9.3-16.85-6.55-26 2.83-9.48 2-17.15-1.68-25.83-1.71-4.05-3.39-6.05-7.41-6.06-9.81.0-18.53-3.43-27-8.06-9.4-5.13-18.68-4.56-27.72 1.4-3.64 2.39-7.43 4.91-11.52 6.15-7 2.13-11.14 6.43-14 13.08-3.27 7.65-3.6 6.91 4.8 8.22 7 1.09 15.49.94 18.51 9.8 4 11.83 9.09 15.77 22 16.22 11.85.4 23.58-.54 35.15-4.16 1 2.39-.63 4.11-.63 6.07.0 5.95-3.63 8-9.34 5.93-3.94-1.41-9.41-3.7-11.82-1.16-8 8.48-17.86 7-27.61 7.32a8.17 8.17.0 0 0-2.55.58 2.94 2.94.0 0 0-1 4.93c2.67 2.51 6.43 3.1 9.5 4.62 10.64 5.29 12.39 8.39 11.44 20.17-.41 5.05 1.43 9.22 6.62 11 5 1.67 8.47-.81 11-4.9a34.37 34.37.0 0 0 4.57-13.05 3.62 3.62.0 0 1 1.43-2.46c1.71-.87 1.94.89 2.61 1.89 6.39 9.72 15.62 14.07 27 14.07 2.66.0 3.93.08 5.27 3.44 2.67 6.65 8.36 11.92 15.67 12.22 14.25.57 27.17 4.82 39.79 10.94 3.9 1.89 8.19 3.69 12.43 4 10.68.87 17.84 8.46 26 13.56 5.71 3.54 12.28 10.25 13 16.23 1.31 10.37 6.82 17.41 12.29 25 1.6 2.24 3.58 4.1-.23 6-.79.39-1.58 1.41-1.52 2-1.49 2-1.73 4.27.53 6.66 1.37 1.45 3.25 2.24 4.57 3.81.19.23.36.48.54.73a7.06 7.06.0 0 0 .83 1.24c.31.51.59 1 .88 1.56 4.54 5.37 5.75 12.63 5.59 19.7-.08.57-.17 1.14-.26 1.72-.6 4-.3 8.47 4.75 9 4.58.45 9.29-3.51 12.82-6a41.91 41.91.0 0 0 5.58-4.48 13.49 13.49.0 0 1 2-.46c8.11 12.88 20.61 20.83 29.81 31.75 6.93-1.76 5.07-7.65 5.14-12.08C1366.27 363.85 1365.2 330.74 1365.76 297.63z" fill="#fff"/><path d="M699.69 240.86c-2.22 4.47-3.08 10-1 14a6 6 0 0 0 2 2.22c1.29 3.33 4.48 3.29 12.31 3 3-.11 5.32 1.06 5.86 3.87 2.12 11 6.55 21.78 2.22 33.37-2 5.49-4.17 11.15-4.3 17.18-.2 9.57 5.84 14.32 15 11.93 3-.77 5.94-2.34 8.9-2.33 5.49.0 6.9-2.18 5.2-7.08-2.09-6.07-.22-12.25-.5-18.3-.78-16.79 5.13-33.83-1.87-50.43-1.86-4.41 1.44-7.1 4.78-9.45 4.54-3.2 9.69-4.54 14.53-2.13 3.51 1.74 3.06 6.16 2.45 9.8-.42 2.55-.84 5.1-1.51 7.59-1.94 7.17-.07 12.73 6.7 16.2 8.86 4.55 14.4 10.07 9.84 21.35-2.07 5.13 2.23 8.42 7.31 9.84 4.76 1.33 8 .39 9.21-5 1-4.53 4.62-5.82 8.67-6.36 3-.41 6.33.0 8.95-1.89 2-1.41 5.88.39 6.2-3.33s-2.4-5.5-5-7.93c-6.61-6.25-15.6-11.66-11.29-23.65 1.63-4.52-.22-9.29-3.59-12.88-7.17-7.64-11.35-17.9-20.92-23.5-2.71-1.58-4.16-4.41.72-5.85 13.39-4 25-10.58 33.32-22.25 3.76-5.25 8.74-7.8 15.42-5.42 3.17 1.13 6.43 1 7.51-2.93 1-3.82-1.15-6.47-4.42-8.06a9.53 9.53.0 0 0-10.87 1.42c-3.28 3-6.79 3.19-10.66 3.14-3.1.0-6.29-.05-9 1.46-5.2 2.83-10.35 4.12-16.24 2-3.42-1.25-6.59.31-8.93 3.09-2.15 2.57-4.13 5.27-6.23 7.88-6 7.48-14.07 6.82-18.38-1.65-1.32-2.6-2.65-4.9-5.31-6.36-7.86-4.28-10.63-11.72-11.27-20-1-13.46 8.74-25.42 19.91-24.39 16.72 1.53 33.38.92 50.07-.28 8.54-.61 17 0 25.08 3.09 23.47 8.85 52.73-7 58.44-31.6.56-2.43.78-4.77-1.35-6.36-2.51-1.87-5-.8-7 1.06-4.5 4.22-8.81 8.65-13.28 12.92-5.29 5.07-11.05 9.37-18.73 9.78-9.87.53-20-.78-29.51-1.53-11.6-.91-23.49-4.2-35.52-5-1.64-.11-3.35-1.22-4.77-2.24-10.36-7.47-13.3-7.13-21.58 3.2-1.71 2.14-3.41 4.13-5.51 5l-3.23-.51c-1.13-.18-2.39-.49-3.63-.62a2.71 2.71.0 0 0-2.29.08h-.24c-1.86.51-2.91 2.26-3.91 3.76s-2.12 3.31-3.07 5a72.07 72.07.0 0 0-6.93 17.87 65 65 0 0 0-2.6 13.39 68.4 68.4.0 0 1-5.12 14.63c-.25.52-.53 1.05-.82 1.58a24.8 24.8.0 0 0-3.53 6.76 14.77 14.77.0 0 0-1.27 4.95 50.28 50.28.0 0 0-.61 10.23c.29 9.77-3.79 19-9.11 26.21C702.59 234.26 700.29 237.41 699.69 240.86z" fill="#fff"/><path d="M1045.11 243.31c-9.93-2.77-20-8.37-30.08-6.87-6.35.94-12.41 1.59-18.68 1-4.62-.42-9.21-.95-13.79.0a15.16 15.16.0 0 0-7.76 3.84 20.88 20.88.0 0 0-3.1 2.74 24.9 24.9.0 0 0-2.59 3.28c-.77 1.16-1.5 2.54-1.06 4a2.62 2.62.0 0 0 2.92 1.88c1.29-.24 2.3-1.4 3.46-2a10.38 10.38.0 0 1 6.61-.78c.61.58 1.28 1.25 2.05 2 3.1 3.11 6.33 3.82 9.45 1 4-3.68 7.53-3.73 12.29-1.11 3.63 2 8.6 4.83 12.35 2.13 6-4.31 10.48-1.85 15.52 1 5.58 3.16 11.25 6.19 16.94 9.15 1.93 1 4.1 3.46 6.09 1.81s1.93-4.86.78-7.22C1053.6 253.15 1051.51 245.08 1045.11 243.31zm-74.39 6.95.06-.28a1.27 1.27.0 0 0 0 .2z" fill="#fff"/><path d="M828.51 401.73c-1.32-.27-2-.13-2.22.24a2.15 2.15.0 0 0-.87.32c-2.82 1.86-6.89 6-6.76 10-5.51 3.71-11.15 6.72-18.53 1.08-.92-.71-3.17-.42-4.44.18-8 3.75-15 1-21.9-2.81-10.32-5.72-20.42-7.2-31.27-.59-3.75 2.28-6.47 4-5.8 8.5.75 5 5 4.44 8.47 4.62 16.14.88 32.18 4.39 48.51 2 9.15-2.42 18.36-4.62 27.43-7.34 4.71-1.41 6.7-6.15 9.26-9.85C831.86 405.93 831.71 402.39 828.51 401.73z" fill="#fff"/><path d="M676.48 426.87h-.06a4.62 4.62.0 0 1-1.8-2.35c-.84-.61-1.67-1.25-2.53-1.88-5.87-4.28-12.55-6-19.62-3.34-5.17 1.93-5.91 6.67-6.2 11.46-.35 5.41 4.32 8.69 11.85 8a79.51 79.51.0 0 0 16.81-3.27A4.92 4.92.0 0 0 676.48 426.87z" fill="#fff"/><path d="M714.48 418.54c-.75-3.93-2.6-7.76-7.15-8-8.37-.37-17.18 2.19-23.89-5.8-1.56-1.86-5.16-1.63-6.84.9-2 3-.06 5.42 2.46 7.08a35.9 35.9.0 0 0 4.18 2.17c2.24 3.84 3.63 8.4 7.37 11.2 3.9 2.93 10.83 3.28 14.06-.69 1.53-.63 3.08-1.37 4.69-2C712.2 422.43 715.22 422.45 714.48 418.54z" fill="#fff"/><path d="M887.58 428.69c-2.35-.87-4.9.68-7.1 2.2-5.36 3.69-9.9 6.52-16.16 8.53l-.13.05c-.4-.07-.8-.14-1.21-.25-1.15.8-2.25 1.6-3.3 2.42a19.46 19.46.0 0 0-4.8 4.47c-3.83 4.43-5.67 9.86-3.72 17.87 1.66 6.8 4 6.64 8.6 5.25 9.59-2.92 18.06-7.4 25-14a40.79 40.79.0 0 0 7.68-7.13c1.19-1.48 2-2.83 1.5-4.32a.91.91.0 0 1 .08-.13c-1.18-1.91-3.66-4.24-2.18-6.1C898 429.84 892.49 429.5 887.58 428.69z" fill="#fff"/><path d="M763.6 455.78c-11.31-6-18.68-21.48-35.23-15.9-3.07.18-6.16.2-9.21.6s-6.79 1-7.09 4.69c-.32 4 3.32 5.34 6.59 6.41a6.47 6.47.0 0 0 1.48.39 38.4 38.4.0 0 1 25.65 12.49c4.48 4.77 10.56 5 16.35 1.71C767 463.38 768.42 458.36 763.6 455.78z" fill="#fff"/><path d="M932 242.72c-4.3.22-6.62.26-8.92.49-8.09.81-9.83 4.39-5.5 11.16 5.82 9.09 18.49 12.82 27.88 8.28 5.67-2.74 6.65-6.76 3.36-11.94A16.92 16.92.0 0 0 932 242.72z" fill="#fff"/><path d="M828.85 299c2.52-2.31.44-7-2.24-8.71-3.34-2.15-5.18 1.35-5.79 4-2 8.75-3.65 17.55-7.56 25.77-1.35 2.84-.38 5.68 3.27 6.44 2.12.44 12.13-9.18 12.05-11.41a4.36 4.36.0 0 0-.47-1.44C824.11 308.59 823.26 304.16 828.85 299z" fill="#fff"/><path d="M1169.46 269.46c-1.2-6.22-3.28-6.26-8.86-3.59-6.27 3-3.5 8-4.31 12.21-1 5 3.57 11 8.73 10.83 5.83-.19 4.31-5.18 4.83-8.7.14-1 0-2 0-5.19A32.11 32.11.0 0 0 1169.46 269.46z" fill="#fff"/><path d="M1045.3 138.35c3.73 2.27 11.35 4.6 11.6 3.88 3-8.54 6.77-.79 9.89-.74 1.9.0 3.63.22 4.64-1.65 1.09-2.05-.48-3.32-1.65-4.63-3.4-3.83-8.2-3.63-12.68-4.49-1.76.27-3.52.52-5.28.81-3 .47-6.3.21-7.86 3.62C1043.31 136.56 1044.16 137.66 1045.3 138.35z" fill="#fff"/><path d="M812.48 296.8c-3-.32-4.84 1.56-5.65 4.17-1.19 3.87-2.08 7.84-3 11.79-.53 2.24.15 4 2.36 5 1.72.75 3.94 1.23 4.81-.62 2.24-4.78 4-9.78 5.72-14.15C816.38 299.63 815.6 297.14 812.48 296.8z" fill="#fff"/><path d="M937.08 385.52c-3.92 1.11-7.71 2.56-11.91 2.59s-8.72 1.74-8.28 6c.38 3.66 5.24.69 6.74 1.29 6.77.93 11.84-.2 16.31-3.78 1.47-1.18 4.48-1.48 3.22-4.22C942.05 385 939.37 384.87 937.08 385.52z" fill="#fff"/><path d="M1189.7 160.09c1.58 2.64 4.6 3.49 6.53 6 2.47 3.22 4.57 6 9 6.18a3.88 3.88.0 0 0 .69.0 9.19 9.19.0 0 0 5.12.0c2.46-.63 3.76-2.28 1.63-4.4-5.56-5.56-10.61-12.15-19.84-11.65-1.38-.12-3.12-.61-3.87 1.21A2.29 2.29.0 0 0 1189.7 160.09z" fill="#fff"/><path d="M1157.08 291.42a4.74 4.74.0 0 0-2.95-.31 3 3 0 0 0-1.24 1 5.63 5.63.0 0 0-1.25 1.82 11.93 11.93.0 0 0-.91 2.68 10.3 10.3.0 0 0-.24 1.79 2 2 0 0 1-.36.16c.11 3.3.94 6.09 4.63 6a7.89 7.89.0 0 0 7.23-4.63 9.26 9.26.0 0 0-2.11-6.54A7.36 7.36.0 0 0 1157.08 291.42z" fill="#fff"/><path d="M978.28 201.56c1-2.05-8.6-7.8-12.31-7.45-4 .37-7.27 2.66-7.17 6.55.13 5.83 5.19 4 8.81 4.4C971.18 203.91 976.13 206.19 978.28 201.56z" fill="#fff"/><path d="M873.18 406.93c-.48 4.18 3 4 5.76 4.23a12.84 12.84.0 0 0 3.82-.07c4-1 10.85.34 10.8-4.52.0-5.2-6.68-2.08-9.36-3.06-2.17-.23-3.45-.33-4.72-.5C876.28 402.58 873.57 403.46 873.18 406.93z" fill="#fff"/><path d="M985.64 91.16c6.07-1 6.88-5.86 7.68-10.44-.29-2.57-.25-5.08-3.49-5.2-3.47-.13-8.72 7-8.38 11.45C981.65 89.49 982.66 91.63 985.64 91.16z" fill="#fff"/><path d="M1023.36 222.94c1.5.32 3 .42 4.33.59 3.24-.45 6.75.17 8.55-3a4.55 4.55.0 0 0-.73-5.11c-2.58-2.89-5.76-.9-8.69-.7a10.86 10.86.0 0 0-3.7 1c-1.78.81-4.62 1.09-4.38 3.59C1019 221.47 1021.27 222.49 1023.36 222.94z" fill="#fff"/><path d="M1060.3 158.56c-2.78.15-5.1 1.48-4.7 4.7.37 3 1.26 6.07 5.49 6.63 3-.7 4.14-3 4.19-6.07C1065.33 160.54 1063.79 158.37 1060.3 158.56z" fill="#fff"/><path d="M838.67 449.21c-2.63 2-6.22 4.74-9.71 7.59a2.13 2.13.0 0 0 .27 2c3.09 2.14 5.89.26 8.46-1.12s5.17-3.46 4.63-7.14C842.15 449.37 841.18 449 838.67 449.21z" fill="#fff"/><path d="M790 314.41c.12 2.25 1.2 4 3.66 4.2 1.92.13 2.63-1.24 2.81-3-.23-2.16-.84-4.27-3.27-4.6C791 310.76 789.84 312.32 790 314.41z" fill="#fff"/><path d="M980 258.46c-3.14.0-6.13.43-8.41 4.09a1.22 1.22.0 0 0 1.28 1.83c3.44-.8 6.67.38 8.16-3.61C981.47 259.68 981.12 258.47 980 258.46z" fill="#fff"/><path d="M867 407c-2.12.52-5 .49-5.76 3.13-.54 1.91 1.36 2.43 2.91 2.8a4.19 4.19.0 0 0 4.52-3.38C869.05 408.21 868.72 406.61 867 407z" fill="#fff"/><path d="M827.29 276.49c-1.31-.09-2.67.3-2.95 1.8-.35 1.8.73 2.87 2.41 3.24s2.93-.35 3.4-2.18A2.71 2.71.0 0 0 827.29 276.49z" fill="#fff"/><path d="M638.14 414.28c-5.41-1.55-10.81 1.54-12.62 7.27-.85 2.69-.77 6.14-2.48 8-3 3.26-1.65 4.08 1.47 4.82 2.24.53 4.52.88 6.32 1.23 3.46-.54 7.75.42 8.46-3.22 1-5.17 4.75-10 2.6-15.67C641.29 415.1 639.62 414.7 638.14 414.28z" fill="#fff"/><path d="M535.58 394.78a28.75 28.75.0 0 0 3.08.0c7.67.26 14.41-3.23 21.47-5.42 1.42-.45 3.25-1 2.9-3-.33-1.77-2.13-2.18-3.66-2.19-8.19.0-16.4-.17-24.57.28-3.19.18-7.44 1.42-7.06 5.53C528.1 393.84 532.2 394.42 535.58 394.78z" fill="#fff"/><path d="M574.65 416.85C574 410 571 406.17 564.92 406c-5.1-.13-10.21.9-15.34 1.12-10.66.44-21 .92-26-12.15-1.66-4.32-3.29-11.86-8.21-12.15-12.19-.74-22.28-10.16-35-7.58-2.71.55-4.75-1.15-6.66-3.12-6-6.18-9.41-5.72-12.73 2.6-2.83 7.07-7.29 9.27-14.43 7.94a186.43 186.43.0 0 0-34.49-3.23c-6.14.0-10.92-2.16-14-7.81-3.24-6-8.63-8.34-15.25-8.87-7.23-.58-14.15-2.07-19.69-7.6-2.58-2.58-7.39-4.48-9.83-2.28a14 14 0 0 1-5.07 3c-5.07 1.65-10.17-.26-15.31-1.25-10.86-2.1-11.79-1.42-15.85 7.35-4.44 5.49-10.39 9.59-16.45 13.11-2.27 1.32-1.52 4.39.69 5.23 3.17 1.2 8 1.88 11.56.47a52.17 52.17.0 0 1 19.51 4.24c2.14.92 4.55 1.7 3.78 4.86-1.75 7.12 3.53 8 8.07 8.21 1.08.05 2.15.15 3.22.26 9 .94 17.48 3.69 25.86 6.89 10.32 3.93 20.47 6.63 31.33 1.51 2.56-1.21 6.11-.8 9.12-.45 10.48 1.23 20.93 2.82 30.57 7.47 12.17 5.88 24.8 9.82 38.42 10.31 14.85.53 29.52 4.84 44.48 2.72a42.41 42.41.0 0 1 21.88 2.54c8.12 3.16 16.48 5.74 24.72 8.59 1.22.42 2.43 1 3.66.18a1.72 1.72.0 0 0 .29-2.69C572.57 429.63 572.09 423.08 574.65 416.85z" fill="#fff"/><path d="M349.69 332.3l.2-.12C349.82 332.11 349.75 332.17 349.69 332.3z" fill="#fff"/><path d="M307.71 345.94c5 5.15 7.53 4.36 9.44-2.46a39.08 39.08.0 0 0 1.24-10.68c0-8.76-1.43-17.65-.42-26.26 1.38-11.7-2.28-24 4.2-35.15a6.68 6.68.0 0 0-.61-7.34 114.63 114.63.0 0 0-8.39-11.26 8.68 8.68.0 0 0-3.17-4.32c-4.45-3.19-10.56-1.38-13.47 3a17.13 17.13.0 0 0-2.63 11 16.71 16.71.0 0 1-9.3-5.74 12.12 12.12.0 0 1-2.87-7.53c-.91-1.28-.16-2.6.8-3.83a11.73 11.73.0 0 1 3.71-4.53c0-.08.1-.16.14-.25.95-1.38 1.52-2.77.78-4a11.24 11.24.0 0 0-1.65-5.32c-2-3.31-5.48-5.39-8-8.23a75.52 75.52.0 0 1-1.42-11.3c-.25-3-1.22-5.29-3-6.81a8.94 8.94.0 0 0-.9-1.2 12.46 12.46.0 0 0-5.21-4 30.18 30.18.0 0 0-7.37-1.91 18.13 18.13.0 0 0-4-.23h-.19c-1.47-.26-3-.45-4.42-.71-8-6.44-8.09-17.18.64-23.62 3.62-2.67 3.58-5.49 1.27-8.54-3.71-4.88-7.36-9-13.93-6.4-.69.27-1.43.63-2.18 1a2.36 2.36.0 0 1-3.26-2.06c-.14-1.8-1-3.43-2-5.29-3.2-6.23-8.52-6.59-14.26-5.78-1.33-3.14-2.51-6.4-4.59-9.4-4.48-6.45-12.23-10.53-18.54-14.9a5.43 5.43.0 0 0-3.16-1.06 98 98 0 0 0-14.17-17.7 5.69 5.69.0 0 0-8.06-.15 2.62 2.62.0 0 0-.43.27l-.48-.18a36.31 36.31.0 0 0-6.69-1.23q-5.64-3.94-11.37-7.72c-1.64-2.17-3.22-4.37-4.8-6.57-5.78-8.06-12.2-15.52-21-20.09C113.72 62.1 105.39 53.9 95.1 48.68c-1.66-.84-3.6-2.1-3.54-3.81.35-10.73-9.68-15.2-13.84-23.24-3.33-6.42-9.88-9.11-17.63-8.94-15.19.33-30.53.67-43.31-10a9.75 9.75.0 0 0-3.6-1.32C9.25.31 4.72-1.63 1.93 2.63c-2.6 4-2.62 8.32.22 13C10.9 30.08 23.79 40.84 34.71 53.35a25.06 25.06.0 0 0 4.22 4.14c3.71 2.89 7.91 5 12 7.3a45.75 45.75.0 0 1 4.64 3c1.06 1.54 2.05 3.16 3 4.81 2 3.32 4 6.66 7.41 8.77 3.83 2.38 5.6 5.94 6 10.26.54 6 3.72 10.06 9.22 12.22 14.45 5.69 23.49 16.37 27.93 31s10.25 26.8 22.29 38.12c18.08 17 29.73 39.82 37 64.16a29.14 29.14.0 0 0 6 11.56c9.5 10.43 16.87 22.79 28.64 31.2 3 2.17 5.46 5.51 7.48 8.75A62.09 62.09.0 0 0 231.33 309a151.72 151.72.0 0 1 36.33 30.06c.53 1 1.08 1.93 1.64 2.88l3.76 6.4c1.08 1.84 2 4.18 3.67 5.6 1.15 1 3 1.57 4.08.19a3.88 3.88.0 0 0 .63-2.43c.06-1.28.1-2.57.12-3.86s0-2.36.0-3.56c1.28-2 4.22-1.19 8.32 1.54 2.43 1.61 5.74 2.13 7.87-.28C301.55 341.25 304.1 342.19 307.71 345.94zm-28.95 6.36a1.24 1.24.0 0 1-.34-.22 1.28 1.28.0 0 0 .39.0.52.52.0 0 0 .25.36A.56.56.0 0 1 278.76 352.3z" fill="#fff"/><path d="M124.25 196.54c-.67-.87-2.16-1.12-2.9-1.48-3 .57-4.61 2-5.41 4.38C113.79 206 121.76 219 128.58 220c2.61.39 5.64-.69 4.59-3.3C130.44 209.88 128.79 202.52 124.25 196.54z" fill="#fff"/><path d="M57.76 86a60.68 60.68.0 0 0-13.89-9.51c-2-1-4.09-1-4.25 2.25a10 10 0 0 0 1.1 2c3.72 4.09 8.57 6.24 13.5 8.2a.86.86.0 0 1 .59.0 3.19 3.19.0 0 0 .44.13h.16c.09.0.33.0.0.0a6.37 6.37.0 0 0 .76.0h.16.0l.35-.1h.17l.31-.17.16-.11a2.73 2.73.0 0 0 .25-.23l.13-.15a3.45 3.45.0 0 0 .2-.32l.09-.18h0c0-.14.09-.28.13-.43a1.55 1.55.0 0 0 0-.21.11.11.0 0 0 0-.05c0-.11.0-.22.0-.33s-.17-.33-.26-.49A2.57 2.57.0 0 0 57.76 86z" fill="#fff"/><path d="M270.26 169.24a3.67 3.67.0 0 0 5.58-3.27v-.07c-.18-2.71-1.51-4.43-4.42-3.94-1.94.32-4.83.69-4.45 3.19C267.25 167 268.6 168.24 270.26 169.24z" fill="#fff"/><path d="M168.93 258.34a1.5 1.5.0 0 0-.12-.8 7 7 0 0 0-.91-1.44c-.17-.28-.35-.56-.54-.82a16.36 16.36.0 0 0-1.55-1.87c-.54-.55-1.23-1-1.72-1.59a.82.82.0 0 0-.35-.24l-.21-.32c-1.22-2-2-4.15-4-5.52a.78.78.0 0 0-.63-.15 3.62 3.62.0 0 0-.61-.17 1.77 1.77.0 0 0-2 1.72 4.61 4.61.0 0 0 2 4.63l.65 1a24.49 24.49.0 0 0 1.85 2.35c.24.3.56.63.72.87s.32.46.48.69.21.5.3.75a1.34 1.34.0 0 0 .26.43 13.38 13.38.0 0 0 3.49 5.14 1.71 1.71.0 0 0 2.84-1.11 15.45 15.45.0 0 0 .05-3.57z" fill="#fff"/><path d="M267.88 195.75c2.18-.46 3.92-1.55 4.06-3.92.14-2.57-1.58-3.65-3.92-3.64-2 0-3.5 1.14-3.47 3.27S265.13 195.59 267.88 195.75z" fill="#fff"/><path d="M108 172.17c-.68 3.13-1.21 5.66.08 8.23.45.9 2 .15 2.54-.77 1.63-2.67 1.43-5-.06-7.81A1.38 1.38.0 0 0 108 172.17z" fill="#fff"/><path d="M269.14 177.53a3 3 0 0 0-.44 2.5 3.86 3.86.0 0 0 .54 2.55 4.78 4.78.0 0 0 2.3 1.81 8.31 8.31.0 0 0 4.36.69 10.21 10.21.0 0 0 2.93-.48c2.7-.83 5.76-2.33 5.66-5.61a5.36 5.36.0 0 0-5.58-5.05 7.88 7.88.0 0 0-5.32 2.53A3.33 3.33.0 0 0 269.14 177.53z" fill="#fff"/><path d="M84.51 124.49c-3.11-4.84-6.81-10.31-12.59-11.91a6.44 6.44.0 0 0-8.06 6.15c0 5.66 3.74 10.46 6.82 15 3.21 4.68 5.72 9.79 10.63 12.88a6.44 6.44.0 0 0 6.79-.07 3.07 3.07.0 0 0 1.89-.13c2.74-1 3.17-3.76 3.56-6.06.11-2-2.66-6.6-5.93-10.88C86.64 127.75 85.56 126.12 84.51 124.49z" fill="#fff"/><path d="M855.15 410.21a2 2 0 0 0 1-1.73 3.26 3.26.0 0 0-.51-1.48l.18-.19a5 5 0 0 1-1.59-1.55c-5 0-8.49 1.41-11.19 5.05-.88 1.19-2.37 2.42-1.38 4 1.15 1.83 3.18 1.5 4.8.73a15.85 15.85.0 0 0 3.3-2.15c.65-.23 1.28-.55 1.89-.8A27.12 27.12.0 0 0 855.15 410.21z" fill="#fff"/><path d="M612.3 422.05h0a4 4 0 0 0-.41-.66 1.94 1.94.0 0 0-.21-.29 5.31 5.31.0 0 0-.4-.51c-3.77-4.15-8.25-7.58-14-5.67-4.55 1.51-8.79 2.52-13.08.95-2.3.0-4.78-.83-5.78 1.52-1.19 2.78 1.13 4.34 3.15 5.31 6.13 2.94 13.41 4.37 15.07 12.68.0.13.22.29.47.43a1.94 1.94.0 0 0 1.12.92 3.3 3.3.0 0 0 2.93-.86l.59-.46a18.44 18.44.0 0 0 2.47-1.61c.43-.32.82-.69 1.23-1a22.58 22.58.0 0 0 5.36-4.05C612.4 427 614.91 424.07 612.3 422.05z" fill="#fff"/><path d="M619.2 254.16c4.17-8.21 5.08-17.88 11.08-25.32 3.11-2.89 5.18-7.37 2.13-10.56-2.13-2.24-4.55-2.13-6.94-1.33a10.84 10.84.0 0 1-1.1-7.06 8.75 8.75.0 0 1 1.18-3.17c.23-1.29 1.57-2.39 2.58-3.69 7.46-9.57 18-15.47 27.37-22.61 4.3-3.27 5.77-6.33 4.79-11.66-2.06-11.18-1.21-22 4.84-31.68 1.13-.39 2.23-.8 3.3-1.2 11.71 2.05 26.07 1.13 31.82-8.22a5.52 5.52.0 0 0 2.13-2.54c1.87-4.37-3.55-6.24-6.14-8.57-7.81-7-17.27-12.13-23.67-20.78-1.11-1.5-3.76-2.77-1.1-5 7.44-6.15 3.24-11.79-.67-17.44-4.34-6.28-9.84-11.81-13.93-18.43l-.09-.26c1.18-1 2.33-2 3.45-3.06 4.52-4.07 8.9-8.73 8.88-15.21.0-9.26-11-19.07-20.58-17.93l-.57-.55c-10.66-2.31-21.6-1.4-32.37.0C604.17 19.33 600.33 24 598.67 35.4c-.86 5.84.53 13.4-2.94 17.18-7.17 7.81-11.45 16.64-15.59 26.05-1.59 3.62-4.17 6.7-4.88 11-1.8 10.58-6.2 14.49-16.68 15.69-1.53.17-3.25.0-4.51.84-9.29 6-18 3-27-1-9.63-4.31-21.79-4.66-30.47 6.64-4.06 5.29-9.7 7.25-16.23 7.34-2.06.0-4.13.0-6.19-.08-10.13 4.49-21.59 4.71-32-1.42-10-5.9-16.44-16.07-18.64-27.18-6.74.91-10.38 8.93-12.41 14.74v.11a68.33 68.33.0 0 0-5.35 13c-3.66 11.63-3.92 21.33 4.07 30.75 1.43 1.7 2.88 3.17 1.93 6.08a23.79 23.79.0 0 0 5 23.25 17 17 0 0 0 2.79 3.29 19.35 19.35.0 0 0 4.66 3.14 5.61 5.61.0 0 0 3.51 1.23 13.88 13.88.0 0 0 1.93.32 17.2 17.2.0 0 1 4.71 5.25 31.15 31.15.0 0 1 0 8.84 28.22 28.22.0 0 0-.42 7.16 20.53 20.53.0 0 0 1.91 6.1c.92 2 2 4 2.91 6a20.81 20.81.0 0 1 1 3c.86 5.69 1.06 11.52 2.22 17.14.49 2.41 1.08 4.49 4.23 4.42 12.52-.29 25 3.57 37.6-.41 3.71-1.17 5.74 1.27 6.21 4.92.3 2.3.54 4.6.75 6.9.46 5.11 2.56 6.26 6.95 3.25a17.18 17.18.0 0 1 12.47-2.74 15.55 15.55.0 0 0 8.94-1.1l.11-.06a11.62 11.62.0 0 0 4.12-3.45 7.79 7.79.0 0 1 4.68-1.72c4.42.12 4.11 3.54 5 6.75 1.8 6.68 8.78 8.83 14.93 7.13 4.91-1.35 9.58-4.55 13.84-7.79 5.74.7 9.49 5.25 10.67 13.38.3 2 .53 4.09.78 6.13.6 4.85 3.55 6.49 7.54 4.21 2.14-1.23 4.35-2.32 6.59-3.34 2.77-1.09 5.51-2.27 8.22-3.5a115.63 115.63.0 0 0 14.77-6.95l.41-.19a25.28 25.28.0 0 0 4.45-2.29c.18-.13.36-.28.53-.43C620.52 261.91 619 257.59 619.2 254.16z" fill="#fff"/><path d="M836.44 200.37a3.65 3.65.0 0 0 .58-.73 5.74 5.74.0 0 0 .85-1.11 5.28 5.28.0 0 0 .57-1.52 3.54 3.54.0 0 0 .51-1.18c-.07-2.05-1.3-2.79-3-2.7-1.92.11-3.43.85-5.45-1.07-3.52-3.35-9.23-1.51-11 2.88-.7 1.76-.84 3.56.66 4.92a3.42 3.42.0 0 0 2.44 1.72l.29.23a9.34 9.34.0 0 0 4.71 1.45 10.37 10.37.0 0 0 2-.11 5.5 5.5.0 0 0 1.91.33A5.56 5.56.0 0 0 836.44 200.37z" fill="#fff"/><path d="M1202.19 180v0h-.23a1.15 1.15.0 0 0-.87 1h-.18l.17.07a1 1 0 0 0 .16.65c3.45 5 12 6.68 17.59 7.46 4.35.6 10.13 1 14-1.49.0.0.0-.1.0-.15a3.93 3.93.0 0 0 2-2.7c1.94-1.21 2.21-4.88-.67-5.62-5.59-1.43-10.45.26-16 1.05C1212.75 181.07 1207.1 177.11 1202.19 180z" fill="#fff"/><path d="M964.64 181.92a2.93 2.93.0 0 0 2.05-2.4l.26.08q-.12-.19-.24-.42a3.16 3.16.0 0 0-.88-2.22 8.17 8.17.0 0 0-.5-1.38c-.17-.33-.37-.65-.56-1a3.07 3.07.0 0 1-1.79-3.29c0-.3.07-.57.09-.85a10 10 0 0 1-.15-1.47 2.06 2.06.0 0 1 .17-.86c-.47-4.45-4.24-4.11-8.62-3.16-1.82-1-3.38-3.49-5.79-1.7a1.66 1.66.0 0 0-.88.81 4.12 4.12.0 0 0-.34 1.14 3.36 3.36.0 0 0-.15 1.44 2.54 2.54.0 0 0 1 2 5.51 5.51.0 0 0 1.42 1.34 12.84 12.84.0 0 0 2.66 1.16l.51.2.34.16c.39.19.77.4 1.14.62.21.13.41.28.62.42a8.68 8.68.0 0 0 1.29 2.09 8.18 8.18.0 0 0 1.27 2.92C959.07 179.7 961.63 183 964.64 181.92z" fill="#fff"/><path d="M959.6 140c0 .2.0.4.08.6a95.88 95.88.0 0 0 2.91 14.22 64.54 64.54.0 0 0 4.54 11.56c2.6 7.5 8.34 14.07 15.61 16 5.84 1.58 8.92-6.36 4-9.55-4.3-2.82-8.33-5-11.52-9.27a21.73 21.73.0 0 1-3-5.52 33.53 33.53.0 0 1-1-11.07c.4-5.16 2.43-7.7 8-6q3.35 1 6.7 2a52.11 52.11.0 0 0 7.91 6.91c4.79 3.52 9.85-4.8 4.72-8.09-2.68-1.71-5.33-3.47-8-5.22a13.34 13.34.0 0 0-3.9-3.52c-4.39-2.51-3-5 .45-7.54a27.38 27.38.0 0 0 6.59-6.38c2.53-3.71 4.44-8.3.18-11.83s-7.6.23-10.61 3c-4.63 4.22-7.15 10-10.85 14.95-1.88 2.49-4.36 4.24-7.17 1.82-3.58-3.08-.21-4.78 1.9-6.52a21.48 21.48.0 0 0 6-7.33 9.4 9.4.0 0 0 1.49-3.71 20.33 20.33.0 0 0-.31-6.82c-.32-2.06-.5-4.18-.89-6.23A8.32 8.32.0 0 0 972.14 93 1.92 1.92.0 0 0 969 91.77l-.41.38a.29.29.0 0 0-.43-.05c-12.86 11.62-13.35 31.15-8.91 46.75C959.35 139.25 959.48 139.64 959.6 140z" fill="#fff"/><path d="M308 235.23a49.34 49.34.0 0 0 7.77-.45c3.51 1.86 5.2 5.07 6 10.89 1.06 7.55 4.46 11 11.44 13.21 8.08 2.55 13.19-.14 13.59-8 1.8-3.88 1.85-8.37-1.88-10.81s-7.93-1.17-11.34-4.77l-2.43-2.56c-.07-.4-.14-.8-.2-1.2l-.15-.82a28.29 28.29.0 0 0-6.49-8.6 14.75 14.75.0 0 0-7.86-3.85h-.27c-3.11-1.44-6.34-.77-9.35.64-2.75 1.3-5.76 3.11-7.61 5.58-1.67 2.23-2.19 5.57-.54 8C300.66 235.29 304.82 235.15 308 235.23z" fill="#fff"/></g></g></svg>