<svg xmlns="http://www.w3.org/2000/svg" viewBox="0 0 32 32"><title>info3-white</title><g id="bff82510-528c-4a38-bdcc-703d96cc1c4f" data-name="レイヤー 2"><g id="b9e946ae-fc9c-4b5b-85a2-257443135acc" data-name="レイヤー 1"><path d="M15.5,20c-2.94,0-3-1.93-3.08-2.56L12,7.19l1,0H12a2.91,2.91,0,0,1,.66-2.27,3.71,3.71,0,0,1,2.8-.9,3.82,3.82,0,0,1,2.86.91A2.93,2.93,0,0,1,19,7.19l-.41,10.22C18.54,18.07,18.44,20,15.5,20ZM14,7.12l.41,10.21c0,.5,0,.67,1.08.67s1.06-.18,1.08-.67L17,7.12c0-.32,0-.69-.1-.82S16.52,6,15.47,6s-1.29.22-1.36.29-.11.49-.1.81l-1,.06Z" fill="#fff"/><path d="M15.51,28A3.5,3.5,0,1,1,19,24.51,3.5,3.5,0,0,1,15.51,28Zm0-5A1.5,1.5,0,1,0,17,24.51,1.49,1.49,0,0,0,15.51,23Z" fill="#fff"/><path d="M16,32H1.05a1,1,0,0,1-.89-1.46c1.4-2.68,2.42-5.58,2.17-6.23A16,16,0,1,1,16,32ZM2.67,30H16A14,14,0,1,0,4.05,23.29C4.88,24.65,3.77,27.67,2.67,30Z" fill="#fff"/></g></g></svg>