<svg xmlns="http://www.w3.org/2000/svg" viewBox="0 0 32 32"><title>info1-white</title><g id="e474ce5c-7e26-409b-8061-42d13e1d9383" data-name="レイヤー 2"><g id="ed7d6911-6058-4488-ae43-3b292831edc0" data-name="レイヤー 1"><path d="M27,32H5.05A5,5,0,0,1,0,27V5.05A5,5,0,0,1,5.05,0H27A5,5,0,0,1,32,5.05V27A5,5,0,0,1,27,32ZM5.05,2A3.06,3.06,0,0,0,2,5.05V27A3.06,3.06,0,0,0,5.05,30H27A3.06,3.06,0,0,0,30,27V5.05A3.06,3.06,0,0,0,27,2Z" fill="#fff"/><rect x="9" y="6" width="17" height="2" rx="1" fill="#fff"/><rect x="9" y="24" width="17" height="2" rx="1" fill="#fff"/><rect x="9" y="15" width="17" height="2" rx="1" fill="#fff"/><circle cx="6" cy="7" r="1" fill="#fff"/><circle cx="6" cy="16" r="1" fill="#fff"/><circle cx="6" cy="25" r="1" fill="#fff"/></g></g></svg>