<svg xmlns="http://www.w3.org/2000/svg" viewBox="0 0 32 32"><title>info2-white</title><g id="b1e98976-df01-490a-8600-620b5d31a0ff" data-name="レイヤー 2"><g id="bf33121e-50de-40e1-a047-bb392b0910e9" data-name="レイヤー 1"><path d="M16,32A16,16,0,1,1,32,16,16,16,0,0,1,16,32ZM16,2A14,14,0,1,0,30,16,14,14,0,0,0,16,2Z" fill="#fff"/><path d="M18.88,27H14.32a2,2,0,0,1-.4-4.06H14V17.6a4,4,0,0,0-.26-1.2,2.06,2.06,0,0,1-1.72-2v-.16a2.08,2.08,0,0,1,2-2l2.91-.2a1.94,1.94,0,0,1,1.4.52,2.39,2.39,0,0,1,.7,1.7V22.9l.09,0,.14,0A2.06,2.06,0,0,1,21,25,2.09,2.09,0,0,1,18.88,27ZM14,14.39l.09,0,.26.05c1.56.28,1.63,3.08,1.63,3.11V23a1.86,1.86,0,0,1-1.62,1.9c-.14,0-.17.06-.17.07a.18.18,0,0,0,.12,0h4.56C19,25,19,25,19,25a.17.17,0,0,0-.09,0l-.14,0A1.93,1.93,0,0,1,17,23V14.22A.65.65,0,0,0,17,14l-2.84.19c-.09,0-.12,0-.13.06Zm0,2.06ZM16,10a3,3,0,0,1-3-3,3,3,0,1,1,6,0A3,3,0,0,1,16,10Zm0-4a1,1,0,0,0-1,1,1,1,0,0,0,1,1,1,1,0,0,0,1-1A1,1,0,0,0,16,6Z" fill="#fff"/></g></g></svg>