<svg xmlns="http://www.w3.org/2000/svg" viewBox="0 0 375 375"><title>lock2</title><g id="b6567f0d-cca4-47d0-b761-efff43d88880" data-name="レイヤー 2"><g id="a6aa0b32-4e68-4364-be74-7e8ef2dd2ebd" data-name="レイヤー 1"><rect width="375" height="375" fill="#636a72"/><path d="M212.69,178.87h-2.86V162.13a22.83,22.83,0,0,0-45.66,0v16.74H160.5a8.51,8.51,0,0,0-8.5,8.5v40.82a8.51,8.51,0,0,0,8.5,8.51h53a8.51,8.51,0,0,0,8.5-8.51v-40A9.33,9.33,0,0,0,212.69,178.87Zm-42.43-16.74a16.74,16.74,0,0,1,33.48,0v16.74H170.26Zm45.65,66.06a2.42,2.42,0,0,1-2.41,2.42h-53a2.42,2.42,0,0,1-2.41-2.42V187.37A2.41,2.41,0,0,1,160.5,185h52.19a3.22,3.22,0,0,1,3.22,3.22Z" fill="#fff"/><path d="M187,191a10.63,10.63,0,0,0-1.52,21.15v9.29a1.52,1.52,0,1,0,3,0v-9.29A10.63,10.63,0,0,0,187,191Zm0,18.26a7.61,7.61,0,1,1,7.61-7.6A7.61,7.61,0,0,1,187,209.3Z" fill="#fff"/></g></g></svg>