<svg xmlns="http://www.w3.org/2000/svg" viewBox="0 0 375 375"><title>lock</title><g id="ef3ba5f2-d76b-48c1-859f-77686c7bc0d7" data-name="レイヤー 2"><g id="a6fcedad-2760-4c1d-8764-68b6b9fcd454" data-name="レイヤー 1"><rect width="375" height="375" fill="#636a72"/><path d="M203.88,181H202V170a15,15,0,0,0-30,0v11h-2.41a5.6,5.6,0,0,0-5.59,5.59v26.82a5.6,5.6,0,0,0,5.59,5.59h34.82a5.6,5.6,0,0,0,5.59-5.59V187.12A6.12,6.12,0,0,0,203.88,181ZM176,170a11,11,0,0,1,22,0v11H176Zm30,43.41a1.59,1.59,0,0,1-1.59,1.59H169.59a1.59,1.59,0,0,1-1.59-1.59V186.59a1.59,1.59,0,0,1,1.59-1.59h34.29a2.12,2.12,0,0,1,2.12,2.12Z" fill="#fff"/><path d="M187,189a7,7,0,0,0-1,13.9V209a1,1,0,0,0,2,0v-6.1a7,7,0,0,0-1-13.9Zm0,12a5,5,0,1,1,5-5A5,5,0,0,1,187,201Z" fill="#fff"/></g></g></svg>