<svg xmlns="http://www.w3.org/2000/svg" viewBox="0 0 375 375"><title>lock3</title><g id="a1542e9f-b537-4304-a27c-ae324dfd3afb" data-name="レイヤー 2"><g id="a1c582b0-3cc4-4907-82bf-1b3093ebfc31" data-name="レイヤー 1"><rect width="375" height="375" fill="#636a72"/><path d="M239.31,165h-5.09V135.3a40.55,40.55,0,0,0-81.1,0V165H146.6a15.13,15.13,0,0,0-15.1,15.11v72.51a15.12,15.12,0,0,0,15.1,15.1h94.14a15.11,15.11,0,0,0,15.1-15.1V181.57A16.55,16.55,0,0,0,239.31,165ZM163.94,135.3a29.74,29.74,0,1,1,59.47,0V165H163.94ZM245,252.65a4.3,4.3,0,0,1-4.29,4.29H146.6a4.3,4.3,0,0,1-4.29-4.29V180.14a4.3,4.3,0,0,1,4.29-4.3h92.71a5.73,5.73,0,0,1,5.72,5.73Z" fill="#fff"/><path d="M193.67,186.66a18.88,18.88,0,0,0-2.7,37.57v16.49a2.7,2.7,0,0,0,5.4,0V224.23a18.88,18.88,0,0,0-2.7-37.57Zm0,32.43a13.52,13.52,0,1,1,13.52-13.51A13.52,13.52,0,0,1,193.67,219.09Z" fill="#fff"/></g></g></svg>