<svg style="cursor:pointer;" xmlns="http://www.w3.org/2000/svg" viewBox="0 0 28 32"><title>region-icon-white</title><g id="b70a0102-9d59-4e36-bcf7-7435b01d370d" data-name="レイヤー 2"><g id="eeb599c5-c793-485f-b2d5-9a157dfbb298" data-name="レイヤー 1"><path d="M14 21a7 7 0 1 1 7-7 7 7 0 0 1-7 7zM14 9a5 5 0 1 0 5 5 5 5 0 0 0-5-5z" fill="#fff"/><path d="M14 32a2.44 2.44.0 0 1-1.88-.89C10.89 30.12.0 21.15.0 14a14 14 0 1 1 28 0c0 7.14-10.89 16.11-12.12 17.1A2.44 2.44.0 0 1 14 32zM14 2A12 12 0 0 0 2 14c0 6.44 11.34 15.52 11.45 15.61l.19.2a.45.45.0 0 0 .72.0l.19-.2C14.66 29.53 26 20.45 26 14A12 12 0 0 0 14 2z" fill="#fff"/></g></g></svg>
