<svg style="cursor:pointer;" xmlns="http://www.w3.org/2000/svg" width="120" height="120" viewBox="0 0 120 120"><g fill="#fff" stroke="#707070" stroke-width="1"><circle cx="60" cy="60" r="60" stroke="none"/><circle cx="60" cy="60" r="59.5" fill="none"/></g><g transform="translate(21.374 21.374)"><path d="M25.535 27.8H9.93A1.73 1.73.0 0 1 8.2 26.148V10.466A1.746 1.746.0 0 1 9.931 8.72h15.6a1.761 1.761.0 0 1 1.746 1.746V26.148A1.746 1.746.0 0 1 25.535 27.8zM11.63 24.34H23.805v-12.1H11.661z" transform="translate(4.456 4.739)" fill="#707070"/><path d="M25.535 48.011H9.93A1.746 1.746.0 0 1 8.2 46.265V30.66a1.73 1.73.0 0 1 1.73-1.73H25.535a1.746 1.746.0 0 1 1.746 1.731v15.6A1.761 1.761.0 0 1 25.535 48.011zM11.63 44.535H23.805V32.391H11.661z" transform="translate(4.456 15.721)" fill="#707070"/><path d="M45.751 27.8H30.146A1.746 1.746.0 0 1 28.4 26.148V10.466A1.761 1.761.0 0 1 30.146 8.72H45.751a1.746 1.746.0 0 1 1.73 1.746V26.148A1.73 1.73.0 0 1 45.751 27.8zM31.845 24.34H43.99v-12.1H31.876z" transform="translate(15.433 4.739)" fill="#707070"/><path d="M33.337 35.143a1.746 1.746.0 0 1-1.746-1.731V27.341H9.96a1.73 1.73.0 1 1 0-3.461H33.337a1.73 1.73.0 0 1 1.73 1.73v7.8A1.73 1.73.0 0 1 33.337 35.143z" transform="translate(4.47 12.981)" fill="#707070"/><path d="M32.9 48.613H25.1a1.761 1.761.0 0 1-1.746-1.746V39.142a1.746 1.746.0 0 1 3.476.0V45.09h4.326V29.408a1.746 1.746.0 0 1 3.476.0V46.867A1.746 1.746.0 0 1 32.9 48.613z" transform="translate(12.693 15.12)" fill="#707070"/><path d="M37.943 35.144a1.73 1.73.0 0 1-1.73-1.73V27.342H30.14a1.73 1.73.0 0 1 0-3.461h7.725a1.73 1.73.0 0 1 1.808 1.73v7.8A1.73 1.73.0 0 1 37.943 35.144z" transform="translate(15.444 12.981)" fill="#707070"/><path d="M44.615 45.232H35.19a1.746 1.746.0 0 1-1.73-1.746V35.76a1.73 1.73.0 0 1 3.461.0v5.948h7.725a1.746 1.746.0 0 1 0 3.476z" transform="translate(18.188 18.499)" fill="#707070"/><path d="M40.24 42.961a1.746 1.746.0 0 1-1.73-1.746V25.61a1.73 1.73.0 1 1 3.461.0V41.215a1.746 1.746.0 0 1-1.731 1.746z" transform="translate(20.94 12.977)" fill="#707070"/><path d="M25.1 27.859a1.746 1.746.0 0 1-1.746-1.653V10.524a1.746 1.746.0 1 1 3.476.0V26.206A1.73 1.73.0 0 1 25.1 27.859z" transform="translate(12.694 4.681)" fill="#707070"/><path d="M2.967 20.518V11.032a8.065 8.065.0 0 1 8.065-8.065h9.487a1.406 1.406.0 0 0 1.406-1.421V1.406A1.406 1.406.0 0 0 20.518.0H11.032A11.032 11.032.0 0 0 0 11.032v9.487a1.406 1.406.0 0 0 1.406 1.406h.139a1.406 1.406.0 0 0 1.421-1.406z" transform="translate(0 0)" fill="#707070"/><path d="M37.293 2.967h9.27a8.142 8.142.0 0 1 8.142 8.142v9.27a1.545 1.545.0 0 0 1.545 1.545h0A1.545 1.545.0 0 0 57.8 20.379v-9.27A11.109 11.109.0 0 0 46.625.0h-9.27A1.545 1.545.0 0 0 35.81 1.545h0a1.545 1.545.0 0 0 1.483 1.421z" transform="translate(19.457 0)" fill="#707070"/><path d="M54.768 37.293v9.27a8.142 8.142.0 0 1-8.142 8.142h-9.27a1.545 1.545.0 0 0-1.545 1.545h0A1.545 1.545.0 0 0 37.355 57.8h9.27A11.109 11.109.0 0 0 57.734 46.625v-9.27a1.545 1.545.0 0 0-1.545-1.545h0A1.545 1.545.0 0 0 54.768 37.293z" transform="translate(19.457 19.457)" fill="#707070"/><path d="M20.441 54.768h-9.27a8.142 8.142.0 0 1-8.142-8.142v-9.27A1.545 1.545.0 0 0 1.483 35.81h.062A1.545 1.545.0 0 0 0 37.355v9.27A11.109 11.109.0 0 0 11.109 57.734h9.27a1.545 1.545.0 0 0 1.545-1.545h0A1.545 1.545.0 0 0 20.441 54.768z" transform="translate(0 19.457)" fill="#707070"/></g></svg>
