<svg xmlns="http://www.w3.org/2000/svg" viewBox="0 0 64 64"><title>scan-icon</title><g id="b69660df-1515-424f-bdb4-2c043aa8359e" data-name="レイヤー 2"><g id="a235dc58-d371-4d04-b930-1598574ea64d" data-name="レイヤー 1"><circle cx="32" cy="32" r="32" fill="#ea2027"/><path d="M17,25a1,1,0,0,1-1-1V21a5,5,0,0,1,5-5h3a1,1,0,0,1,0,2H21a3,3,0,0,0-3,3v3A1,1,0,0,1,17,25Z" fill="#fff"/><path d="M24,48H21a5,5,0,0,1-5-5V40a1,1,0,0,1,2,0v3a3,3,0,0,0,3,3h3a1,1,0,0,1,0,2Z" fill="#fff"/><path d="M43,48H40a1,1,0,0,1,0-2h3a3,3,0,0,0,3-3V40a1,1,0,0,1,2,0v3A5,5,0,0,1,43,48Z" fill="#fff"/><path d="M47,25a1,1,0,0,1-1-1V21a3,3,0,0,0-3-3H40a1,1,0,0,1,0-2h3a5,5,0,0,1,5,5v3A1,1,0,0,1,47,25Z" fill="#fff"/><path d="M28.47,30H22.53A1.54,1.54,0,0,1,21,28.47V22.53A1.54,1.54,0,0,1,22.53,21h5.94A1.54,1.54,0,0,1,30,22.53v5.94A1.54,1.54,0,0,1,28.47,30ZM23,28h5V23H23Z" fill="#fff"/><path d="M28.47,43H22.53A1.54,1.54,0,0,1,21,41.47V35.53A1.54,1.54,0,0,1,22.53,34h5.94A1.54,1.54,0,0,1,30,35.53v5.94A1.54,1.54,0,0,1,28.47,43ZM23,41h5V36H23Z" fill="#fff"/><path d="M41.47,30H35.53A1.54,1.54,0,0,1,34,28.47V22.53A1.54,1.54,0,0,1,35.53,21h5.94A1.54,1.54,0,0,1,43,22.53v5.94A1.54,1.54,0,0,1,41.47,30ZM36,28h5V23H36Z" fill="#fff"/><path d="M32,30a1,1,0,0,1-1-1V22a1,1,0,0,1,2,0v7A1,1,0,0,1,32,30Z" fill="#fff"/><path d="M32,36a1,1,0,0,1-1-1V33H22a1,1,0,0,1,0-2H32a1,1,0,0,1,1,1v3A1,1,0,0,1,32,36Z" fill="#fff"/><path d="M35,43H32a1,1,0,0,1-1-1V38a1,1,0,0,1,2,0v3h1V35a1,1,0,0,1,2,0v7A1,1,0,0,1,35,43Z" fill="#fff"/><path d="M38,36a1,1,0,0,1-1-1V33H35a1,1,0,0,1,0-2h3a1,1,0,0,1,1,1v3A1,1,0,0,1,38,36Z" fill="#fff"/><path d="M42,43H38a1,1,0,0,1-1-1V38a1,1,0,0,1,2,0v3h3a1,1,0,0,1,0,2Z" fill="#fff"/><path d="M42,40a1,1,0,0,1-1-1V32a1,1,0,0,1,2,0v7A1,1,0,0,1,42,40Z" fill="#fff"/></g></g></svg>