<svg xmlns="http://www.w3.org/2000/svg" viewBox="0 0 250 72"><title>site-logo-white</title><g id="ac4e061b-80e3-405c-a760-c9468876096b" data-name="レイヤー 2"><g id="ea85b7c4-337e-4ecf-930f-d4adc5ef2909" data-name="レイヤー 1"><path d="M53 44.19A29.14 29.14.0 0 0 59.52 43c-.34-.57-1.17-2-2-3.8s-1.69-2.37-2.94-2.37a3.3 3.3.0 0 0-1.25.26h0a4.23 4.23.0 0 1 3.26-4.22 8 8 0 0 1 1.58-.15c2.68.0 3.93.87 4.28 3a16.91 16.91.0 0 0 2 5.6 14.59 14.59.0 0 0 4.32-2.58 3.9 3.9.0 0 1 2.82-1.23c2.07.0 4.36 1.67 4.36 3.2.0 1.79-2.25 3.19-8.56 5.2a39.31 39.31.0 0 0 4.58 5.61 4.29 4.29.0 0 1 1.47 3.19 5 5 0 0 1-2.46 4.2 3.25 3.25.0 0 1-1.56.57A2.26 2.26.0 0 1 68.09 59a21.74 21.74.0 0 0-5.88-3c-.77-.23-6.39-1.93-6.07-2.68h0c.24-.53 6 0 6.59.0a36.27 36.27.0 0 1 4 .61c-1.38-1.75-3.24-4.37-4.62-6.56a36.39 36.39.0 0 1-8.65 1.49c-3.85.0-7.23-1.84-8.47-5.48A18.09 18.09.0 0 0 53 44.19zM49.76 55.92c1.9-.7 3 4.16 3.46 5.13 1.28 2.66 3.57 3.76 7.6 3.76A14.73 14.73.0 0 0 65.71 64a4.82 4.82.0 0 1 1.9-.44 6.25 6.25.0 0 1 2.68.74 3.34 3.34.0 0 1 2.21 3c0 2.1-2.43 3.06-7.66 3.06-5.88.0-10.2-1-12.67-3a8.55 8.55.0 0 1-2.78-5c-.2-.95-.67-5.4.37-6.45z" fill="#fff"/><path d="M79 43.16a1.9 1.9.0 0 0 1.77 1.31c.72.0.72.0 3.74-1.23l.92-.37.24-.12c0-.33.0-.62.0-1.28V40.24c0-2.51-.58-3.54-2.53-4-6.42-1.47 1-1.89 1-1.89 4.62.09 7.48 1.32 7.48 3.25a3.78 3.78.0 0 1-.57 1.85 13.35 13.35.0 0 0-1.12 4A2.1 2.1.0 0 1 90.89 45a2.23 2.23.0 0 1-.44 1.31l-.52.86a6.23 6.23.0 0 1-.36.54l-.08 1.15c6.9-6.7 9.84-8.67 12.77-8.67C105.67 40.16 108 43 108 47a45.62 45.62.0 0 1-1 7.19 38.67 38.67.0 0 0-.77 6.09c0 1.1.41 1.8 1 1.8 1.68.0 3.19-1.2 4.45-3.85 2.82-5.91 8.14-14.09 1.93 1.51a19.56 19.56.0 0 1-2.49 4.89 5.9 5.9.0 0 1-4.65 2.71c-3.3.0-5.83-3.33-5.83-7.64a61.38 61.38.0 0 1 .68-7.15 33 33 0 0 0 .53-4.85c0-2.42-.36-3.33-1.33-3.33-2.09.0-5.22 2.3-11.24 8.3.0 1.28.0 1.89.0 2.76.0 2.09.08 5.09.24 8.13a15.51 15.51.0 0 1 .08 1.73 6.54 6.54.0 0 1-.48 2.63 4.07 4.07.0 0 1-3.46 2.42c-1.32.0-1.89-.49-2-1.72-.08-1.65-1.12-3.58-3-5.55a5.08 5.08.0 0 1-.56 1 2 2 0 0 1-1.61 1.15c-1.36.0-2.69-1.85-2.69-3.7.0-1.69.44-2.55 2.13-4a25.37 25.37.0 0 0 2.49-2.42 70.19 70.19.0 0 0 5-5.72V49.2v-.54-1.8a32.36 32.36.0 0 0-2.61 2.34 2.08 2.08.0 0 1-1.61.7 3.76 3.76.0 0 1-2.61-1.36 4.35 4.35.0 0 1-.86-1.41 3.63 3.63.0 0 1 1-3.87zm6.31 20.18c0-2 0-2.68.08-6.37v-.62c-1.21 1.52-2.21 2.92-3.33 4.64z" fill="#fff"/><path d="M125.54 35a8.21 8.21.0 0 1 2.72-.68c2.52.0 4.71 1.69 4.71 3.63a1.77 1.77.0 0 1-.54 1.31 8.55 8.55.0 0 0-1.15 2.87c3.86.49 3.8.64 4.09-1.71a3.55 3.55.0 0 1 4.23-.92 2.75 2.75.0 0 1 1 2.84c-.79 1.72-3.34 3.29-10.52 4.43a159.58 159.58.0 0 1-7.14 20c-1.16 2.7-1.77 3.38-3.1 3.38-1.73.0-3.21-1.86-3.21-4.06.0-1 .24-1.64 1.28-3.08a57.85 57.85.0 0 0 7.3-15.78c-.58.0-.87.0-1.57.0-3.42.0-4.69-.52-6.15-4.3-2-5.09 1.74-1.9 1.74-1.9 1.55 1.55 2 2.07 4.08 2.07a29.56 29.56.0 0 0 3-.21 20.72 20.72.0 0 0 .54-3.93c0-1.39-.58-1.94-2-1.94C124.8 37.15 119.39 37.77 125.54 35zm8.38 24.14c.82 3.8 3.05 5.4 7.43 5.4a12 12 0 0 0 4-.51 4.47 4.47.0 0 1 1.36-.25 4.12 4.12.0 0 1 4 3.71c0 1.9-2.06 2.83-6.39 2.83-8.3.0-12.53-3-13-9.75-.18-2.89.41-3.79 1.28-3.79S133.92 59.18 133.92 59.18zm8-7.89c-.41.0-.78.0-.95.0a15.35 15.35.0 0 0-7.34 2s-3.34.8-.91-2.57c1.74-2.42 6.93-4 10.4-4a8.88 8.88.0 0 1 4.79 1.22 4.24 4.24.0 0 1 1.81 3.17c0 1.26-.91 1.89-2.76 1.94" fill="#fff"/><path d="M165.68 72c-.8.0-3-.22-3.48-.9C161.42 70 161 67.63 161 62.44V48.93c-6 7.87-10.28 8.34-10.28 8.34s1.77-2.69 3.36-5.36a85.2 85.2.0 0 0 9.38-22.45 3.63 3.63.0 0 1 4.65-2.5 40.78 40.78.0 0 1 5.45 2.23s-2.83.21-3.39 1.86a79.63 79.63.0 0 1-3.93 9.08 3.24 3.24.0 0 1 2.94.75s-2 1.29-2 2.62v9.63C167.25 57.47 166.16 68.54 165.68 72zm21.44-22.48a90.12 90.12.0 0 1-6.48 14c1.63-.09 8.45-.81 11.19-1.2a27.42 27.42.0 0 0-2.4-4.82c-.56-.84-1.44-3.45-.64-4.07h0c.73-.58 2.63.87 3.35 1.47 5 4.17 9.05 9.57 9.05 12.31.0 1.25-.72 2.26-2.45 3.36a4.5 4.5.0 0 1-2.64 1 1.87 1.87.0 0 1-1.73-1.15 5.45 5.45.0 0 1-.38-1.43c-.29-1.25-.44-1.87-.72-2.74a143.2 143.2.0 0 1-18.68 3.74c-.63 1.39-1 1.92-1.44 1.92-.92.0-1.78-2.35-3-8 1.92.0 4.32-.09 6-.19a95.13 95.13.0 0 0 3.27-14.28H172c-.9.0-3-.6-3.3-1.47h0a2 2 0 0 1 2-2.61h22.05l1.83-2.09a2.36 2.36.0 0 1 3.33-.22 33 33 0 0 1 2.48 2.41 2.39 2.39.0 0 1 .3 2.83h0a2.38 2.38.0 0 1-2 1.15zm-12.25-18.2h15.18l2-2.72a1.73 1.73.0 0 1 2.71-.23l2.78 3.3a2.49 2.49.0 0 1 .29 2.67l-.29.57A1.88 1.88.0 0 1 195.88 36h-21c-2.1.0-3.46-1.12-3.46-1.85C171.41 32.24 173.6 31.32 174.87 31.32z" fill="#fff"/><path d="M220.78 34.81a29.28 29.28.0 0 0-2.46-1.67l-2.38 2.34H202.82l.31 1a3.67 3.67.0 0 0 3.5 2.58h15A3.38 3.38.0 0 0 220.78 34.81z" fill="#fff"/><path d="M204.71 41.94l.2.65a4 4 0 0 0 3.85 2.84h11.16a3.09 3.09.0 0 0-.69-3.84c-.7-.61-1.41-1.15-2.47-1.94l-2.43 2.29z" fill="#fff"/><path d="M219.82 32.71h0a3.53 3.53.0 0 0-.51-4.19 26.41 26.41.0 0 0-2.4-2.17l-2.67 2.81h-9.48l.46 1.51a2.85 2.85.0 0 0 2.73 2z" fill="#fff"/><path d="M245.29 60.41c0 3.37-1.12 5.23-2.82 5.23-1.31.0-1.61-.2-1.61-1V55.15c3.47-1.61 5.89-2.69 5.89-6.76v-7c0-4-2.37-4.44-5.77-6.08q1.43-2 2.85-4.42c1.65-.44 5.38.27 5.38-.21.0-.93-5.24-3.14-10.82-4.84a61.84 61.84.0 0 1-2.15 8.47h-2.78a2.39 2.39.0 0 0 .12-.7c0-2.09-1.81-3-7.34-7.48S224.15 28 224.15 28a17.6 17.6.0 0 1 3.16 7.33c0 .45.07.7.09.87-2.59 1.84-4.28 2.5-4.28 5.91v5.76c0 3.4 1.68 4.5 4.26 6.34-.38 7.32-2.39 11.73-6.83 15L222.69 72c6.51-3.19 9.69-7.92 10.49-15.9h1.95v10c0 4.13 1.26 5.06 7 5.06 6.56.0 7.82-.93 7.92-5.64-1.55.0-1.9-.29-1.9-3.69C248.1 43.27 245.29 60.41 245.29 60.41zM229.6 46V44.46a3.66 3.66.0 0 1 3.66-3.66h3.35a3.67 3.67.0 0 1 3.66 3.66V46a3.67 3.67.0 0 1-3.66 3.66h-3.35A3.67 3.67.0 0 1 229.6 46z" fill="#fff"/><path d="M219.87 51.7h0a3.13 3.13.0 0 0-.74-4c-.64-.52-1.34-1-2.37-1.73l-2.43 2.28h-9.62l.19.59a4 4 0 0 0 3.87 2.86z" fill="#fff"/><path d="M221.82 57.33c0-.87-1-1.84-4.81-4.81l-2.24 2.33h-4.13c-1.85-.53-3.79-1-5.39-1.36V71.85h5.39v-3.3h4.42v1.6h5.35V59l1.07-1A1.13 1.13.0 0 0 221.82 57.33zm-6.76 7.48h-4.42V58.35h4.42z" fill="#fff"/><path d="M73.28 11.89a9.3 9.3.0 0 0-3.6-1.63L69 11.41a4.19 4.19.0 0 1 .63.48 7.65 7.65.0 0 1 2.29 3.46c.31.87.76 1.25 1.46 1.25a1.77 1.77.0 0 0 1.56-2A3.64 3.64.0 0 0 73.28 11.89z" fill="#fff"/><path d="M68.05 12.36V12.2c0-.32.0-1 0-1.6.47-.42 1.49-1.42 1.72-1.66A2.83 2.83.0 0 1 71 8.19a.85.85.0 0 0 .68-.91c0-1.23-1.42-3.22-2.32-3.22a.85.85.0 0 0-.51.19 2 2 0 0 1-.93.47h-.15a44.32 44.32.0 0 1-5.3.54c-.89.0-1.3-.21-1.51-.76l-.83.93a3.84 3.84.0 0 0 .43 1.8 2.07 2.07.0 0 0 1.59 1.16A2.39 2.39.0 0 0 63 8.19a27 27 0 0 1 5-1.5 31.59 31.59.0 0 1-5.46 5.51A32.93 32.93.0 0 1 57 15.82l.87 1.33A25.58 25.58.0 0 0 65.32 13v.43c-.12 2.23-.23 3.56-.36 4.53A5.19 5.19.0 0 0 64.83 19a2.18 2.18.0 0 0 2 2.27A1.26 1.26.0 0 0 68 20.54a3 3 0 0 0 .22-1.33c0-.4.0-1.16.0-1.9C68.07 15.46 68.05 14.3 68.05 12.36z" fill="#fff"/><path d="M12.71.0l-1 .9a.81.81.0 0 1 .66.84 1.22 1.22.0 0 1-.25.77A20.55 20.55.0 0 1 9.41 5.7 25.06 25.06.0 0 1 0 11.37L.4 12l.56.86c1-.25 1.93-.54 2.84-.86A25.3 25.3.0 0 0 9 9.55c0 .82-.06 1.65-.1 2.45-.12 2.84-.29 5.33-.38 5.57a5.13 5.13.0 0 0-.12 1c0 1.32 1.14 2.71 2.22 2.71a1.46 1.46.0 0 0 1.27-1A3.25 3.25.0 0 0 12 19.11c0-.1.0-.2.0-.55-.08-2.47-.12-3.95-.13-6.56.0-1.18.0-2.6.0-4.44a18.08 18.08.0 0 0 2-1.59A11 11 0 0 1 15.22 4.9c.66-.42.84-.7.84-1.19a4.33 4.33.0 0 0-.75-2.17A4.09 4.09.0 0 0 12.71.0z" fill="#fff"/><path d="M29.76 13.4l-.42.32c-2.59 1.94-5.56 3.5-6.7 3.5a1.45 1.45.0 0 1-1.4-.91l-.91 1.12c.61 2.16 2.17 3.84 3.52 3.84a1.3 1.3.0 0 0 1.07-.45 5 5 0 0 1 1.35-1.2 29.28 29.28.0 0 0 7-5.9 26.07 26.07.0 0 0 4.15-6.58L36.21 5.79A24.66 24.66.0 0 1 29.76 13.4z" fill="#fff"/><path d="M23.47 8.75a3.11 3.11.0 0 0 .24.55 1.31 1.31.0 0 0 1.21.67A2.24 2.24.0 0 0 27 7.64c0-2.09-2.75-3.91-6.57-4.37l-.88 1.28A6.8 6.8.0 0 1 21.68 6 10.55 10.55.0 0 1 23.47 8.75z" fill="#fff"/><path d="M49.81 3.15 49.26 4a3.41 3.41.0 0 1 2.17 1.85c.32.77.54 1 1 1a1 1 0 0 0 1-1.1C53.5 4.45 52.18 3.51 49.81 3.15z" fill="#fff"/><path d="M51.86 1.28l-.55.82A3.41 3.41.0 0 1 53.48 4c.32.77.55 1 1.05 1a1 1 0 0 0 1-1.1C55.55 2.58 54.23 1.64 51.86 1.28z" fill="#fff"/><path d="M51.52 9.44a12.8 12.8.0 0 0-6.61-2.3V5.06a6.62 6.62.0 0 1 .41-2.44A1.23 1.23.0 0 0 45.48 2c0-1.19-1.66-2-4.12-2l-.69 1.13A1.57 1.57.0 0 1 42 3l-.07 9.2v3.25a15.58 15.58.0 0 1-.12 1.86 7.81 7.81.0 0 0-.13 1.37 2.41 2.41.0 0 0 2 2.61c.93.0 1.48-.71 1.48-1.86.0-.17.0-.41.0-.63-.16-3-.21-4.61-.21-6.6V9.12A9.84 9.84.0 0 1 49 12.18a12.93 12.93.0 0 1 1 1.27c.45.76.84 1 1.41 1 1 0 1.66-.92 1.66-2.27v0A3.44 3.44.0 0 0 51.52 9.44z" fill="#fff"/><path d="M65.73 3.35a1.35 1.35.0 0 0 1.32.87A1.75 1.75.0 0 0 68.8 2.44C68.8.87 66.89.0 63.54.0l-.68 1.12A5.18 5.18.0 0 1 65.73 3.35z" fill="#fff"/><path d="M86.5 5.53c.44.75.82 1 1.5 1a1.58 1.58.0 0 0 1.55-1.69c0-1.62-2.67-3.12-5.77-3.22L83 2.69A6.93 6.93.0 0 1 86.5 5.53z" fill="#fff"/><path d="M83 11.45c.91.0 1.63-.94 1.63-2.16.0-2-2.41-3.55-5.84-3.79l-.68 1.31a6.61 6.61.0 0 1 3.38 3.33C82.07 11.19 82.39 11.45 83 11.45z" fill="#fff"/><path d="M90 12.62a30.14 30.14.0 0 1-3.83 2.77c-2.26 1.4-3 1.73-3.82 1.73a1.79 1.79.0 0 1-1.51-.87l-1 1.4c.71 2.05 2.31 3.62 3.65 3.62a1.35 1.35.0 0 0 1.17-.55 6.38 6.38.0 0 1 2-1.62 27.64 27.64.0 0 0 6.72-5.88c.17-.21.33-.4.48-.6a23.49 23.49.0 0 0 3.76-6.88L96.33 4.29A22.89 22.89.0 0 1 90 12.62z" fill="#fff"/><path d="M105.84 6.55a6.92 6.92.0 0 0-.91.0l-.68 1.3c.91.17 1.16.52 1.16 1.5a20.4 20.4.0 0 1-.19 2.6 14.77 14.77.0 0 1-1 3.95A10.51 10.51.0 0 1 101 19.8l1.25 1.47c3.44-1.79 5.14-4.43 6-9.27.07-.41.15-.81.21-1.25a2.62 2.62.0 0 1 .43-1.5 1.16 1.16.0 0 0 .23-.68 1.56 1.56.0 0 0-.59-1.07A3.62 3.62.0 0 0 105.84 6.55z" fill="#fff"/><path d="M114.11 1.73a1.2 1.2.0 0 0-.73.28c-.62.45-1 .52-3.12.59-1.3.0-2.33.11-3.62.21-2.69.2-3.61.25-4.43.25a2.2 2.2.0 0 1-2-.85l-.84.92c.23 1.77 1.3 3.05 2.58 3.05a1.57 1.57.0 0 0 .86-.23c.94-.68 5.31-1.27 10.44-1.43a19.26 19.26.0 0 1-3.08 5.77l1.46 1.05a28.2 28.2.0 0 0 4-4.68c.48-.71.68-.94 1-1a.74.74.0 0 0 .59-.75C117.23 3.9 115.07 1.73 114.11 1.73z" fill="#fff"/><path d="M128.38 4.91a9.33 9.33.0 0 0-9.51 9.32s0 .1.0.15c0 3.12 1.33 5.27 3.3 5.27 1.44.0 3-1.39 4.27-3.73.3-.56.56-1.12.8-1.69a14.82 14.82.0 0 0 1.37-5.59 4.81 4.81.0 0 0-.37-1.95A5.31 5.31.0 0 1 131.8 8.4a6.33 6.33.0 0 1 1.4 4.51 10.64 10.64.0 0 1-.08 1.32 5.13 5.13.0 0 1-1.32 3 9.5 9.5.0 0 1-4.92 2.56l.86 1.51c5.45-.77 8.22-3 8.67-7a10.89 10.89.0 0 0 .09-1.17A7.79 7.79.0 0 0 128.38 4.91zm-4.6 10.4c-.63.83-1.15 1.26-1.54 1.26s-.76-.74-.76-2.3c0 0 0 0 0 0a8 8 0 0 1 2.44-5.85 6.32 6.32.0 0 1 2.6-1.46.12.12.0 0 1 0 0s0 0 0 0a3.51 3.51.0 0 1 .19 1.11 8.89 8.89.0 0 1-.93 3.55 21.64 21.64.0 0 1-1.33 2.56A11.24 11.24.0 0 1 123.78 15.31z" fill="#fff"/><path d="M26.76 31.69a115.33 115.33.0 0 0 12-1.41 10.06 10.06.0 0 0 1.73.19c.81.0 1.24-.19 1.24-.58.0-.74-1.29-2.06-4.74-4.79-1.59 1.83-4 2.53-20.63 3.86h0a4.49 4.49.0 0 0 4.3 3l3.55-.1 2.59-.15z" fill="#fff"/><path d="M18.36 58.4a1.64 1.64.0 0 0-2.07 1.16 25 25 0 0 1-2.69 6.63 3.92 3.92.0 0 1-2.24 1.63s2.89 2.84 4.45 2.84c2.29.0 3.71-3.61 3.71-9.57.0-.31.0-.69.0-1.15A1.64 1.64.0 0 0 18.36 58.4z" fill="#fff"/><path d="M11.17 41.71a93.55 93.55.0 0 0 3.27-9.38l.93-.78a1 1 0 0 0 .44-.74c0-.62-.56-1.45-2.41-3.29a2.85 2.85.0 0 0-4.18.16l-.39.45H5.66C4.44 26.64 3 26.05.0 26.52v44c1.07 3.33 5.66.0 5.66.0a5.21 5.21.0 0 0 0-2c-1-4.84-1.75-9.36.0-9 5 1.12 3 3.15 2.34 3.66a9.21 9.21.0 0 0 3.86-1c2.44-1.28 3.61-3.81 3.61-7.92.0-4.79-1.22-7.86-4.64-11.72A6 6 0 0 1 11.17 41.71zM5.66 56.41V31.79a3.14 3.14.0 0 1 3.12 3.37 26.26 26.26.0 0 1-1.51 7L7.08 43c2.24 3.17 3.22 5.88 3.12 8.79C10 57.94 5.66 56.41 5.66 56.41z" fill="#fff"/><path d="M36.89 64.12c0 1.9.44 2.88 2 2.88-.24 4.49-1.22 5-9.71 5-6.49.0-7.76-.78-7.76-4.83v-8.8a7.13 7.13.0 0 1 5.52.69 19.81 19.81.0 0 0-1.76-2l.43-.37a3.19 3.19.0 0 1 3.35-.56c3 1.28 4.37 2.59 4.37 4.11s-4 4-4 4A2.43 2.43.0 0 0 29 62.06a11.63 11.63.0 0 0-1.39-1.85c-.05.0-1-.18-1 .68v4.79c0 1.32.25 1.47 2.35 1.47 3.07.0 3.61-.1 4.15-.88a8.52 8.52.0 0 0 1.22-3.47c0-.39.09-.44.14-.78C34.4 62 36.89 62.21 36.89 64.12z" fill="#fff"/><path d="M38.63 58.19a1.71 1.71.0 0 0-2.18 2.55 19.3 19.3.0 0 1 3.81 7.43c.24 1 .73 1.47 1.46 1.47 1.71.0 4-2.3 4-4C45.72 63.51 43.09 60.75 38.63 58.19z" fill="#fff"/><path d="M43.94 41.85c0-.83-1.1-1.85-4.4-4.29l-2.06 2.1H36.09a39.2 39.2.0 0 0 3.21-4.3 3.63 3.63.0 0 1 2.93-1.89s-1.6-.59-4.5-1.58a2.8 2.8.0 0 0-3.59 2 44 44 0 0 1-1.93 5.74H28.62c1.87-.64 2.92-1.66 2.92-2.89s-.86-2.49-2.83-3.84a3.75 3.75.0 0 0-2.42-.61 6.21 6.21.0 0 0-2 .69 7.52 7.52.0 0 1 .47.64 9.84 9.84.0 0 1 1.78 4.69 1.46 1.46.0 0 0 .63 1.32H21.82c1.68-.93 2.35-1.71 2.35-2.74.0-1.2-1-2.4-3-3.56a3.75 3.75.0 0 0-4.23.29h0a10.33 10.33.0 0 1 2.2 5.27 1.8 1.8.0 0 0 .24.74h-3.3a4.49 4.49.0 0 0 4.27 3.17H36.71A2 2 0 0 1 34.55 45l-17.42.06a4.52 4.52.0 0 0 4.25 3.08H36.71a2.47 2.47.0 0 1-2.44 2.49H16.37A4.7 4.7.0 0 0 20.84 54H36.71c1.16.27.0 1.71.0 1.71l1.86-1a6.78 6.78.0 0 0 3.65-6v-5C42.22 41.31 43.94 41.85 43.94 41.85z" fill="#fff"/></g></g></svg>