<svg width="16px" height="16px" xmlns="http://www.w3.org/2000/svg" viewBox="0 0 16 16"><title>spear-icon</title><g id="b269f88e-d04e-4594-b86e-c482ed8e75f9" data-name="レイヤー 2"><g id="f7df2e7f-71f3-4965-b24e-d036b7eb68e1" data-name="レイヤー 1"><path d="M15.75 14.05l-1.15-.28a.69.69.0 0 1-.3-.17L3.84 3.14 4 3A1.59 1.59.0 0 1 3 1.15 8.53 8.53.0 0 0 0 0 8.53 8.53.0 0 0 1.15 3 1.59 1.59.0 0 1 3 4l.16-.14L13.6 14.3a.69.69.0 0 1 .17.3l.28 1.15c.21.44.94.25 1.44-.22h0C16 15 16.19 14.26 15.75 14.05z" fill="#fff"/></g></g></svg>