<svg width="15px" height="16px" xmlns="http://www.w3.org/2000/svg" viewBox="0 0 15 16"><title>sword-icon</title><g id="a896c203-1f01-42ed-b2d5-11a5990d84a3" data-name="レイヤー 2"><g id="f96643eb-d8ec-4227-bfeb-63d387f4c53e" data-name="レイヤー 1"><path d="M14.85 15.85a.48.48.0 0 1-.7.0l-3.52-3.48L10 13l-.55-.5L10 12l-.48-.48-1 1c0-1.49.94-3-2-3-.92.0-1.5-.31-1.5-2C5 7 4.5 7 4 7c-.76.0-1-.71-1-1.5S2.87 4 2 4A1 1 0 0 1 1 3c0-.21.0-.39.0-.56S1 2.12 1 2C0 2 0 1 0 0A1.21 1.21.0 0 0 1.05 1a.93.93.0 0 1 .71.28A1.49 1.49.0 0 1 2 2.48C2 2.64 2 2.81 2 3h.45C3.71 3 4 3.41 4 4.5c0 .41.12 1 .5 1A1.31 1.31.0 0 1 6 7c0 .91.59 1 2 1 3.41.0 3.3 1.66 2.53 2.47L11 11l.44-.45L12 11l-.65.65 3.5 3.5A.48.48.0 0 1 14.85 15.85z" fill="#fff"/></g></g></svg>