<svg width="16px" height="16px" xmlns="http://www.w3.org/2000/svg" viewBox="0 0 16 16"><title>whip-icon</title><g id="af497573-840a-4261-90b8-49ca6d44f2ff" data-name="レイヤー 2"><g id="e887cb66-5705-4fe3-bdbe-b07e81397bfa" data-name="レイヤー 1"><path d="M16 10V9.05a5.88 5.88.0 0 0-.07-1 8 8 0 0 0-.6-1.94A11.21 11.21.0 0 0 13 2.83 10.76 10.76.0 0 0 9.74.6 7.1 7.1.0 0 0 7 0 5.69 5.69.0 0 0 5.71.16 6.55 6.55.0 0 0 2.27 2.3 9.5 9.5.0 0 0 .35 5.81a7.84 7.84.0 0 0-.35 2A5.68 5.68.0 0 0 .37 9.86a8.66 8.66.0 0 0 2.34 3.27 7.45 7.45.0 0 0 3.62 1.81 10.38 10.38.0 0 0 2 0 5.27 5.27.0 0 0 2-.5 2.8 2.8.0 0 0 .89-.72 3.32 3.32.0 0 0 .51-1 6.11 6.11.0 0 0 .2-2.08 2.88 2.88.0 0 0-1-2A3.08 3.08.0 0 0 8.82 8a6.17 6.17.0 0 0-1.93.74A2.93 2.93.0 0 1 6.13 9a3 3 0 0 1-.77-.07 1.61 1.61.0 0 1-1.14-.88A2.15 2.15.0 0 1 4.07 6.6a3.62 3.62.0 0 1 2.4-2.29A4.57 4.57.0 0 1 10 5 4.54 4.54.0 0 0 6.37 3.82 4.3 4.3.0 0 0 3.18 6.27 2 2 0 0 0 3 7.43 3.57 3.57.0 0 0 3.36 8.5 2.6 2.6.0 0 0 5.13 9.89 3.43 3.43.0 0 0 6.25 10a3.59 3.59.0 0 0 1-.33A5.84 5.84.0 0 1 8.9 9a2.2 2.2.0 0 1 1.44.4A2 2 0 0 1 11 10.73c.05 1.12-.14 2.43-1.09 2.84A4.26 4.26.0 0 1 8.26 14a9.75 9.75.0 0 1-1.79.0 6.47 6.47.0 0 1-3.11-1.58A7.58 7.58.0 0 1 1.3 9.51 4.4 4.4.0 0 1 1 7.84a7.06 7.06.0 0 1 .3-1.75c.68-2.27 2.35-4.45 4.63-5a5.66 5.66.0 0 1 3.43.39 9.6 9.6.0 0 1 3 2 9.33 9.33.0 0 1 2.07 3 6.9 6.9.0 0 1 .5 1.7 6.25 6.25.0 0 1 .07.87V10h0a1 1 0 0 0-.89.54l-2 4a1 1 0 0 0 .44 1.34A.93.93.0 0 0 13 16a1 1 0 0 0 .89-.55l2-4a1 1 0 0 0-.11-1.06A.47.47.0 0 0 16 10z" fill="#fff"/></g></g></svg>