<svg xmlns="http://www.w3.org/2000/svg" xmlns:xlink="http://www.w3.org/1999/xlink" viewBox="0 0 32 32"><defs><radialGradient id="fff7073d-89ca-47aa-9059-20fad343bcda" cx="16" cy="16" r="16" gradientUnits="userSpaceOnUse"><stop offset="0.04" stop-color="#1289a7"/><stop offset="0.84" stop-color="#1289a7"/><stop offset="0.97" stop-color="#1289a7"/></radialGradient></defs><title>zoom-icon-2</title><g id="a531ea28-5c22-4f89-9e0e-b02ee847e864" data-name="レイヤー 2"><g id="b414088a-90fb-4305-bf2c-bc33b6622c66" data-name="レイヤー 1"><circle cx="16" cy="16" r="16" fill="url(#fff7073d-89ca-47aa-9059-20fad343bcda)"/><g opacity="0.69"><path d="M19.5,15H16V11.5a.5.5,0,0,0-1,0V15H11.5a.5.5,0,0,0,0,1H15v3.5a.5.5,0,0,0,1,0V16h3.5a.5.5,0,0,0,0-1Z" fill="#fff"/><path d="M25.71,24.29l-3.54-3.54a8.53,8.53,0,1,0-1.42,1.42l3.54,3.54a1,1,0,0,0,1.42,0A1,1,0,0,0,25.71,24.29ZM9,15.5A6.5,6.5,0,1,1,15.5,22,6.51,6.51,0,0,1,9,15.5Z" fill="#fff"/></g></g></g></svg>