<svg xmlns="http://www.w3.org/2000/svg" xmlns:xlink="http://www.w3.org/1999/xlink" viewBox="0 0 32 32"><defs><radialGradient id="e0060f43-f20a-4a9a-bbf3-dd7043b53ee6" cx="15.82" cy="15.82" fy="5.513020975052829" r="16.03" gradientUnits="userSpaceOnUse"><stop offset="0.04" stop-color="#1289a7"/><stop offset="0.29" stop-color="#1287a4"/><stop offset="0.45" stop-color="#117f9c"/><stop offset="0.57" stop-color="#0f738d"/><stop offset="0.69" stop-color="#0d6179"/><stop offset="0.79" stop-color="#0a4a5e"/><stop offset="0.89" stop-color="#072e3e"/><stop offset="0.97" stop-color="#04131f"/></radialGradient></defs><title>zoom-icon</title><g id="e91828f9-d79d-4e59-9468-a0f41d2e26c8" data-name="レイヤー 2"><g id="f2fff20a-0a4d-4780-9ed8-b6276fce9236" data-name="レイヤー 1"><circle cx="16" cy="16" r="16" fill="url(#e0060f43-f20a-4a9a-bbf3-dd7043b53ee6)"/><g opacity="0.69"><path d="M19.5,15H16V11.5a.5.5,0,0,0-1,0V15H11.5a.5.5,0,0,0,0,1H15v3.5a.5.5,0,0,0,1,0V16h3.5a.5.5,0,0,0,0-1Z" fill="#fff"/><path d="M25.71,24.29l-3.54-3.54a8.53,8.53,0,1,0-1.42,1.42l3.54,3.54a1,1,0,0,0,1.42,0A1,1,0,0,0,25.71,24.29ZM9,15.5A6.5,6.5,0,1,1,15.5,22,6.51,6.51,0,0,1,9,15.5Z" fill="#fff"/></g></g></g></svg>